<svg width="800" height="800" viewBox="0 0 800 800" fill="none" xmlns="http://www.w3.org/2000/svg">
<g id="Desktop - 7">
<rect width="800" height="800" fill="white"/>
<g id="Country Austria">
<path id="&#208;&#144;&#208;&#178;&#209;&#129;&#209;&#130;&#209;&#128;&#208;&#184;&#209;&#143;" d="M464.073 580L419.201 570.496L363.827 564.793L298.906 546.736L284.586 507.769L270.265 522.976H199.615L186.249 559.091L170.019 541.984H148.061L126.102 522.976L118.464 546.736L107.962 541.984L65 518.224V500.166L71.683 484.959L65 475.455L82.2558 446.884L99.5116 451.814L126.102 484.959L141.419 478.93L161.14 451.814L175.93 456.744L199.615 469.07L209.163 465.001L220.302 459.209L240.023 451.814L264.674 444.419L284.586 438.389L336.163 437.023L343.558 422.233L353.419 407.442L336.163 380.326L350.953 363.07L370.674 348.279L390.395 335.953L395.326 313.767L410.116 333.488L415.047 294.878H426.839L444.024 315.787C452.616 314.203 470.947 311.035 475.53 311.035C480.112 311.035 486.986 304.065 489.85 300.581L497.488 287.275L509.899 285.374L515.628 264.465H567.183L597.734 280.622L630.194 271.118L668.383 287.275L661.558 303.907L678.814 338.419L688.674 355.674L685.568 401.324L668.383 409.877L660.745 401.324H648.334V419.381L668.383 429.836L648.334 452.646L654.062 475.455V491.612H634.968V507.769L621.602 513.472L610.145 535.331H592.005L584.368 546.736H554.771L525.175 553.389L501.307 580H464.073Z" stroke="black"/>
<g id="Wien">
<g id="CityDescription">
<path id="Rectangle 122" d="M437.316 378.999L454.938 370.684L495.229 390.844L477.607 399.159L437.316 378.999Z" fill="#221D1D"/>
<path id="Rectangle 123" d="M398.955 359.77L416.57 351.467L456.861 371.627L439.246 379.93L398.955 359.77Z" fill="#221D1D"/>
<g id="Group">
<path id="Wien_2" d="M436.363 362.839L420.602 367.066L419.274 366.407L425.793 359.367L412.272 362.932L410.96 362.281L418.679 354.063L419.974 354.706L413.319 361.765L426.976 358.181L428.151 358.764L421.514 365.883L435.153 362.239L436.363 362.839ZM435.451 365.381L436.66 365.982L427.839 370.657L426.629 370.057L435.451 365.381ZM437.993 364.664C437.743 364.54 437.616 364.391 437.614 364.217C437.611 364.044 437.727 363.895 437.962 363.771C438.186 363.652 438.466 363.591 438.805 363.586C439.143 363.582 439.437 363.642 439.686 363.766C439.936 363.89 440.063 364.039 440.065 364.212C440.079 364.38 439.974 364.523 439.751 364.641C439.505 364.771 439.213 364.839 438.874 364.843C438.536 364.847 438.242 364.788 437.993 364.664ZM443.049 374.058L435.553 370.338C434.704 370.857 434.318 371.429 434.395 372.052C434.484 372.67 435.022 373.224 436.01 373.714C436.567 373.991 437.173 374.194 437.828 374.324C438.495 374.449 439.189 374.495 439.91 374.462L439.82 375.209C438.953 375.261 438.096 375.203 437.248 375.034C436.411 374.871 435.635 374.613 434.919 374.257C433.999 373.801 433.372 373.294 433.036 372.738C432.724 372.181 432.709 371.623 432.994 371.064C433.278 370.506 433.851 369.998 434.712 369.542C435.573 369.085 436.532 368.77 437.589 368.594C438.657 368.424 439.71 368.402 440.749 368.527C441.799 368.659 442.739 368.93 443.568 369.341C444.397 369.753 444.951 370.223 445.23 370.751C445.508 371.279 445.494 371.817 445.187 372.365C444.891 372.906 444.307 373.408 443.435 373.871L443.049 374.058ZM442.545 369.883C441.682 369.455 440.681 369.24 439.543 369.237C438.427 369.234 437.393 369.444 436.442 369.866L442.796 373.02C443.589 372.518 443.958 371.979 443.904 371.401C443.873 370.823 443.42 370.318 442.545 369.883ZM454.94 374.985C456.065 375.543 456.632 376.157 456.642 376.828C456.675 377.498 456.077 378.159 454.847 378.811L449.731 381.522L448.522 380.922L453.52 378.273C454.436 377.787 454.902 377.301 454.918 376.815C454.933 376.329 454.509 375.872 453.645 375.444C452.68 374.965 451.628 374.735 450.49 374.756C449.375 374.776 448.319 375.05 447.324 375.577L442.695 378.03L441.486 377.43L450.307 372.755L451.466 373.33L449.839 374.192C450.705 374.071 451.573 374.077 452.443 374.21C453.336 374.344 454.168 374.602 454.94 374.985Z" fill="white"/>
</g>
</g>
<g id="Column">
<path id="Rectangle 101" d="M381.688 253.439L399.193 261.775V296.204L381.688 287.869V253.439Z" fill="#D32222"/>
<path id="Rectangle 103" d="M381.688 285.513L399.193 293.849V328.278L381.688 319.943V285.513Z" fill="#D32222"/>
<path id="Rectangle 105" d="M381.688 317.587L399.193 325.923V360.352L381.688 352.017V317.587Z" fill="#D32222"/>
<path id="Rectangle 106" d="M381.248 253.395L399.145 245.015L417.041 253.395L399.145 261.774L381.248 253.395Z" fill="#EE6060"/>
<path id="Rectangle 107" d="M399.193 296.204L416.699 287.869V253.439L399.193 261.775V296.204Z" fill="#F13F3F"/>
<path id="Rectangle 109" d="M399.193 328.278L416.699 319.943V285.513L399.193 293.849V328.278Z" fill="#F13F3F"/>
<path id="Rectangle 111" d="M399.193 360.353L416.699 352.017V317.587L399.193 325.923V360.353Z" fill="#F13F3F"/>
</g>
</g>
<g id="Salzburg">
<g id="CityDescription_2">
<path id="Rectangle 122_2" d="M588.295 342.284L603.788 334.304L639.213 353.652L623.719 361.632L588.295 342.284Z" fill="#221D1D"/>
<path id="Rectangle 124" d="M600.725 349.231L616.16 341.204L651.682 360.372L636.247 368.399L600.725 349.231Z" fill="#221D1D"/>
<path id="Rectangle 123_2" d="M554.566 323.829L570.054 315.859L605.478 335.208L589.991 343.177L554.566 323.829Z" fill="#221D1D"/>
<g id="Group_2">
<path id="Salzburg_2" d="M564.452 327.791C563.583 327.32 562.885 326.788 562.357 326.195C561.84 325.608 561.59 325.067 561.605 324.572L563.027 324.292C563.033 324.762 563.256 325.264 563.694 325.796C564.144 326.322 564.742 326.787 565.488 327.191C566.535 327.758 567.506 328.076 568.403 328.144C569.31 328.205 570.065 328.062 570.668 327.713C571.128 327.446 571.351 327.156 571.335 326.84C571.331 326.531 571.194 326.223 570.925 325.917C570.666 325.605 570.257 325.2 569.697 324.7C569.037 324.096 568.543 323.596 568.217 323.198C567.902 322.794 567.763 322.369 567.801 321.922C567.85 321.482 568.231 321.056 568.944 320.644C569.525 320.308 570.207 320.088 570.991 319.984C571.785 319.874 572.647 319.911 573.579 320.096C574.51 320.281 575.454 320.633 576.412 321.152C577.08 321.514 577.638 321.921 578.087 322.373C578.557 322.824 578.868 323.268 579.017 323.706L577.629 324.041C577.457 323.591 577.17 323.171 576.766 322.781C576.374 322.384 575.91 322.041 575.376 321.751C574.351 321.196 573.38 320.891 572.461 320.836C571.565 320.78 570.81 320.93 570.196 321.285C569.736 321.552 569.502 321.843 569.496 322.159C569.511 322.474 569.654 322.791 569.924 323.109C570.215 323.427 570.636 323.832 571.184 324.326C571.833 324.911 572.316 325.406 572.631 325.81C572.968 326.214 573.112 326.636 573.063 327.076C573.025 327.51 572.655 327.93 571.953 328.336C571.372 328.672 570.679 328.892 569.873 328.996C569.09 329.1 568.227 329.056 567.285 328.865C566.354 328.668 565.41 328.31 564.452 327.791ZM583.144 328.042C584.291 328.663 584.886 329.305 584.928 329.966C584.982 330.622 584.455 331.27 583.347 331.91L577.986 335.012L576.85 334.397L578.199 333.617C577.482 333.732 576.735 333.721 575.96 333.583C575.195 333.451 574.457 333.192 573.744 332.806C572.764 332.275 572.214 331.72 572.096 331.14C571.977 330.559 572.296 330.051 573.053 329.613C573.787 329.188 574.647 328.99 575.631 329.02C576.626 329.055 577.714 329.393 578.894 330.032L581.684 331.544L582.211 331.239C582.956 330.808 583.309 330.367 583.27 329.915C583.241 329.458 582.82 329.009 582.007 328.568C581.45 328.267 580.823 328.031 580.124 327.861C579.436 327.685 578.75 327.589 578.064 327.574L578.401 326.78C579.219 326.806 580.039 326.931 580.86 327.154C581.692 327.372 582.453 327.668 583.144 328.042ZM574.849 332.373C575.517 332.735 576.239 332.96 577.013 333.048C577.799 333.13 578.594 333.069 579.398 332.866L580.813 332.048L578.056 330.555C576.553 329.74 575.286 329.631 574.255 330.227C573.751 330.519 573.545 330.856 573.639 331.239C573.744 331.615 574.147 331.993 574.849 332.373ZM593.41 329.697L594.597 330.34L582.394 337.4L581.208 336.757L593.41 329.697ZM592.862 341.984L591.892 342.546L584.742 338.672L585.515 338.225L597.935 337.234L592.506 334.292L593.493 333.722L600.442 337.487L599.669 337.934L587.232 338.934L592.862 341.984ZM607.47 341.22C608.294 341.667 608.854 342.179 609.15 342.756C609.456 343.328 609.464 343.909 609.174 344.501C608.884 345.094 608.311 345.637 607.456 346.132C606.601 346.626 605.65 346.965 604.602 347.147C603.555 347.328 602.511 347.346 601.47 347.2C600.428 347.053 599.496 346.757 598.672 346.311C597.937 345.912 597.427 345.465 597.144 344.967C596.872 344.476 596.848 343.965 597.073 343.436L595.363 344.426L594.227 343.81L606.429 336.75L607.616 337.393L602.419 340.4C603.345 340.275 604.235 340.284 605.088 340.427C605.964 340.57 606.758 340.834 607.47 341.22ZM599.624 345.666C600.237 345.998 600.931 346.22 601.706 346.333C602.492 346.44 603.282 346.419 604.076 346.272C604.881 346.131 605.612 345.87 606.27 345.489C606.928 345.109 607.37 344.691 607.595 344.236C607.832 343.787 607.837 343.347 607.61 342.917C607.394 342.481 606.98 342.097 606.367 341.765C605.743 341.427 605.038 341.205 604.252 341.098C603.488 340.991 602.704 341.008 601.899 341.15C601.105 341.297 600.379 341.561 599.721 341.941C599.063 342.322 598.616 342.737 598.379 343.186C598.154 343.641 598.143 344.083 598.348 344.514C598.575 344.944 599.001 345.328 599.624 345.666ZM622.118 349.229L613.468 354.234L612.332 353.618L613.91 352.705C613.072 352.841 612.232 352.846 611.391 352.722C610.56 352.591 609.794 352.336 609.092 351.955C607.945 351.334 607.35 350.662 607.306 349.938C607.285 349.214 607.883 348.5 609.1 347.796L614.116 344.894L615.302 345.537L610.401 348.372C609.491 348.898 609.029 349.422 609.014 349.942C608.999 350.462 609.415 350.951 610.261 351.41C611.186 351.911 612.189 352.147 613.272 352.12C614.366 352.086 615.406 351.783 616.393 351.213L620.932 348.586L622.118 349.229ZM624.882 352.624C625.742 352.439 626.592 352.408 627.434 352.533C628.287 352.663 629.12 352.949 629.933 353.389L628.798 354.045L628.531 353.882C627.606 353.381 626.603 353.151 625.52 353.191C624.438 353.231 623.392 353.543 622.383 354.126L617.976 356.676L616.79 356.033L625.44 351.029L626.576 351.644L624.882 352.624ZM640.069 358.954L632.471 363.35C631.002 364.2 629.549 364.628 628.112 364.636C626.676 364.656 625.222 364.268 623.752 363.472C622.939 363.031 622.286 362.542 621.792 362.004C621.298 361.479 621.031 360.972 620.991 360.484L622.481 360.296C622.531 360.741 622.753 361.186 623.146 361.633C623.55 362.085 624.087 362.492 624.755 362.854C625.869 363.458 626.945 363.752 627.984 363.737C629.011 363.729 630.063 363.414 631.137 362.793L632.239 362.155C631.323 362.273 630.422 362.252 629.536 362.091C628.66 361.936 627.861 361.663 627.137 361.27C626.313 360.824 625.736 360.315 625.408 359.744C625.101 359.173 625.071 358.598 625.317 358.019C625.585 357.439 626.125 356.915 626.936 356.445C627.748 355.976 628.661 355.66 629.675 355.497C630.701 355.34 631.723 355.341 632.742 355.501C633.762 355.66 634.689 355.965 635.524 356.418C636.27 356.822 636.796 357.273 637.101 357.77C637.407 358.267 637.464 358.777 637.272 359.299L638.933 358.338L640.069 358.954ZM628.29 360.734C628.925 361.078 629.63 361.313 630.405 361.438C631.192 361.557 631.965 361.552 632.726 361.424C633.498 361.302 634.191 361.063 634.805 360.708C635.419 360.353 635.817 359.96 635.999 359.531C636.203 359.101 636.18 358.671 635.931 358.241C635.704 357.811 635.267 357.421 634.621 357.071C633.987 356.727 633.281 356.493 632.506 356.367C631.742 356.248 630.973 356.249 630.202 356.372C629.441 356.5 628.753 356.742 628.139 357.097C627.525 357.452 627.116 357.845 626.912 358.275C626.719 358.711 626.737 359.144 626.964 359.574C627.213 360.004 627.655 360.39 628.29 360.734Z" fill="white"/>
</g>
</g>
<g className="Column">
<path id="Rectangle 101_2" d="M539.387 221.778L554.778 229.778V262.821L539.387 254.821V221.778Z" fill="#D32222"/>
<path id="Rectangle 103_2" d="M539.387 252.561L554.778 260.561V293.604L539.387 285.604V252.561Z" fill="#D32222"/>
<path id="Rectangle 105_2" d="M539.387 283.343L554.778 291.343V324.387L539.387 316.387V283.343Z" fill="#D32222"/>
<path id="Rectangle 106_2" d="M539 221.735L554.735 213.693L570.47 221.735L554.735 229.777L539 221.735Z" fill="#EE6060"/>
<path id="Rectangle 107_2" d="M554.777 262.821L570.169 254.821V221.777L554.777 229.778V262.821Z" fill="#F13F3F"/>
<path id="Rectangle 109_2" d="M554.777 293.604L570.169 285.604V252.56L554.777 260.56V293.604Z" fill="#F13F3F"/>
<path id="Rectangle 111_2" d="M554.777 324.387L570.169 316.387V283.344L554.777 291.344V324.387Z" fill="#F13F3F"/>
</g>
</g>
</g>
</g>
</svg>
