<svg width="1440" height="1024" viewBox="0 0 1440 1024" fill="none" xmlns="http://www.w3.org/2000/svg">
<path d="M0 0H1440V1024H0V0Z" fill="url(#paint0_linear_71_736)"/>
<path d="M1043.55 393.143C1158.38 363.254 1214.31 -13.8819 1440 59.4341L1440 1024L252 1024C252 1024 280 975.5 333.5 946.5C387 917.5 479.5 892.5 479.5 892.5C579.5 871 784.084 822.976 699 727.5C633.5 654 703.528 541.828 824.307 528.173C908.397 518.666 842.349 445.511 1043.55 393.143Z" fill="white"/>
<path d="M170.5 667.5C81.5405 746.023 170.5 760.5 0 964.566L0.00202194 0L1019.5 0L959 80C940 104.5 855.346 172.102 756.5 160.5C632.943 145.998 593.719 277.486 471 241.5C381.433 215.235 351 353 251 406.5C176.382 446.421 260 588.5 170.5 667.5Z" fill="white"/>
<path d="M170.5 667.5C81.5405 746.023 170.5 760.5 0 964.566L0.00202194 0L1019.5 0L959 80C940 104.5 855.346 172.102 756.5 160.5C632.943 145.998 593.719 277.486 471 241.5C381.433 215.235 351 353 251 406.5C176.382 446.421 260 588.5 170.5 667.5Z" fill="url(#paint1_linear_71_736)"/>
<path d="M1043.55 393.143C1158.38 363.254 1214.31 -13.8819 1440 59.4341L1440 335.5C1440 335.5 1385.01 465.34 1323.5 528.173C1254.25 598.909 1176.14 588.159 1105.5 657.5C1009.34 751.886 1077.71 920.177 951 966C861.523 998.358 775 852 710.5 927C646 1002 508.5 1024 508.5 1024L252 1024C252 1024 280 975.5 333.5 946.5C387 917.5 479.5 892.5 479.5 892.5C579.5 871 784.084 822.976 699 727.5C633.5 654 703.528 541.828 824.307 528.173C908.397 518.666 842.349 445.511 1043.55 393.143Z" fill="url(#paint2_linear_71_736)"/>
<ellipse cx="225.227" cy="241.684" rx="114" ry="77" transform="rotate(-41.3412 225.227 241.684)" fill="url(#paint3_linear_71_736)"/>
<ellipse cx="106.481" cy="567.21" rx="64.1773" ry="43.3478" transform="rotate(-75 106.481 567.21)" fill="url(#paint4_linear_71_736)"/>
<ellipse cx="362.059" cy="120.78" rx="34.2312" ry="23.1211" transform="rotate(-40.3315 362.059 120.78)" fill="url(#paint5_linear_71_736)"/>
<ellipse cx="147.059" cy="399.78" rx="34.2312" ry="23.1211" transform="rotate(-40.3315 147.059 399.78)" fill="url(#paint6_linear_71_736)"/>
<ellipse cx="253.059" cy="89.7803" rx="34.2312" ry="23.1211" transform="rotate(-40.3315 253.059 89.7803)" fill="url(#paint7_linear_71_736)"/>
<ellipse cx="65.0591" cy="290.78" rx="34.2312" ry="23.1211" transform="rotate(-40.3315 65.0591 290.78)" fill="url(#paint8_linear_71_736)"/>
<ellipse cx="54.4735" cy="766.953" rx="70.8423" ry="30.0803" transform="rotate(-67.952 54.4735 766.953)" fill="url(#paint9_linear_71_736)"/>
<ellipse cx="375.059" cy="45.7803" rx="34.2312" ry="23.1211" transform="rotate(-40.3315 375.059 45.7803)" fill="url(#paint10_linear_71_736)"/>
<ellipse cx="89.9782" cy="124.581" rx="64.1773" ry="43.3478" transform="rotate(-40.3315 89.9782 124.581)" fill="url(#paint11_linear_71_736)"/>
<ellipse cx="500.068" cy="961.481" rx="108.069" ry="26.0118" transform="rotate(-15.8161 500.068 961.481)" fill="url(#paint12_linear_71_736)"/>
<ellipse cx="927.502" cy="840.786" rx="73.5474" ry="52.3038" transform="rotate(-87.4679 927.502 840.786)" fill="url(#paint13_linear_71_736)"/>
<ellipse cx="810.244" cy="654.891" rx="73.5474" ry="52.3038" transform="rotate(-26.8611 810.244 654.891)" fill="url(#paint14_linear_71_736)"/>
<ellipse cx="1343.64" cy="190.563" rx="80.8417" ry="45.2119" transform="rotate(-58.6832 1343.64 190.563)" fill="url(#paint15_linear_71_736)"/>
<ellipse cx="1089.11" cy="508.363" rx="135.521" ry="53.6188" transform="rotate(-45.6219 1089.11 508.363)" fill="url(#paint16_linear_71_736)"/>
<ellipse cx="545.744" cy="134.226" rx="90.2421" ry="43.3478" transform="rotate(-30.5773 545.744 134.226)" fill="url(#paint17_linear_71_736)"/>
<ellipse cx="817.5" cy="72.6138" rx="81.5707" ry="33.6482" transform="rotate(-15 817.5 72.6138)" fill="url(#paint18_linear_71_736)"/>
<path fill-rule="evenodd" clip-rule="evenodd" d="M508.5 1024H1440V335.5C1439.93 335.658 1384.97 465.378 1323.5 528.173C1288.47 563.952 1251.18 578.884 1213.73 593.877C1177.15 608.525 1140.41 623.233 1105.5 657.5C1062.18 700.024 1052.25 757.549 1042.83 812.117C1031.35 878.668 1020.62 940.822 951 966C909.518 981.002 868.671 957.592 830.359 935.635C786.031 910.23 745.097 886.77 710.5 927C646.062 1001.93 508.764 1023.96 508.5 1024Z" fill="url(#paint19_linear_71_736)"/>
<defs>
<linearGradient id="paint0_linear_71_736" x1="1440" y1="-1.00009" x2="-9.52831e-05" y2="1023" gradientUnits="userSpaceOnUse">
<stop offset="0.0001" stop-color="#CB88FF"/>
<stop offset="1" stop-color="#9D9BFF"/>
</linearGradient>
<linearGradient id="paint1_linear_71_736" x1="6.44368" y1="3.56236" x2="1440.02" y2="270.57" gradientUnits="userSpaceOnUse">
<stop stop-color="#38A2DE" stop-opacity="0.5"/>
<stop offset="0.468287" stop-color="#3BC98E" stop-opacity="0.5"/>
<stop offset="1" stop-color="#E6EA3C" stop-opacity="0.5"/>
</linearGradient>
<linearGradient id="paint2_linear_71_736" x1="1433.56" y1="1020.44" x2="-0.0255442" y2="753.429" gradientUnits="userSpaceOnUse">
<stop stop-color="#38A2DE" stop-opacity="0.5"/>
<stop offset="0.468287" stop-color="#3BC98E" stop-opacity="0.5"/>
<stop offset="1" stop-color="#E6EA3C" stop-opacity="0.5"/>
</linearGradient>
<linearGradient id="paint3_linear_71_736" x1="362.345" y1="246.736" x2="87.5655" y2="241.667" gradientUnits="userSpaceOnUse">
<stop stop-color="#D094FF"/>
<stop offset="1" stop-color="#9592F4"/>
</linearGradient>
<linearGradient id="paint4_linear_71_736" x1="183.673" y1="570.054" x2="28.9833" y2="567.2" gradientUnits="userSpaceOnUse">
<stop stop-color="#D094FF"/>
<stop offset="1" stop-color="#9592F4"/>
</linearGradient>
<linearGradient id="paint5_linear_71_736" x1="403.232" y1="122.297" x2="320.723" y2="120.775" gradientUnits="userSpaceOnUse">
<stop stop-color="#D094FF"/>
<stop offset="1" stop-color="#9592F4"/>
</linearGradient>
<linearGradient id="paint6_linear_71_736" x1="188.232" y1="401.297" x2="105.723" y2="399.775" gradientUnits="userSpaceOnUse">
<stop stop-color="#D094FF"/>
<stop offset="1" stop-color="#9592F4"/>
</linearGradient>
<linearGradient id="paint7_linear_71_736" x1="294.232" y1="91.2972" x2="211.723" y2="89.7752" gradientUnits="userSpaceOnUse">
<stop stop-color="#D094FF"/>
<stop offset="1" stop-color="#9592F4"/>
</linearGradient>
<linearGradient id="paint8_linear_71_736" x1="106.232" y1="292.297" x2="23.7229" y2="290.775" gradientUnits="userSpaceOnUse">
<stop stop-color="#D094FF"/>
<stop offset="1" stop-color="#9592F4"/>
</linearGradient>
<linearGradient id="paint9_linear_71_736" x1="139.682" y1="768.927" x2="-30.9838" y2="763.919" gradientUnits="userSpaceOnUse">
<stop stop-color="#D094FF"/>
<stop offset="1" stop-color="#9592F4"/>
</linearGradient>
<linearGradient id="paint10_linear_71_736" x1="416.232" y1="47.2972" x2="333.723" y2="45.7752" gradientUnits="userSpaceOnUse">
<stop stop-color="#D094FF"/>
<stop offset="1" stop-color="#9592F4"/>
</linearGradient>
<linearGradient id="paint11_linear_71_736" x1="167.17" y1="127.424" x2="12.4805" y2="124.571" gradientUnits="userSpaceOnUse">
<stop stop-color="#D094FF"/>
<stop offset="1" stop-color="#9592F4"/>
</linearGradient>
<linearGradient id="paint12_linear_71_736" x1="630.052" y1="963.188" x2="370.175" y2="949.736" gradientUnits="userSpaceOnUse">
<stop stop-color="#D094FF"/>
<stop offset="1" stop-color="#9592F4"/>
</linearGradient>
<linearGradient id="paint13_linear_71_736" x1="1015.96" y1="844.218" x2="838.683" y2="841.112" gradientUnits="userSpaceOnUse">
<stop stop-color="#D094FF"/>
<stop offset="1" stop-color="#9592F4"/>
</linearGradient>
<linearGradient id="paint14_linear_71_736" x1="898.706" y1="658.323" x2="721.426" y2="655.217" gradientUnits="userSpaceOnUse">
<stop stop-color="#D094FF"/>
<stop offset="1" stop-color="#9592F4"/>
</linearGradient>
<linearGradient id="paint15_linear_71_736" x1="1440.88" y1="193.53" x2="1246.05" y2="189.189" gradientUnits="userSpaceOnUse">
<stop stop-color="#D094FF"/>
<stop offset="1" stop-color="#9592F4"/>
</linearGradient>
<linearGradient id="paint16_linear_71_736" x1="1252.11" y1="511.88" x2="925.669" y2="501.601" gradientUnits="userSpaceOnUse">
<stop stop-color="#D094FF"/>
<stop offset="1" stop-color="#9592F4"/>
</linearGradient>
<linearGradient id="paint17_linear_71_736" x1="654.286" y1="137.07" x2="436.844" y2="131.43" gradientUnits="userSpaceOnUse">
<stop stop-color="#D094FF"/>
<stop offset="1" stop-color="#9592F4"/>
</linearGradient>
<linearGradient id="paint18_linear_71_736" x1="915.612" y1="74.8213" x2="719.111" y2="68.8862" gradientUnits="userSpaceOnUse">
<stop stop-color="#DBACFF"/>
<stop offset="1" stop-color="#BD92F4"/>
</linearGradient>
<linearGradient id="paint19_linear_71_736" x1="1440" y1="548.266" x2="964.831" y2="1014.4" gradientUnits="userSpaceOnUse">
<stop stop-color="#8729FF" stop-opacity="0.5"/>
<stop offset="1" stop-color="#265DE9" stop-opacity="0.5"/>
</linearGradient>
</defs>
</svg>
