<svg width="902" height="1039" viewBox="0 0 902 1039" fill="none" xmlns="http://www.w3.org/2000/svg">
<g clip-path="url(#clip0_37_3)">
<rect width="902" height="1039" fill="white"/>
<path d="M171.794 895.902L172.5 910.5H166.5H158L154 909.5L149 908.516C147.788 908.388 140.5 906.5 140.5 906.5L137 903.356L138.7 898L140.5 893.5L142 889.213L144 882.5L148 868.956H145H142.909H140.5L138.7 863L137 859L139.5 855.5L142.909 850.227L157.5 830L160.5 823L165 809.5L170.073 791.364L171.794 785.822H174.664L178.489 782L184.802 783.147L187.289 785.822L183.654 789.453L186.332 791.364H192.263L199.914 794.422L205.27 791.364C204.824 792.447 205.194 794.575 210.244 794.422C215.294 794.269 216.174 795.76 215.983 796.525C215.473 796.142 214.07 796.104 212.54 799.009C211.009 801.914 211.902 802.767 212.54 802.831H217.513L220 804.36L217.513 807.227L212.54 809.138L209.096 812.196L207.375 814.871H203.931L201.062 815.827L203.931 822.516C203.421 825.191 202.133 830.619 201.062 830.925C199.991 831.23 199.85 834.747 199.914 836.467L196.854 833.6L194.558 835.129L197.81 840.098L193.602 847.933L184.802 846.213L183.654 847.933L186.332 854.431L184.802 862.076H188.628C189.839 863.159 192.071 865.325 191.306 865.325C190.35 865.325 185.376 863.413 183.654 869.911C181.933 876.409 180.402 870.676 180.785 879.276C181.168 887.876 187.289 883.862 186.332 886.92C185.567 889.366 180.785 889.468 178.489 889.213L171.794 895.902Z" stroke="black"/>
<circle cx="630.5" cy="666.5" r="2.5" fill="black"/>
<path d="M386.721 810.152H391.499V802L396.999 794L412.999 792H419.499L429.999 795L440.999 799.5L447.499 802H451.499H455.999L459 796.5L462.5 793L467 790.5L472 787L479 784.5L484.5 775.5L480.5 772.5L473.5 775.5L466 771.5V766.5L471.343 761L462 749.5H468.5L473.5 744.5L467.5 732.5L468.266 728.763L464.804 726.454L463.458 720.874L456.15 719.335H453.457V717.026V712.793L456.15 709.329L458.65 701.825H464.804L466.151 698.747L469.612 692.397H475.574L480.5 688.5V685V679L484 667.5L485 663.5L489.999 660V653.5L482 651L472 647L467.5 648.5L464 641.5L461.5 639L454.5 637L451.5 639L443.5 635.5L438.5 632C438.5 632 439.615 625.603 440 624H436.5L431.5 627.5L425.5 624L428 619.5L424.5 617.5H419.5V612.5L415.5 613.5L411 603.5L407 608L404 605L405 596L396.5 597.5L388.499 599.5L383.999 619C378.499 622.5 370.423 627.401 369.499 628.325C368.576 629.248 367.153 629.794 365.999 630.5L362.68 632.365L358.499 635L355.18 636.021C352.808 634.803 347.833 632.365 346.91 632.365C345.986 632.365 344.961 630.5 343.999 630.5L340.499 628.325L338.499 627L331.499 623L328.999 644.5L328.499 650.5L314.499 648.5L306.999 641L305.499 639.5H293.999L284.999 641C282.05 641.706 274.923 643 273.999 643C273.076 643 275.396 645.755 276.998 648L279.499 651.5L281.499 654C281.819 655.154 282.53 655.205 283.443 656.5C284.499 658 284.999 658 285.999 659L298.999 669L311.499 681.5L314.999 689L318.999 698L322.499 707V711V727V736.5L321.999 743L318.499 764L314.499 769.5L306.499 780L312.868 781.098L310.56 785.331H314.791L323.061 789.372L328.254 795.721L331.524 793.605L339.794 799.762H350.179L352.679 795.721L362.68 802.455V808.035L369.988 806.496L374.22 811.691L379.028 810.152L383.643 814L386.721 810.152Z" stroke="black"/>
<path d="M510.696 836L507.565 844L500.913 842L497 836V827.4V822.4C497 821.44 498.435 817.333 499.152 815.4L504.239 812L509.522 809.8L507.565 804.2L510.696 802C511.609 805.267 513.435 812.16 513.435 813.6C513.435 815.04 514.478 823.4 515 827.4L510.696 836Z" stroke="black"/>
<path d="M739.312 364.074H735.066H724.645H717.891L710.557 368.323L702.259 370.834L692.802 377.209L684.504 387.06L689.714 391.116L692.802 399.615L698.592 402.706L705.346 399.615V414.103L709.013 421.443L705.346 430.328L698.592 436.703L692.802 430.328L684.504 421.443H678.328L669.451 430.328C668.743 435.222 667.753 445.318 669.451 446.554C671.149 447.79 670.158 457.5 669.451 462.2C670.48 466.707 672.539 476.455 672.539 479.391C672.539 482.328 672.539 484.478 672.539 485.186L661.538 499.287L649.573 510.684L644.362 502.957L638.187 499.287L614.643 508.559L610.011 518.603L586.466 527.489L574.501 522.66L565.624 510.684L558.29 515.899L547.869 522.66L535.904 527.489L528.57 522.66C525.997 521.308 520.426 518.063 518.728 515.899C517.03 513.736 515.19 510.104 514.482 508.559L518.728 502.957L535.904 518.603L547.869 508.559L550.957 495.617C551.857 492.14 553.774 484.645 554.238 482.482C554.817 479.778 548.448 475.721 545.746 475.721C543.585 475.721 538.284 478.168 535.904 479.391C533.459 482.675 528.146 489.243 526.448 489.243C524.749 489.243 522.009 489.243 520.851 489.243V482.482L528.57 475.721V466.45L520.851 462.2L526.448 446.554L520.851 439.793L499.429 453.894L491.131 468.381C490.23 473.081 488.429 483.023 488.429 485.186C488.429 487.891 495.184 490.788 495.184 492.913C495.184 494.613 495.184 501.991 495.184 505.468L502.517 510.684V522.66L499.429 531.545V539.851H491.131L484.762 534.636L479.166 539.851L471.832 543.521L465.464 539.851L458.5 542.5L453.5 545.5V549.896L458 553.5L453 562.5L447 564.5L445 559.5L447 552L443.5 548.5L440.568 549.896V558.202L435.358 572.882C432.72 574.749 426.943 579.141 424.936 581.768C422.929 584.395 415.995 588.399 412.778 590.073L405.638 595.868L388.269 599.345L383.637 619.241C375.274 624.843 358.047 636.046 356.04 636.046C354.033 636.046 346.841 632.183 343.496 630.251L331.531 622.911L328.443 650.533L314.355 648.409L305.478 639.523H295.635L273.635 643.193C276.915 648.409 284.635 659.38 289.267 661.544C293.898 663.707 306.121 675.709 311.653 681.439C315.32 689.23 322.653 705.353 322.653 707.516C322.653 710.221 322.653 730.889 322.653 735.718C322.653 739.581 319.823 756.386 318.408 764.306L305.478 781.111C299.045 778.149 285.638 772.226 283.477 772.226C281.316 772.226 273.956 769.779 270.547 768.556L252.213 764.306L233.493 757.545L202.809 746.149H194.317L184.475 752.909H175.597L166.334 757.545L172.51 764.306L175.597 772.226L172.51 781.111L166.334 805.643L163.632 815.494L157.457 830.174L148 843.696L137 858.762L140.667 869.193H148L140.667 893.339L137 903.19L140.667 906.28L157.457 910.53H175.597L184.475 922.506V931.391L188.142 941.243L199.142 950.708L202.809 944.333L211.107 936.993L218.44 944.333L225.195 936.993L273.635 944.333L278.845 936.993L289.267 925.597H302.776L314.355 906.28L326.899 898.554L322.653 893.339L318.408 880.783L326.899 873.443L337.706 858.762L343.496 849.877L350.251 843.696H368.005L375.918 837.901L391.55 826.891V821.675L397.146 818.585L391.55 812.403V801.973L397.146 794.053L412.778 791.928H419.147L427.445 794.053L442.498 799.848L447.323 801.973H455.621L459.867 795.212L471.832 787.292L479.166 784.781L484.762 775.316L500.973 772.226H508.886C512.874 776.411 520.851 785.283 520.851 787.292C520.851 789.803 526.448 791.928 528.57 795.212C530.693 798.496 528.57 800.427 532.237 805.643C535.171 809.815 540.021 811.888 542.079 812.403C544.009 814.464 548.487 819.203 550.957 821.675C554.045 824.766 554.238 826.891 558.29 830.174C562.343 833.458 563.115 833.844 565.624 837.901C567.631 841.146 575.466 843.116 579.133 843.696C584.73 847.688 595.923 856.29 595.923 858.762C595.923 861.235 605.315 859.793 610.011 858.762L626.029 873.443C630.081 875.889 638.187 882.019 638.187 886.964C638.187 891.909 642.304 899.842 644.362 903.19L638.187 916.132L626.029 919.415C619.789 921.476 606.691 925.597 604.221 925.597C601.133 925.597 595.923 925.597 588.589 925.597C581.256 925.597 579.133 931.391 574.501 931.391C570.796 931.391 572.957 935.126 574.501 936.993L588.589 944.333L596.888 950.708L607.309 955.344C612.391 956.76 623.25 959.67 626.029 959.979C628.808 960.289 631.432 957.018 632.397 955.344L629.695 941.243L630.274 933.903C630.982 931.134 632.397 924.978 632.397 922.506C632.397 920.034 640.374 923.536 644.362 925.597L652.661 916.132L661.538 903.19V886.964L649.573 876.533L656.907 858.762H669.451L684.504 873.443L689.714 865.137L678.328 849.877C671.188 847.817 656.907 843.155 656.907 840.991C656.907 838.828 644.427 838.03 638.187 837.901V826.891C632.976 826.891 621.822 825.848 618.888 821.675C615.955 817.503 609.947 817.876 607.309 818.585L596.888 808.154L588.589 791.928L574.501 784.781L563.115 768.556V752.909V744.024L568.326 735.718L583.379 732.048L588.589 735.718L583.379 740.354L586.466 746.149C587.174 748.402 589.207 753.837 591.677 757.545C594.147 761.254 595.537 751.493 595.923 746.149H604.221L610.011 752.909V764.306L629.695 781.111L649.573 791.928L672.539 805.643C680.194 809.957 696.122 818.585 698.592 818.585C701.68 818.585 698.592 826.891 698.592 833.844C698.592 840.798 705.346 852.581 705.346 855.672C705.346 858.144 713.709 865.716 717.891 869.193L724.645 876.533L735.066 893.339V916.132L755.909 919.415L768.453 931.391L783.506 941.243L796.05 936.993L790.454 922.506L799.138 916.132V906.28L812.261 910.53L816.893 903.19L803.963 886.964C798.366 883.68 786.439 876.379 783.506 873.443C780.573 870.507 776.366 862.432 774.629 858.762L768.453 849.877V837.901L783.506 849.877H796.05L799.138 843.696L796.05 840.991L790.454 833.844V830.174L799.138 821.675L808.015 818.585L824.805 821.675L832.525 818.585V815.494L835.227 805.643L832.525 795.212L837.735 787.292L845.648 784.781H856.069V781.111L849.315 768.556V757.545L856.069 746.149V735.718C856.069 730.503 856.069 719.415 856.069 716.788C856.069 714.161 861.601 708.096 864.368 705.391L862.824 690.711L872.666 674.099V661.544L876.912 657.874L889.456 650.533H902V527.489H899.298H886.368V515.899L876.912 508.559L862.824 510.684L857.5 514L852.5 521.5L835.227 510.684V499.287H841.402L849.315 485.186L835.227 475.721L812.261 468.381V453.894L803.963 439.793C800.489 441.017 792.924 443.541 790.454 443.85C787.983 444.159 784.793 445.781 783.506 446.554C777.266 444.3 764.169 439.175 761.699 436.703C759.228 434.23 758.739 425.499 758.804 421.443L748.189 410.432L746.067 396.332L739.312 387.06V364.074ZM739.312 364.074V359.5V357.313L743.944 353.643M743.944 353.643L752.5 348.616L761.699 343.212M743.944 353.643L761.699 343.212M761.699 343.212L758.5 340.5L755.909 337.997L743.398 338.962M743.398 338.962C743.398 338.962 740.576 337 740 336.599L734 333.168M743.398 338.962L734 333.168M734 333.168L731.014 337.997L720.978 343.212L709.013 353.643L695.504 357.313L689.714 364.074L678.328 368.323L672.539 364.074L656.907 357.313L654.5 343.212L656.5 336L651 324L647.5 304.5L646 287.388H654.5L654 278.5L664.626 264.5L671.5 246.5L672.539 240L680 238.5L675.5 228V223L664.626 220.554H652.661L644.362 223.644V232.53L638.187 235.234L634.906 247.597L644.362 258.607L634.906 265.368V273.867L626.029 279.082L618.888 287.388L610.011 295.694V310.374L604.221 317.715V329.111L601.519 343.212L604.221 357.313L614.643 360.983L622.555 368.323L626.029 370.834L629.695 377.209L622.555 387.06L626.029 393.821L618.888 402.706H607.309L601.519 421.443L607.309 439.793V453.894L604.221 466.45L588.589 473.597L583.379 475.721L579.133 479.391V489.243C576.431 491.368 570.487 495.617 568.326 495.617C566.164 495.617 562.793 493.814 561.378 492.913L558.29 485.186L554.238 473.597L550.957 453.894L545.746 439.793L535.904 421.443V406.956L526.448 399.615L520.851 391.116L518.728 402.706L508.886 414.103L495.184 421.443L479.166 427.238L467.587 418.932L455.621 410.432L462.376 402.706C461.733 399.551 460.33 392.623 459.867 390.15C459.404 387.678 456.844 371.736 455.621 364.074V343.212V329.111L471.832 310.374L488.429 303.034L500.973 289.899L523.36 266.913L545.746 232.53L550.957 209.544L561.378 193.897L565.624 177.672C565.238 175.096 563.848 169.945 561.378 169.945C558.908 169.945 551.343 172.778 547.869 174.195L550.957 164.73L561.378 146.379L568.326 141.744H574.501L583.379 132.858L588.589 121.848L610.011 107.361L626.029 95.3846L649.573 82.2496L669.451 78L689.714 82.2496C691.773 83.4085 695.272 86.6923 692.802 90.5556C690.332 94.4188 686.241 98.8615 684.504 100.6C682.896 102.274 693.67 97.3935 700 95.3846C706.33 93.3757 700.007 100.6 702.259 100.6L695.504 115.087C692.867 117.92 687.5 129.491 687.5 131.5C687.5 133.509 686.029 137.538 685 140.5L689.714 148.5H697L708.651 160.328L703.409 179C706.175 182.155 710.557 187.446 710.557 188.682C710.557 189.918 717.505 198.211 720.978 202.203V213.793L724.645 223.644C726.768 225.705 731.014 230.367 731.014 232.53C731.014 234.693 733.715 240.385 735.066 242.961L739.312 252.812L752.821 262.277L758.997 273.867L752.821 295.694L734 333.168Z" stroke="black"/>
<path d="M186.609 223.439C183.856 222.819 183.041 214.655 182.977 210.651L162.143 198.251C164.5 197.023 168.756 193.949 166.921 191.469C164.628 188.369 163.29 182.556 162.143 179.069C161.226 176.279 164.946 176.615 166.921 177.131C170.744 179.133 178.848 183.021 180.683 182.556C182.977 181.975 182.977 178.294 178.39 175C173.802 171.706 171.891 170.737 166.921 164.731C161.952 158.725 169.215 153.106 171.891 148.262C174.567 143.418 182.977 141.093 182.977 137.993C182.977 134.893 189.285 139.543 196.357 145.162C203.429 150.781 196.357 151.168 196.357 156.981C196.357 162.794 196.357 170.737 198.841 172.675C201.326 174.613 204.384 167.056 204.384 164.731C204.384 162.406 212.986 161.437 216.999 160.275C221.013 159.112 223.116 167.056 229.423 170.737C235.731 174.419 239.363 172.675 240.127 170.737C240.739 169.187 248.027 167.637 251.595 167.056C254.462 168.929 260.693 173.14 262.681 175C265.166 177.325 259.814 182.944 258.285 186.238C256.756 189.532 262.681 193.794 266.504 198.251C269.562 201.816 269.18 204.774 268.607 205.807C267.014 209.811 263.599 218.285 262.681 220.145C261.764 222.005 250.448 225.699 244.905 227.314C236.495 228.541 219.14 230.995 216.999 230.995C214.324 230.995 210.118 233.708 204.384 234.87C198.65 236.033 196.739 229.057 196.357 227.314C195.974 225.57 190.049 224.214 186.609 223.439Z" stroke="black"/>
<path d="M282 506.383V503.266L276.236 496.059L274.122 489.241C272.265 491.513 268.243 496.059 267.013 496.059C265.783 496.059 263.682 497.357 262.786 498.007C261.569 496.773 259.135 493.994 259.135 492.747V485.15L267.013 478.527L278.349 468.592L274.122 465.086C272.713 465.021 269.319 464.93 267.013 465.086C264.131 465.281 262.786 467.229 253.371 472.878C250.911 473.657 250.681 476.969 250.873 478.527C251.705 479.111 253.986 480.67 256.445 482.228C259.519 484.176 254.908 485.15 253.371 489.241C251.833 493.332 250.873 489.241 248.759 489.241C247.068 489.241 244.34 486.514 243.187 485.15C241.073 483.722 234.81 481.722 226.663 485.15C220.514 488.851 224.549 487.682 232.811 492.747C238.96 495.085 229.161 494.5 226.663 496.059C224.165 497.617 224.549 497.617 229.161 509.305C230.698 512.227 238.96 510.279 240.497 511.253C242.034 512.227 236.846 513.98 229.161 519.045C221.475 524.11 224.549 523.915 221.283 525.473C218.016 527.031 216.095 527.421 211.099 527.616C206.103 527.811 208.793 530.538 208.217 533.849C207.641 537.161 209.946 541.836 211.099 544.953L211.135 545.049C212.256 548.082 212.482 548.692 216.095 552.355C219.746 556.056 220.898 552.355 224.549 552.355C228.2 552.355 233.388 553.134 236.846 552.355C240.305 551.576 246.646 548.654 250.873 548.654C255.1 548.654 258.559 548.459 262.786 548.654C266.167 548.81 270.471 546.251 272.201 544.953L278.349 530.538L282 516.902V506.383Z" stroke="black"/>
<path d="M589 735.748L595.5 737.607L598.5 736.863L604.5 731.285L607.039 737.607L609.262 740.397L613.707 741.512L618.708 742.256L620.004 739.653V736.863V733.702L621.486 732.4H624.634C624.943 732.71 625.56 733.144 625.56 732.4C625.56 731.471 624.634 729.425 624.634 728.123C624.634 727.082 623.894 724.342 623.523 723.102L627.598 721.429L631.487 718.639C631.549 717.648 631.784 715.627 632.228 715.478C632.673 715.329 635.006 714.3 636.117 713.805M636.117 713.805L633.525 709.342L628.339 700.5L636.117 713.805ZM636.117 713.805L640.377 717.152L647.971 721.429L654.453 726.264C655.194 727.132 656.75 728.793 657.046 728.495C657.343 728.198 661.368 728.743 663.343 729.053L668.159 729.425L673.345 727.194L677.049 724.218M677.049 724.218L680.198 723.102L683.902 720.127H686.495L689.273 715.478H696.681C697.118 715.259 697.739 714.953 698.348 714.663M677.049 724.218L679.272 727.565L681.124 731.285L681.494 733.516L683.531 735.748L690.199 739.839L683.902 740.397L685.013 744.116V745.696M720.018 689.444L719.092 696.696L715.758 700.787L715.202 708.226L712.98 711.387L710.572 709.713L708.535 710.085L707.979 714.176C705.572 714.052 700.682 713.805 700.386 713.805C700.206 713.805 699.289 714.215 698.348 714.663M720.018 689.444L721.5 682.192L721.619 681.823M720.018 689.444L721.619 681.823M736 656L731.316 668.617L723.722 675.311L721.619 681.823M698.348 714.663L703.164 720.685L707.609 721.429L709.646 723.474L709.276 726.078L714.462 732.4L723.352 734.632L726.315 736.863L725.76 739.095L723.722 741.512L725.204 744.116C726.068 744.55 727.871 745.455 728.167 745.603C728.538 745.789 733.538 746.161 733.909 746.161C734.205 746.161 736.378 746.905 737.428 747.277L738.724 750.066C739.218 748.083 740.28 744.116 740.576 744.116C740.873 744.116 743.416 743.372 744.651 743L746.318 743.372L748.17 745.603C747.553 746.285 746.318 747.798 746.318 748.393C746.318 748.988 746.318 750.748 746.318 751.554L751.689 754.157L755.578 755.087C755.085 755.769 754.134 757.282 754.282 757.877C754.43 758.472 754.344 760.48 754.282 761.41L755.578 762.526L765.209 761.41L775.952 760.294H780.767L784.471 758.992L790.954 757.877L797.066 757.133L801.511 756.203L804.289 753.414L807.067 750.066L810.956 747.277L814.661 744.116L818.735 741.512L823.921 739.653L828.922 739.095L832.256 739.653L835.034 739.095H838.738L841.516 740.397L845.22 741.512L856 742V729.5V717.5L856.5 715L857.259 713.805L864 705.5L852.629 697.998L850.406 700.787L848.184 703.205L844.109 703.949C843.739 704.445 842.961 705.622 842.813 706.366C842.665 707.11 840.405 707.048 839.294 706.924L835.034 703.205L833.923 702.142M790.028 645.93H790.954L794.658 645H797.066L801.511 648.161V650.765L804.289 653.554L807.067 656.343C807.931 657.149 809.66 658.91 809.66 659.505C809.66 660.1 812.5 663.472 813.92 665.083L818.735 666.571L823.921 671.22L826.885 675.311L827.811 679.588V685.725L828.922 691.118L831.144 696.696V699.486L833.923 702.142M833.923 702.142L835.589 700.787C836.269 700.602 837.664 700.23 837.812 700.23C837.96 700.23 838.491 699.486 838.738 699.114V697.44L836.886 696.324C836.948 695.581 837.145 694.093 837.442 694.093C837.738 694.093 838.8 693.349 839.294 692.977L840.405 691.304C839.788 690.87 838.59 689.965 838.738 689.816C838.923 689.63 840.961 687.956 841.146 687.956C841.331 687.956 841.701 685.911 841.701 685.353C841.701 684.795 841.701 683.121 841.701 682.564C841.701 682.117 841.208 681.138 840.961 680.704C840.22 680.084 838.738 678.807 838.738 678.658C838.738 678.472 838.553 676.427 838.923 675.869C839.294 675.311 840.035 674.753 840.22 674.753C840.368 674.753 840.899 674.753 841.146 674.753L842.628 675.497L844.109 676.427L845.591 675.497C845.961 675.187 846.776 674.567 847.073 674.567C847.369 674.567 849.048 674.443 849.851 674.381L850.406 673.452L853.185 674.381C853.493 674.443 854.148 674.53 854.296 674.381C854.481 674.195 855.407 672.708 855.592 672.522C855.74 672.373 864.13 665.996 864.5 665.5M692.422 779.448H687.421L691.125 783.167L690.199 786.328H687.421L685.013 785.398L682.791 788.932L683.531 791.349L682.791 794.51H680.198L680.938 798.973L682.791 801.949V804.738V811L677.049 804.738L673.345 801.949L666.677 798.23L663.343 793.395L660.195 791.349L658.528 786.328L654.453 784.097L649.082 779.448L642.785 776.287L640.377 772.939L637.044 769.592L634.821 764.757L633.525 761.41L631.487 760.294L628.339 757.877L625.56 755.087L627.598 750.81L628.339 746.161H632.228L633.525 749.323L637.044 750.81L637.784 746.161H642.785L645.934 743.372L651.12 745.603L657.046 746.161L663.343 745.603H668.159L672.234 744.116H677.049L679.272 745.603V748.393L682.791 749.323L685.013 747.277V745.696M692.422 779.448L695.2 777.774H696.681L698.348 776.287L696.681 774.985L695.2 772.939L691.125 770.708L692.422 769.592L697.422 768.848L696.681 766.245L693.903 764.757L689.273 763.455L687.421 761.41V756.203L690.199 751.554L689.273 747.277L687.421 745.603L685.013 745.696M692.422 779.448L693.903 783.167L698.348 785.398L701.497 788.932H707.609L710.572 790.233L715.202 792.279M715.202 792.279L712.98 794.51L709.646 796.556L710.572 799.903L710.109 801.577M715.202 792.279L716.499 791.349V785.027L721.583 781.679L725.76 786.328H730.945H732.983L736.317 792.279L740.576 794.51L737.428 800.833V804.738M700.386 820.359V816.268V812.548L698.348 809.201L700.386 804.738L703.164 801.949L704.09 800.833L705.572 804.738L709.646 803.25L710.109 801.577M710.109 801.577L712.98 804.738L719.092 807.899L721.685 812.548L721.583 812.776M733.909 840L730.945 838.211H727.241L725.204 833.934L723.722 830.586L721.685 824.45L720.018 820.359V816.268L721.583 812.776M721.583 812.776L723.167 817.011L725.76 816.268L726.315 812.548L728.167 807.899L730.945 806.412L734.279 809.945L736.317 804.738H737.428M737.428 804.738L742.799 803.25L746.318 800.833L751.689 799.903L756.134 803.994L760.95 804.738L764.283 809.945L766.691 814.594V818.499L767.5 822.5" stroke="black"/>
<path d="M536 420.5V415.5V408.5V407C537.017 406.727 537.883 403.873 537.883 402.889C537.883 401.905 537.883 398.653 537.883 397.15L545.412 392.846V382.393C543.513 378.909 539.877 371.53 540.529 369.891C541.18 368.251 545.276 365.381 547.243 364.152C547.854 362.922 548.708 359.971 547.243 358.003C545.412 355.543 543.377 353.699 542.767 352.059C542.278 350.747 541.071 347.003 540.529 345.295C540.529 343.177 540.529 338.614 540.529 337.302C540.529 335.662 543.174 335.867 540.529 330.333C537.883 324.799 537.883 326.029 537.883 321.11C537.883 316.191 539.511 314.756 537.883 311.682C536.581 309.222 534.085 307.105 533 306.353C534.628 305.533 537.883 303.648 537.883 302.664C537.883 301.434 540.529 299.179 540.529 297.13C540.529 295.49 540.529 290.981 540.529 288.931L548.871 286.472H556.4L559.859 283.193V275.609L556.4 271.305V264.336L561.283 257.368C561.283 254.157 561.283 247.448 561.283 246.3C561.283 245.152 561.283 240.766 561.283 238.716L559.859 233.592V228.673H565.352L569.422 223.959V216.581L573.288 210.842L577.764 201.619L573.288 192.805L577.764 187.066V179.483L583.868 173.129L587.531 174.974H590.38V167.185V161.856C590.787 161.173 591.845 159.807 592.821 159.807C593.798 159.807 598.383 159.807 600.553 159.807L606.658 163.291L609.099 161.856L610.32 157.142V148.534L606.658 144.435L615 143" stroke="black"/>
<path d="M416.92 592.726L413.5 590L416.5 588.077L419 586.5L422 584.5L424 583C425.024 583 424.751 580.715 425.365 580.715C425.98 580.715 428.181 578.519 429.204 577.422L435.5 572.5L436.882 568.5L439 562.504L440.5 558V553.5V550L443.601 548.362L447 552L445 560L447 564.5L453 562.504L458 553.5L453.5 550V545.5L458.5 542.5L465.5 540L472.009 543.5L476.5 541.5L478 548.362V555.5L474.5 558.5L474 563.5H472.5C471.924 563.565 469.5 563.5 469.5 563.5L470.5 565L471 565.991L473 570L474 573L472.009 576.5L471 579.5L469.322 583L459.724 580.715L458.5 586L459.5 588.5C459.564 590.05 459.878 592.881 459.724 593.501C459.571 594.121 459.788 596.73 459.916 597.957L457.229 602L456.269 604L458 609H453.5L452 605.5L454 597L441.5 589.821H436.5L432.5 593.501L427.093 595.051H423.254L421.526 592.726H416.92Z" stroke="black"/>
<path d="M443 549L448 551.5V562L443 559.529V549Z" fill="#FFC909"/>
<path d="M443 559.323L448 562V572.5L443 569.976V559.323Z" fill="#FFC909"/>
<path d="M443 549L448 546.444L453 549L448 551.556L443 549Z" fill="#FFEA30"/>
<path d="M448 562.108L452.875 559.529L453 549L448 551.566V562.108Z" fill="#FFE03D"/>
<path d="M448 572.5L452.751 569.976V559.323L448 562V572.5Z" fill="#FFE03D"/>
<path d="M277.75 597.071C275.554 597.524 270.93 598.546 270 599.012L275.231 606L282.012 603.282L285.887 599.012L292.669 598.041L302.162 606L307.587 598.041L315.144 593.965L321.537 599.012L332.581 598.041L341.3 595.712L354.087 598.041C358.156 598.753 366.487 600.332 367.262 600.953C368.037 601.574 375.852 597.718 379.662 595.712C381.471 594.159 385.359 590.626 386.444 588.918C387.529 587.21 385.992 586.653 385.087 586.589C383.86 586.653 381.057 586.744 379.662 586.589C377.919 586.395 375.012 584.454 375.012 583.677C375.012 583.056 377.079 580.442 378.112 579.213C378.629 578.501 379.662 576.534 379.662 574.36C379.662 572.186 383.279 575.266 385.087 577.077C386.379 575.46 389.156 572.03 389.931 571.254C390.9 570.283 394 561.354 394 559.995C394 558.908 392.45 554.107 391.675 551.843C388.187 549.902 380.902 546.291 379.662 547.378C378.112 548.737 375.012 549.319 372.494 549.513C370.479 549.669 369.458 548.155 369.2 547.378L375.012 537.284L372.494 526.608V519.62L367.262 515.155V507.391L357.962 501.568L355.831 489.144V480.409L353.119 470.704L344.787 465.657H341.3L334.131 462.357L344.787 458.863L341.3 452.651L346.337 447.216L353.119 444.887L360.675 434.599V425.476L342.85 421.205L329.675 422.758L336.069 416.935L334.131 414.994L338.394 412.082L346.337 406.259V399.659L326.188 395C323.733 397.653 318.321 403.347 316.306 404.9C314.291 406.453 311.979 409.558 311.075 410.917C306.942 411.241 298.21 412.509 296.35 414.994C294.025 418.099 296.35 421.399 296.35 422.758C296.35 423.845 299.062 425.023 300.419 425.476C299.062 429.099 296.35 436.695 296.35 438.093C296.35 439.84 294.412 443.334 294.412 444.887C294.412 446.44 296.35 451.098 296.35 452.651C296.35 453.894 300.225 456.016 302.162 456.922L298.675 462.357V467.598C297.835 469.604 296.195 473.615 296.35 473.615C296.505 473.615 297.965 475.168 298.675 475.945L302.162 468.957L304.1 460.804L307.587 456.922V460.804L311.075 462.357V467.598L314.175 473.615L304.1 480.409L300.419 482.156L304.1 491.668L307.587 487.397L309.719 491.668H314.175L321.537 489.144H328.319C327.608 490.05 325.877 492.328 324.637 494.191C323.397 496.055 324.121 499.885 324.637 501.568L326.188 509.138L332.581 510.497C331.612 512.114 329.404 515.699 328.319 517.097C327.234 518.494 328.771 519.361 329.675 519.62L326.188 521.367L324.637 530.296L321.537 528.743H311.075L304.1 521.367L300.419 524.473L304.1 530.296L300.419 537.284V540.002L307.587 537.284C306.425 540.131 304.1 546.136 304.1 547.378V551.843L285.887 557.278V563.101L288.406 568.536L292.669 565.819L304.1 568.536L311.075 575.718L322.894 574.36C320.956 576.883 316.926 581.93 316.306 581.93C315.531 581.93 301.581 579.213 300.419 579.213C299.489 579.213 296.027 581.024 294.412 581.93L288.406 591.053L282.012 592.8L277.75 597.071Z" stroke="black"/>
<path d="M268 495.503L262.5 498L259 493.5V485L265.5 479.5L272 474L277.072 475.33L282.897 472.783C284.905 472.522 289.284 472 290.73 472C292.537 472 290.73 477.484 292.939 478.463C295.148 479.443 295.55 482.381 295.55 483.36C295.55 484.339 295.55 486.102 292.939 486.102C290.328 486.102 293.742 490.215 295.55 490.215C296.996 490.215 297.09 493.741 296.956 495.503C295.483 496.091 290.73 500.792 290.73 500.792L281.692 503L280 500.792L276 495.503L274 489.5L268 495.503Z" stroke="black"/>
<path d="M377 541L382 543.5V554L377 551.529V541Z" fill="#FFC909"/>
<path d="M377 551.323L382 554V564.5L377 561.976V551.323Z" fill="#FFC909"/>
<path d="M377 541L382 538.444L387 541L382 543.556L377 541Z" fill="#FFEA30"/>
<path d="M382 554.108L386.875 551.529L387 541L382 543.566V554.108Z" fill="#FFE03D"/>
<path d="M382 564.5L386.751 561.976V551.323L382 554V564.5Z" fill="#FFE03D"/>
<path d="M413.577 590L404.977 597L404 605.361L407.127 607.694L410.84 603.417L413.577 609.25L415.726 613.528L419.44 612.75V617.417H424.521L427.844 619.75L425.498 624.222L431.557 627.333L436.443 624.222H440.156L438.202 631.806L443.674 635.5L451.687 639L454.423 636.861L451.687 629.472L455.792 624.222L460.873 621.889L464 617.417L460.873 612.75L457.941 609.25H453.251L451.687 605.361L453.251 600.5L454.423 597L445.824 592.917L441.72 590H436.443L433.707 592.917L427.844 595.056H423.349L421.785 592.917H417.094L413.577 590Z" stroke="black"/>
<path d="M438 583L443 585.5V596L438 593.529V583Z" fill="#FFC909"/>
<path d="M438 593.323L443 596V606.5L438 603.976V593.323Z" fill="#FFC909"/>
<path d="M438 583L443 580.444L448 583L443 585.556L438 583Z" fill="#FFEA30"/>
<path d="M443 596.108L447.875 593.529L448 583L443 585.566V596.108Z" fill="#FFE03D"/>
<path d="M443 606.5L447.751 603.976V593.323L443 596V606.5Z" fill="#FFE03D"/>
<path d="M609.822 518.932L582.116 529.17V536.511L585.58 546.75L580 552.159L588.273 559.307L591.544 567.614V573.795C591.544 575.341 591.929 578.625 592.698 581.909C593.314 584.536 594.751 586.739 595.392 587.511L597.316 591.375L598.47 602L604.435 603.159L615.209 609.341L621.173 606.83V613.011C622.264 614.364 624.56 617.3 625.021 618.227C625.483 619.155 628.549 616.682 630.024 615.33L632.14 611.659L639.451 613.011L644.261 618.227L658.691 622.284C660.423 624.087 663.886 628.041 663.886 629.432C663.886 630.823 667.606 631.428 669.466 631.557L674.66 627.693L680.048 631.557V636H684.473L686.781 631.557L692.938 629.432L698.133 631.557L699.287 627.693L707.368 625.182L713.525 627.693C715.962 628.273 721.413 629.857 723.722 631.557C726.031 633.257 727.891 630.848 728.532 629.432L723.722 622.284L726.031 615.33L731.995 605.67L735.266 596.977L740.268 595.239L742 589.83L736.613 586.159L740.268 581.909L731.995 572.25L728.532 565.489V556.023C727.762 555.636 725.723 554.825 723.722 554.67C721.221 554.477 720.836 550.034 720.836 548.875C720.836 547.948 725.197 542.436 727.378 539.795C725.582 534.386 721.76 523.298 720.836 522.216C719.913 521.134 718.784 515.197 718.335 512.364L715.257 503.864L704.097 501.545L683.126 506.375L663.886 508.693C661.385 509.917 656.113 512.364 655.036 512.364C653.689 512.364 653.309 511.5 651 511.5C649.153 511.5 644 503 644 503L638.105 500C632.397 502.383 620.019 506.375 620.019 506.375C620.019 506.375 617.629 506.89 615 508.693L609.822 518.932Z" stroke="black"/>
<path d="M594 518L599 520.5V531L594 528.529V518Z" fill="#FFC909"/>
<path d="M594 528.323L599 531V541.5L594 538.976V528.323Z" fill="#FFC909"/>
<path d="M594 518L599 515.444L604 518L599 520.556L594 518Z" fill="#FFEA30"/>
<path d="M599 531.108L603.875 528.529L604 518L599 520.566V531.108Z" fill="#FFE03D"/>
<path d="M599 541.5L603.751 538.976V528.323L599 531V541.5Z" fill="#FFE03D"/>
<path d="M690.185 363.433C688.958 363.433 686.349 365 685.198 365L682 366.732L677 368L675.5 366.732L672.5 365L669.5 363.433L666.5 362L663.5 360.5L657 357L656.429 355.09L654.127 343.643L656.429 334.912L650.675 322.689L646.071 294.945V287.378H654.127V278.453L660.456 271.274L665.251 264.484L673.499 239.843L680.403 238.873L675.033 228.784V222.575L662.758 218.695L654.127 210.934V197.547L646.071 181.249V166.698L640.126 159.519C637.313 158.42 631.034 156.066 628.426 155.445C625.817 154.824 618.388 147.037 615 143.222L617.302 136.043L636.865 148.848L642.044 143.222L654.127 146.326L658.155 136.043L656.429 117.805L658.155 113.149L665.251 109.268L671.772 105L681.554 109.268L687.884 113.149L685.198 126.342V129.446L687.884 131.775L685.198 140.699L690.185 148.848H696.898L708.022 159.519L703.228 178.921L721 202V210.934V213.5L724.5 223L727 226L730 230L731 232L732 236L734.5 241.5L739 253L753 262.5L758.5 273.5L754.5 291.5L746.5 308.5L742 319C736.378 328.139 731.767 336.448 731 338C730.041 339.94 721 342.5 721 342.5L709 354L695.5 358L690.185 363.433ZM690.185 363.433C691.413 363.433 688.459 364.985 690.185 363.433Z" stroke="black"/>
<path d="M687 335L692 337.5V348L687 345.529V335Z" fill="#FFC909"/>
<path d="M687 345.323L692 348V358.5L687 355.976V345.323Z" fill="#FFC909"/>
<path d="M687 335L692 332.444L697 335L692 337.556L687 335Z" fill="#FFEA30"/>
<path d="M692 348.108L696.875 345.529L697 335L692 337.566V348.108Z" fill="#FFE03D"/>
<path d="M692 358.5L696.751 355.976V345.323L692 348V358.5Z" fill="#FFE03D"/>
<path d="M478.218 555.685V548.22L476.286 541.711L479.5 539.5L485 534.5L491 540H499.5V532L500.5 528.5L501.5 525.249L502.5 522.5V519.5V510.5C503.788 510.372 504.338 508.863 505.265 509.169C506.193 509.475 512.092 510.828 514.925 511.466L518.403 516.252L522.846 520.463L528.063 521.803L531 524.5L536 527.5L537.916 527L541.78 525.249L550.5 521L555 518L558.5 516L566 511L571.5 518.5L575 523L586 527.5L582.226 529.152L582 536.5L585.5 546.5L580.226 552L588.5 559.5L591.5 567.5V575L592.5 581.5L595 587L597.5 591.5L598 599L598.5 602L585.442 605.073L577.907 608.71L570.759 615.027L563.224 617.516L552.985 619.813L561.679 627.47V637.998L567.861 643.741L575.01 651.589H580.226L584.283 656.949L582.931 665.181L580.226 661.161L579.26 665.181L570.759 671.306L567.861 674.56L571.725 679.92L567.861 686.046H558.974L548.348 688.917L540.814 692.363L532.506 688.917L528.063 694.851L525.358 696L519.755 688.917L508.743 686.046L499.469 684.132H495.992L494.253 687.386H484.98L480.343 688.917V679.92L483.048 670.158L484.98 663.458L490.196 660.203V653.312L483.048 651.589L472.035 647.187L467.592 648.527C466.304 646.612 463.728 642.554 463.728 641.635C463.728 640.716 462.054 639.721 461.216 639.338L463.728 633.595L459.864 629.767V623.067L463.728 617.516L461.5 614L459 610.5L456 603.925L459.864 598.565V590.142L458.512 585.548L459.864 580.762L469.331 583.059L472.035 576.742L474.354 573.297L472.035 568.319L469.5 563.5L474.354 563.342V558.557L478.218 555.685Z" stroke="black"/>
<path d="M515 531L520 533.5V544L515 541.529V531Z" fill="#FFC909"/>
<path d="M515 541.323L520 544V554.5L515 551.976V541.323Z" fill="#FFC909"/>
<path d="M515 531L520 528.444L525 531L520 533.556L515 531Z" fill="#FFEA30"/>
<path d="M520 544.108L524.875 541.529L525 531L520 533.566V544.108Z" fill="#FFE03D"/>
<path d="M520 554.5L524.751 551.976V541.323L520 544V554.5Z" fill="#FFE03D"/>
<path d="M544 632L549 634.5V645L544 642.529V632Z" fill="#FFC909"/>
<path d="M544 642.323L549 645V655.5L544 652.976V642.323Z" fill="#FFC909"/>
<path d="M544 632L549 629.444L554 632L549 634.556L544 632Z" fill="#FFEA30"/>
<path d="M549 645.108L553.875 642.529L554 632L549 634.566V645.108Z" fill="#FFE03D"/>
<path d="M549 655.5L553.751 652.976V642.323L549 645V655.5Z" fill="#FFE03D"/>
<path d="M503 602L508 604.5V615L503 612.529V602Z" fill="#FFC909"/>
<path d="M503 612.323L508 615V625.5L503 622.976V612.323Z" fill="#FFC909"/>
<path d="M503 602L508 599.444L513 602L508 604.556L503 602Z" fill="#FFEA30"/>
<path d="M508 615.108L512.875 612.529L513 602L508 604.566V615.108Z" fill="#FFE03D"/>
<path d="M508 625.5L512.751 622.976V612.323L508 615V625.5Z" fill="#FFE03D"/>
<path d="M485 563L490 565.5V576L485 573.529V563Z" fill="#FFC909"/>
<path d="M485 573.323L490 576V586.5L485 583.976V573.323Z" fill="#FFC909"/>
<path d="M485 563L490 560.444L495 563L490 565.556L485 563Z" fill="#FFEA30"/>
<path d="M490 576.108L494.875 573.529L495 563L490 565.566V576.108Z" fill="#FFE03D"/>
<path d="M490 586.5L494.751 583.976V573.323L490 576V586.5Z" fill="#FFE03D"/>
<path d="M572.5 932L577 931L579.48 929.218L585.5 925.5H592H605L614 923L624 920L633 917.5L638.317 916L641.5 908.5L643.893 905V903L643 900.5L641 897.5L638.317 890L638 885L635.625 881.5L632.356 878.109L628.5 875.205L623.5 871.5L619 866.5L616.5 864.5L613.5 862L610 858.5L601.5 860L596.5 859.33L593 854.5L584.479 847.5L581 845L577.5 843.5L571.5 841.5L567.5 839.5L563.5 835L558.907 830.678L555 826.612L550.5 821L545 815L542 812L537.564 810.156L535.5 809C535.5 809 530.911 806.899 529.681 799C528.45 791.101 521 790.5 520.5 785.5L515 779L508.5 772H501L495.264 773.179L492 774L489 774.5L484.496 775.503L480.5 772.5L473.537 775.503L465.846 771.437V766.597L471.229 761.176L462 749.561H468.537L473.537 744.721L468 732.911L471.229 731.75L477.767 729.62L484.496 731.75L489.88 726.91V722.651L495.264 718.198L501.416 726.91L505.5 731L506.416 726.91L509.684 718.198L512.376 716.069L514.107 720.328H520.067L526.028 722.651L523.72 716.069L526.028 713.165L529.681 716.069V711.035L530 707.5H534L537.564 711.035L538.5 708.131L540.5 703.5H554.5L557.5 700.5L560.445 708.131L568.5 710L574 712L584.479 713.165L581.211 720.328L585.633 722.651L584.479 726.91L583 731.75L581.211 732.5L578 733.5L573.5 734.5L568.5 735.5L565 741L563 743.5V747.5V750.5V753V757.305V764V768.5L570.5 778.5L574.5 784.5L581.211 788.5L589 792L596.5 808L603 814.5L607.5 818.287H615L618.5 821.5L622 824.5L632.356 826.612H635.5L638.317 827.5V830.678V833.5V837.5L655 839.5L660.5 843.5L667 846L674.191 848.5L678 850L683 856.5L687.5 862.5L689.5 865L688 867.5L687 869L684.5 873.462L681.002 869.784L677 866L672.157 861.459L669 858.5H665H661.774H656.892L652.5 869L649.5 876.5L658 884L661.5 887V894V898.5V903.5L658 908.5L655 913L651.5 917.5L646.5 923L644.5 925.5L639 923L633 921.5L632 926.5L630 938V944L632.356 954.5L630 958L627.357 959.5C623.962 959.5 621.231 958.965 620 958.5C618.769 958.035 614.141 958.581 611 956L605.5 954.5L598 951.5L590.5 945.5L578 939L574 936L572.5 932Z" stroke="black"/>
<path d="M514.477 848.355L510.919 847L507.36 848.355L504.395 851.065L501.628 855.129L496.884 856.097L493.326 857.258L489.965 856.097L488.186 853.194L487 855.129C487.461 856.484 488.344 859.387 488.186 860.161C488.028 860.935 487.329 862.677 487 863.452H491.942L494.116 868.484L495.105 875.452L491.942 880.097L493.326 882.226C494.314 881.645 496.409 880.406 496.884 880.097C497.358 879.787 498.004 881.387 498.267 882.226L494.116 885.323L493.326 890.742L495.105 894.226H491.942C491.81 895.387 491.626 897.865 491.942 898.484C492.258 899.103 492.469 900.161 492.535 900.613L489.965 902.935L492.535 905.645L495.105 902.161L498.267 907H504.395L505.581 902.935L506.57 898.871H509.93L510.919 901.387L515.267 902.161L518.233 898.871L519.221 877L518.233 871.581L521 866.742L519.221 861.323L518.233 857.258H516.651L514.477 856.097L515.267 853.194L514.477 848.355Z" stroke="black"/>
<path d="M520 733L525 735.5V746L520 743.529V733Z" fill="#FFC909"/>
<path d="M520 743.323L525 746V756.5L520 753.976V743.323Z" fill="#FFC909"/>
<path d="M520 733L525 730.444L530 733L525 735.556L520 733Z" fill="#FFEA30"/>
<path d="M525 746.108L529.875 743.529L530 733L525 735.566V746.108Z" fill="#FFE03D"/>
<path d="M525 756.5L529.751 753.976V743.323L525 746V756.5Z" fill="#FFE03D"/>
<path d="M832.5 817C833.085 819.311 830.39 818.459 830 820C827.791 819.486 825.774 822.989 823.197 821.878C820 820.5 809 818.5 809 818.5C809 818.5 802.339 821.5 800 821.5C797.661 821.5 798.641 822.845 797.277 824C795.913 825.155 793 827.5 790.846 829.5C789.275 830.959 791.5 835.5 791.5 835.5L796 840.5L799 843.5L796 850C796 850 785.839 849.693 783.5 849.5C781.629 849.346 774.949 843.682 773 841.5L768.5 838C768.24 840.76 768.5 850 768.5 850L775 859.235L781 870.5L786 875.5L790.846 878.5L801 884.5C805.937 888.736 816.5 903 816.5 903C816.5 903 814.5 908 812 910.5L799 906V916L790.846 922.5L796 937L790.5 939L783.5 941L770.5 932.5L766 929.5C764.376 926.355 764 928.059 764 927.5C764 927.103 761.28 924.77 760.5 924C759.72 923.23 756.974 920.463 756 919.5C755.026 918.537 736.169 915.73 735 916.5C734.065 917.116 734.638 911.5 735 907.376V896.5V894L732.5 888.5L725 877L724 868.863C725.494 865.911 728.677 859.851 729.457 859.235C730.236 858.619 732.9 853.33 734.134 850.762L736.862 844.023L734.134 840.171L748.556 834.78L753.623 829.003L767.265 826.884V821.878L776.034 819.375L797.277 808.206L806.826 813.405L823.197 810.902L828.654 804.547C828.524 802.365 828.342 798 828.654 798C828.965 798 830.291 795.5 832.5 795.5C833.474 797.169 834.688 803.315 835 804.547C835.312 805.78 834.5 808.5 834.5 808.5C835.085 810.426 832.032 815.151 832.5 817Z" stroke="black"/>
<path d="M801 884L806 886.5V897L801 894.529V884Z" fill="#FFC909"/>
<path d="M801 894.323L806 897V907.5L801 904.976V894.323Z" fill="#FFC909"/>
<path d="M801 884L806 881.444L811 884L806 886.556L801 884Z" fill="#FFEA30"/>
<path d="M806 897.108L810.875 894.529L811 884L806 886.566V897.108Z" fill="#FFE03D"/>
<path d="M806 907.5L810.751 904.976V894.323L806 897V907.5Z" fill="#FFE03D"/>
<path d="M886.5 527.5H902L903.002 649.297C903.002 651 899.2 650.5 897.502 650.5C895.379 650.5 889.002 649.843 889.002 651C889.002 652.157 883.898 652.961 882.933 653.732C881.969 654.503 876.51 658.572 874.002 660.5C871.493 662.428 872.502 664.15 872.502 665.5C872.502 666.58 872.385 667.807 871.548 668L865.374 666.072L861.321 662.023L859.778 656.624L852.252 655.467C851.866 653.025 851.056 648.14 850.901 648.14H846.849L840.867 645.441V637.921L837.78 631.751H832.763H827.167C825.044 630.787 820.452 628.859 819.062 628.859H811.344C809.221 629.823 804.436 631.751 802.274 631.751C799.573 631.751 798.029 633.486 796.872 635.414C795.945 636.957 794.299 637.728 793.591 637.921L790.311 640.042V645.441C788.445 646.341 784.213 648.14 782.206 648.14C779.698 648.14 776.224 650.647 774.295 651.804C772.751 652.729 771.336 655.403 770.821 656.624L764.647 651.804H762.524C759.951 652.446 754.227 653.732 751.911 653.732H741.105L735.895 656.624L732.808 652.961L727.983 653.732C725.99 652.254 720.5 649.926 720.5 649C720.5 648.075 722.816 637.688 723.973 632.611L728.5 630L723.5 622L726 615L732 605.5L735.5 597L740.5 595L742 590L736.5 586L740.5 582L732.5 573.5L730.106 567.544L735.895 562.338L741.105 558.481L748.245 555.011C752.554 554.24 761.443 552.697 762.524 552.697H777.575L788.96 556.361C789.217 555.139 789.848 552.35 790.311 550.962C790.774 549.573 797.322 550.383 800.538 550.962L804.976 552.697L809.028 550.962L811.344 547.105L816.94 550.962L819.062 547.105C821.121 546.527 825.623 545.409 827.167 545.563C828.711 545.717 832.312 547.684 833.921 548.648C833.856 546.334 833.535 541.591 832.763 541.128C831.991 540.665 833.985 533.866 835.078 530.523L845.305 523.582L852.252 521.268L857.848 514.327C860.035 512.72 861.993 511.617 864 511C866.007 510.383 874.62 509.057 877 508.735C880.666 511.756 886.5 516.5 886.5 516.5V523.582V527.5Z" stroke="black"/>
<path d="M887 622L892 624.5V635L887 632.529V622Z" fill="#FFC909"/>
<path d="M887 632.323L892 635V645.5L887 642.976V632.323Z" fill="#FFC909"/>
<path d="M887 622L892 619.444L897 622L892 624.556L887 622Z" fill="#FFEA30"/>
<path d="M892 635.108L896.875 632.529L897 622L892 624.566V635.108Z" fill="#FFE03D"/>
<path d="M892 645.5L896.751 642.976V632.323L892 635V645.5Z" fill="#FFE03D"/>
<path d="M720.531 648.76L724 632.011L716 628.5L707.5 625L699.5 627.5L698 631.5L693 629.5L687 631.5L684.5 635.712H680V631.5L674.5 628L669 631.5L666 631L663.872 629.09L653.85 635.712V642.528L646.719 648.76L639.782 649.929L636.313 653.24L634 659.277L639.782 670.184L650.574 677L665.991 674.468L669.075 666.873L691.816 659.277V651.292L706.848 648.76L713.979 651.292L720.531 648.76Z" stroke="black"/>
<path d="M656 623L661 625.5V636L656 633.529V623Z" fill="#FFC909"/>
<path d="M656 633.323L661 636V646.5L656 643.976V633.323Z" fill="#FFC909"/>
<path d="M656 623L661 620.444L666 623L661 625.556L656 623Z" fill="#FFEA30"/>
<path d="M661 636.108L665.875 633.529L666 623L661 625.566V636.108Z" fill="#FFE03D"/>
<path d="M661 646.5L665.751 643.976V633.323L661 636V646.5Z" fill="#FFE03D"/>
<path d="M593.944 715L584.843 713.072L573.611 711.916L560.443 708.253L557.539 700.349L554.634 703.434H540.304L537.593 710.759L534.301 707.289H529.847L525.393 703.434L523.844 708.253L521.714 707.289L513 702.47V698.807L514.356 695.723L513 693.795L516.5 688L520 689L525.393 695.723L528.5 694.5L532.5 689L535.5 690L540.304 692.5L542.241 691.675L544.5 690.5L548.5 689L553.5 687.5L557.539 686.277L568 686L569.5 683L571.5 680L568 674.5L571 671L575 668L579 665.5L580 661L583 665L584 657.169H586.392L589.877 661.41C591.62 661.088 595.338 660.446 596.268 660.446C597.197 660.446 598.592 659.032 599.172 658.325L600.722 655.627L603.239 655.241L604.401 651H614.858L621.054 654.277L627.638 652.349L635.384 655.627L634 659L637.5 666L639.5 669.5L638.87 678.759L635.384 680.494L633.835 678.759H631.318V682.422L635.384 684.542L631.318 689.169L632.48 693.795V697.072H628.607V700.349L625.896 701.506L623.572 705.94H619.893L618.343 708.253H612.34L606.337 709.602L601.496 715H593.944Z" stroke="black"/>
<path d="M607 677L612 679.5V690L607 687.529V677Z" fill="#FFC909"/>
<path d="M607 687.323L612 690V700.5L607 697.976V687.323Z" fill="#FFC909"/>
<path d="M607 677L612 674.444L617 677L612 679.556L607 677Z" fill="#FFEA30"/>
<path d="M612 690.108L616.875 687.529L617 677L612 679.566V690.108Z" fill="#FFE03D"/>
<path d="M612 700.5L616.751 697.976V687.323L612 690V700.5Z" fill="#FFE03D"/>
<path d="M626 648L631 650.5V661L626 658.529V648Z" fill="#FFC909"/>
<path d="M626 658.323L631 661V671.5L626 668.976V658.323Z" fill="#FFC909"/>
<path d="M626 648L631 645.444L636 648L631 650.556L626 648Z" fill="#FFEA30"/>
<path d="M631 661.108L635.875 658.529L636 648L631 650.566V661.108Z" fill="#FFE03D"/>
<path d="M631 671.5L635.751 668.976V658.323L631 661V671.5Z" fill="#FFE03D"/>
<path d="M574 657L579 659.5V670L574 667.529V657Z" fill="#FFC909"/>
<path d="M574 667.323L579 670V680.5L574 677.976V667.323Z" fill="#FFC909"/>
<path d="M574 657L579 654.444L584 657L579 659.556L574 657Z" fill="#FFEA30"/>
<path d="M579 670.108L583.875 667.529L584 657L579 659.566V670.108Z" fill="#FFE03D"/>
<path d="M579 680.5L583.751 677.976V667.323L579 670V680.5Z" fill="#FFE03D"/>
</g>
<defs>
<clipPath id="clip0_37_3">
<rect width="902" height="1039" fill="white"/>
</clipPath>
</defs>
</svg>
