<svg width="552" height="552" viewBox="0 0 552 552" fill="none" xmlns="http://www.w3.org/2000/svg">
<rect width="552" height="552" fill="white"/>
<path d="M209.511 469.324L165.106 446.632L63.2672 502.255L107.672 524.947L209.511 469.324Z" fill="#221D1D"/>
<path d="M209.511 469.324L165.106 446.632L63.2672 502.255L107.672 524.947L209.511 469.324Z" fill="#221D1D"/>
<path d="M304.51 417.159L260.105 394.467L158.267 450.09L202.672 472.782L304.51 417.159Z" fill="#221D1D"/>
<path d="M304.51 417.159L260.105 394.467L158.267 450.09L202.672 472.782L304.51 417.159Z" fill="#221D1D"/>
<path d="M401.51 364.159L357.105 341.467L255.267 397.09L299.672 419.782L401.51 364.159Z" fill="#221D1D"/>
<path d="M401.51 364.159L357.105 341.467L255.267 397.09L299.672 419.782L401.51 364.159Z" fill="#221D1D"/>
<path d="M353.994 58L398.994 81V176L353.994 153V58Z" fill="#D32222"/>
<path d="M353.994 152L398.994 175V270L353.994 247V152Z" fill="#D32222"/>
<path d="M353.994 152L398.994 175V270L353.994 247V152Z" fill="#D32222"/>
<path d="M353.994 246L398.994 269V364L353.994 341V246Z" fill="#D32222"/>
<path d="M353.994 246L398.994 269V364L353.994 341V246Z" fill="#D32222"/>
<path d="M353.994 58L398.994 35L443.994 58L398.994 81L353.994 58Z" fill="#EE6060"/>
<path d="M398.994 176L443.994 153V58L398.994 81V176Z" fill="#F13F3F"/>
<path d="M398.994 270L443.994 247V152L398.994 175V270Z" fill="#F13F3F"/>
<path d="M398.994 270L443.994 247V152L398.994 175V270Z" fill="#F13F3F"/>
<path d="M398.994 364L443.994 341V246L398.994 269V364Z" fill="#F13F3F"/>
<path d="M398.994 364L443.994 341V246L398.994 269V364Z" fill="#F13F3F"/>
<path d="M140.694 467.827L127.134 475.439L162.116 486.625L159.462 488.115L121 475.781L137.178 466.699L140.694 467.827ZM182.238 475.571C180.396 476.605 178.113 477.337 175.39 477.768C172.629 478.187 169.708 478.276 166.625 478.035C163.542 477.795 160.59 477.223 157.77 476.318C154.949 475.414 152.846 474.365 151.46 473.172C150.074 471.98 149.497 470.769 149.73 469.539C149.963 468.31 151 467.178 152.842 466.144C154.684 465.11 156.967 464.378 159.691 463.947C162.415 463.517 165.306 463.428 168.365 463.682C171.447 463.923 174.399 464.495 177.22 465.4C180.04 466.304 182.143 467.353 183.53 468.545C184.94 469.724 185.547 470.935 185.351 472.176C185.118 473.405 184.08 474.537 182.238 475.571ZM178.777 474.461C180.134 473.699 180.888 472.872 181.039 471.979C181.177 471.062 180.688 470.157 179.572 469.264C178.457 468.372 176.8 467.574 174.602 466.869C172.404 466.164 170.142 465.706 167.814 465.494C165.486 465.282 163.319 465.335 161.313 465.654C159.294 465.947 157.606 466.475 156.249 467.237C154.892 467.999 154.144 468.838 154.006 469.756C153.855 470.648 154.326 471.547 155.417 472.453C156.533 473.346 158.19 474.144 160.387 474.849C162.585 475.554 164.848 476.012 167.175 476.224C169.527 476.422 171.713 476.375 173.731 476.082C175.738 475.763 177.42 475.223 178.777 474.461ZM194.42 455.307C197.929 454.145 201.589 454.175 205.398 455.396C207.926 456.207 209.249 457.176 209.369 458.305C209.488 459.433 208.324 460.685 205.876 462.059L197.187 466.937L168.285 457.669L176.72 452.934C178.901 451.709 181.251 450.956 183.769 450.673C186.287 450.39 188.736 450.63 191.117 451.394C192.693 451.899 193.757 452.497 194.311 453.188C194.852 453.853 194.889 454.559 194.42 455.307ZM183.651 460.383L189.395 457.159C190.874 456.329 191.579 455.561 191.512 454.856C191.47 454.136 190.642 453.518 189.031 453.002C187.419 452.485 185.81 452.322 184.205 452.512C182.623 452.689 181.093 453.193 179.615 454.023L173.871 457.247L183.651 460.383ZM202.69 461.133C204.338 460.208 205.171 459.385 205.189 458.664C205.207 457.943 204.355 457.306 202.634 456.754C200.912 456.202 199.273 456.008 197.715 456.171C196.122 456.323 194.513 456.855 192.889 457.766L186.563 461.317L196.618 464.542L202.69 461.133ZM190.403 445.252L192.985 443.803L205.787 447.908L217.82 441.153L205.018 437.048L207.599 435.599L236.501 444.866L233.92 446.315L221.172 442.228L209.139 448.983L221.886 453.071L219.305 454.52L190.403 445.252ZM252.001 436.407C250.159 437.441 247.876 438.174 245.152 438.604C242.392 439.023 239.47 439.112 236.387 438.872C233.305 438.632 230.353 438.059 227.532 437.155C224.712 436.25 222.608 435.202 221.222 434.009C219.836 432.816 219.259 431.605 219.492 430.376C219.725 429.146 220.763 428.015 222.605 426.981C224.447 425.947 226.73 425.214 229.454 424.784C232.177 424.353 235.069 424.265 238.127 424.519C241.21 424.759 244.162 425.332 246.982 426.236C249.803 427.14 251.906 428.189 253.292 429.382C254.703 430.561 255.31 431.771 255.113 433.012C254.88 434.241 253.843 435.373 252.001 436.407ZM248.539 435.297C249.897 434.535 250.651 433.708 250.801 432.816C250.939 431.898 250.451 430.993 249.335 430.101C248.219 429.209 246.562 428.41 244.365 427.705C242.167 427.001 239.904 426.542 237.577 426.33C235.249 426.118 233.082 426.172 231.076 426.49C229.057 426.784 227.369 427.311 226.012 428.073C224.654 428.835 223.907 429.675 223.768 430.593C223.618 431.485 224.088 432.384 225.18 433.29C226.295 434.182 227.952 434.981 230.15 435.685C232.348 436.39 234.61 436.848 236.938 437.06C239.29 437.259 241.475 437.211 243.494 436.918C245.5 436.599 247.182 436.059 248.539 435.297ZM270.431 414.139L254.435 423.119C257.584 424 260.783 424.353 264.033 424.176C267.246 423.988 269.906 423.302 272.015 422.118C273.203 421.452 273.982 420.739 274.353 419.982C274.687 419.213 274.595 418.424 274.077 417.617L278.059 417.611C278.749 418.58 278.855 419.555 278.376 420.534C277.921 421.5 276.931 422.412 275.404 423.269C273.441 424.371 271.073 425.151 268.301 425.609C265.516 426.041 262.582 426.137 259.5 425.897C256.417 425.657 253.465 425.084 250.645 424.18C247.824 423.275 245.696 422.24 244.262 421.075C242.851 419.896 242.226 418.712 242.386 417.523C242.571 416.321 243.548 415.224 245.317 414.23C247.086 413.237 249.297 412.546 251.948 412.156C254.599 411.766 257.442 411.705 260.476 411.973C263.474 412.228 266.401 412.814 269.258 413.731L270.431 414.139ZM248.669 415.305C246.827 416.339 246.173 417.498 246.708 418.781C247.23 420.039 248.835 421.173 251.522 422.185L265.083 414.572C262.056 413.751 259.033 413.413 256.015 413.556C252.984 413.675 250.535 414.258 248.669 415.305ZM304.275 403.814L314.66 407.144L312.224 408.512L305.246 406.274L288.123 415.886L295.101 418.124L292.666 419.492L282.281 416.161L283.371 415.549C284.546 414.793 283.99 413.845 281.703 412.705C279.416 411.566 275.885 410.156 271.11 408.475L261.694 405.231L275.799 397.312L301.294 405.488L304.275 403.814ZM273.693 407.219C277.674 408.602 280.832 409.818 283.167 410.866C285.465 411.902 286.672 412.824 286.789 413.631L298.713 406.937L276.68 399.871L267.482 405.035L273.693 407.219ZM320.985 397.681C319.095 398.742 316.775 399.495 314.027 399.939C311.303 400.369 308.4 400.465 305.317 400.224C302.198 399.972 299.228 399.394 296.407 398.489C293.587 397.585 291.483 396.536 290.097 395.344C288.711 394.151 288.134 392.94 288.367 391.711C288.625 390.468 289.698 389.316 291.589 388.254C293.237 387.329 295.198 386.664 297.471 386.26C299.733 385.831 302.173 385.705 304.792 385.882L304.844 387.598C302.785 387.494 300.923 387.602 299.257 387.923C297.555 388.233 296.135 388.707 294.996 389.347C293.614 390.122 292.842 390.976 292.68 391.907C292.505 392.813 292.963 393.719 294.055 394.625C295.17 395.517 296.827 396.315 299.025 397.02C301.259 397.737 303.54 398.201 305.868 398.413C308.183 398.599 310.362 398.539 312.405 398.232C314.436 397.9 316.142 397.346 317.523 396.571C318.662 395.931 319.369 395.228 319.642 394.46C319.916 393.693 319.653 392.903 318.855 392.091L322.76 391.644C323.876 392.665 324.275 393.701 323.955 394.753C323.599 395.793 322.609 396.769 320.985 397.681ZM327.284 382.562L322.921 385.011L335.778 389.134L333.197 390.583L304.296 381.315L306.877 379.866L319.569 383.936L323.968 381.466L318.001 373.621L320.801 372.049L327.286 380.767L350.248 381.011L347.194 382.725L327.284 382.562Z" fill="white"/>
<path d="M140.694 467.827L141.839 468.194L142.596 467.769L141.452 467.401L140.694 467.827ZM127.134 475.439L125.989 475.072L125.231 475.498L126.378 475.865L127.134 475.439ZM162.116 486.625L163.261 486.992L164.019 486.566L162.872 486.199L162.116 486.625ZM159.462 488.115L158.705 488.54L159.849 488.907L160.607 488.482L159.462 488.115ZM121 475.781L119.855 475.414L119.098 475.839L120.243 476.206L121 475.781ZM137.178 466.699L137.935 466.274L136.79 465.907L136.033 466.332L137.178 466.699ZM139.55 467.46L125.989 475.072L128.279 475.806L141.839 468.194L139.55 467.46ZM126.378 475.865L161.36 487.051L162.872 486.199L127.89 475.013L126.378 475.865ZM160.971 486.258L158.317 487.748L160.607 488.482L163.261 486.992L160.971 486.258ZM160.22 487.689L121.757 475.356L120.243 476.206L158.705 488.54L160.22 487.689ZM122.145 476.148L138.323 467.066L136.033 466.332L119.855 475.414L122.145 476.148ZM136.42 467.124L139.937 468.252L141.452 467.401L137.935 466.274L136.42 467.124ZM175.39 477.768L176.006 478.298L176.021 478.295L175.39 477.768ZM166.625 478.035L166.538 478.587L166.538 478.587L166.625 478.035ZM151.46 473.172L150.233 473.359L150.233 473.359L151.46 473.172ZM159.691 463.947L160.322 464.475L160.322 464.475L159.691 463.947ZM168.365 463.682L168.26 464.232L168.277 464.234L168.365 463.682ZM183.53 468.545L182.303 468.731L182.311 468.738L183.53 468.545ZM185.351 472.176L186.72 472.289L186.721 472.282L185.351 472.176ZM181.039 471.979L182.408 472.088L182.409 472.084L181.039 471.979ZM179.572 469.264L180.779 469.061L180.779 469.061L179.572 469.264ZM167.814 465.494L167.945 464.946L167.945 464.946L167.814 465.494ZM161.313 465.654L161.913 466.186L161.93 466.184L161.946 466.181L161.313 465.654ZM154.006 469.756L155.375 469.865L155.376 469.861L154.006 469.756ZM155.417 472.453L154.2 472.648L154.205 472.652L154.211 472.656L155.417 472.453ZM167.175 476.224L167.044 476.772L167.056 476.773L167.067 476.774L167.175 476.224ZM173.731 476.082L174.332 476.614L174.348 476.611L174.364 476.609L173.731 476.082ZM181.094 475.204C179.369 476.172 177.257 476.845 174.758 477.24L176.021 478.295C178.97 477.829 181.424 477.038 183.383 475.938L181.094 475.204ZM174.774 477.238C172.231 477.624 169.552 477.705 166.712 477.484L166.538 478.587C169.863 478.846 173.028 478.75 176.006 478.298L174.774 477.238ZM166.712 477.484C163.891 477.264 161.167 476.74 158.527 475.893L157.012 476.743C160.013 477.706 163.193 478.326 166.538 478.587L166.712 477.484ZM158.527 475.893C155.887 475.046 153.955 474.078 152.686 472.986L150.233 473.359C151.737 474.652 154.011 475.781 157.012 476.743L158.527 475.893ZM152.686 472.986C151.411 471.889 150.885 470.782 151.099 469.653L148.361 469.426C148.109 470.756 148.736 472.07 150.233 473.359L152.686 472.986ZM151.099 469.653C151.312 468.526 152.262 467.48 153.987 466.511L151.698 465.777C149.738 466.877 148.614 468.094 148.361 469.426L151.099 469.653ZM153.987 466.511C155.712 465.543 157.824 464.87 160.322 464.475L159.06 463.42C156.11 463.886 153.657 464.677 151.698 465.777L153.987 466.511ZM160.322 464.475C162.82 464.08 165.456 464 168.26 464.232L168.469 463.132C165.156 462.857 162.01 462.953 159.06 463.42L160.322 464.475ZM168.277 464.234C171.099 464.454 173.822 464.978 176.462 465.825L177.977 464.974C174.976 464.012 171.796 463.392 168.452 463.131L168.277 464.234ZM176.462 465.825C179.102 466.671 181.034 467.64 182.303 468.731L184.756 468.359C183.253 467.065 180.978 465.937 177.977 464.974L176.462 465.825ZM182.311 468.738C183.606 469.821 184.162 470.927 183.981 472.069L186.721 472.282C186.933 470.942 186.274 469.628 184.749 468.353L182.311 468.738ZM183.982 472.062C183.769 473.189 182.818 474.235 181.094 475.204L183.383 475.938C185.342 474.838 186.467 473.621 186.719 472.289L183.982 472.062ZM179.921 474.828C181.396 474 182.24 473.086 182.408 472.088L179.669 471.87C179.536 472.657 178.872 473.397 177.632 474.094L179.921 474.828ZM182.409 472.084C182.563 471.061 182.014 470.049 180.779 469.061L178.366 469.467C179.362 470.264 179.791 471.062 179.669 471.874L182.409 472.084ZM180.779 469.061C179.543 468.073 177.721 467.201 175.359 466.444L173.845 467.294C175.879 467.947 177.371 468.671 178.366 469.467L180.779 469.061ZM175.359 466.444C172.998 465.687 170.524 465.181 167.945 464.946L167.683 466.042C169.76 466.231 171.81 466.642 173.845 467.294L175.359 466.444ZM167.945 464.946C165.363 464.711 162.93 464.769 160.68 465.127L161.946 466.181C163.709 465.901 165.609 465.853 167.683 466.042L167.945 464.946ZM160.713 465.122C158.452 465.45 156.584 466.039 155.104 466.87L157.394 467.604C158.629 466.91 160.136 466.444 161.913 466.186L160.713 465.122ZM155.104 466.87C153.625 467.7 152.79 468.629 152.636 469.651L155.376 469.861C155.498 469.048 156.159 468.297 157.394 467.604L155.104 466.87ZM152.636 469.647C152.467 470.647 152.999 471.651 154.2 472.648L156.634 472.259C155.652 471.444 155.243 470.65 155.375 469.865L152.636 469.647ZM154.211 472.656C155.447 473.645 157.269 474.517 159.63 475.274L161.145 474.424C159.11 473.771 157.619 473.046 156.623 472.25L154.211 472.656ZM159.63 475.274C161.991 476.031 164.466 476.537 167.044 476.772L167.307 475.676C165.23 475.487 163.179 475.076 161.145 474.424L159.63 475.274ZM167.067 476.774C169.65 476.991 172.081 476.941 174.332 476.614L173.131 475.549C171.344 475.809 169.405 475.853 167.284 475.674L167.067 476.774ZM174.364 476.609C176.595 476.255 178.447 475.655 179.921 474.828L177.632 474.094C176.392 474.79 174.88 475.271 173.098 475.554L174.364 476.609ZM194.42 455.307L193.088 455.104L191.972 456.884L195.363 455.761L194.42 455.307ZM209.369 458.305L207.997 458.257L207.997 458.257L209.369 458.305ZM197.187 466.937L196.429 467.362L197.574 467.729L198.332 467.304L197.187 466.937ZM168.285 457.669L167.141 457.302L166.383 457.727L167.528 458.094L168.285 457.669ZM183.769 450.673L183.253 450.13L183.253 450.13L183.769 450.673ZM194.311 453.188L193.011 453.299L193.013 453.302L194.311 453.188ZM183.651 460.383L182.894 460.809L184.038 461.176L184.796 460.751L183.651 460.383ZM191.512 454.856L190.14 454.798L190.14 454.802L190.141 454.806L191.512 454.856ZM184.205 452.512L184.719 453.056L184.728 453.055L184.737 453.053L184.205 452.512ZM173.871 457.247L172.726 456.88L171.969 457.305L173.113 457.672L173.871 457.247ZM205.189 458.664L203.816 458.587L203.816 458.587L205.189 458.664ZM197.715 456.171L198.184 456.719L198.197 456.718L198.211 456.717L197.715 456.171ZM186.563 461.317L185.419 460.95L184.661 461.375L185.806 461.742L186.563 461.317ZM196.618 464.542L195.861 464.967L197.006 465.334L197.763 464.909L196.618 464.542ZM195.363 455.761C196.967 455.23 198.494 455.008 199.945 455.019C201.385 455.031 202.937 455.275 204.641 455.821L206.156 454.971C204.05 454.296 201.868 453.914 199.649 453.896C197.44 453.878 195.383 454.222 193.478 454.853L195.363 455.761ZM204.641 455.821C206.842 456.527 207.899 457.327 207.997 458.257L210.74 458.352C210.6 457.025 209.009 455.886 206.156 454.971L204.641 455.821ZM207.997 458.257C208.099 459.216 207.108 460.357 204.731 461.692L207.02 462.426C209.539 461.012 210.877 459.651 210.74 458.352L207.997 458.257ZM204.731 461.692L196.042 466.569L198.332 467.304L207.02 462.426L204.731 461.692ZM197.944 466.511L169.043 457.243L167.528 458.094L196.429 467.362L197.944 466.511ZM169.43 458.036L177.864 453.301L175.575 452.567L167.141 457.302L169.43 458.036ZM177.864 453.301C179.959 452.125 182.115 451.46 184.284 451.216L183.253 450.13C180.386 450.452 177.843 451.294 175.575 452.567L177.864 453.301ZM184.284 451.216C186.358 450.983 188.333 451.169 190.36 451.819L191.875 450.969C189.139 450.092 186.216 449.797 183.253 450.13L184.284 451.216ZM190.36 451.819C191.707 452.251 192.565 452.742 193.011 453.299L195.611 453.076C194.949 452.251 193.678 451.547 191.875 450.969L190.36 451.819ZM193.013 453.302C193.454 453.843 193.504 454.439 193.088 455.104L195.753 455.51C196.273 454.68 196.251 453.863 195.608 453.074L193.013 453.302ZM184.796 460.751L190.54 457.526L188.25 456.792L182.506 460.016L184.796 460.751ZM190.54 457.526C192.096 456.652 192.967 455.777 192.884 454.905L190.141 454.806C190.192 455.346 189.651 456.005 188.25 456.792L190.54 457.526ZM192.885 454.914C192.83 453.992 191.733 453.2 189.788 452.576L188.273 453.427C189.552 453.837 190.109 454.28 190.14 454.798L192.885 454.914ZM189.788 452.576C187.843 451.953 185.753 451.724 183.672 451.971L184.737 453.053C185.868 452.919 186.995 453.017 188.273 453.427L189.788 452.576ZM183.69 451.969C181.743 452.187 180.021 452.785 178.47 453.655L180.76 454.39C182.166 453.6 183.503 453.192 184.719 453.056L183.69 451.969ZM178.47 453.655L172.726 456.88L175.015 457.614L180.76 454.39L178.47 453.655ZM173.113 457.672L182.894 460.809L184.409 459.958L174.628 456.822L173.113 457.672ZM203.834 461.5C205.54 460.543 206.539 459.62 206.561 458.741L203.816 458.587C203.802 459.15 203.136 459.873 201.545 460.766L203.834 461.5ZM206.561 458.741C206.585 457.799 205.428 456.982 203.391 456.329L201.876 457.18C203.283 457.63 203.829 458.087 203.816 458.587L206.561 458.741ZM203.391 456.329C201.397 455.69 199.292 455.409 197.22 455.626L198.211 456.717C199.254 456.607 200.427 456.715 201.876 457.18L203.391 456.329ZM197.247 455.623C195.238 455.814 193.424 456.456 191.744 457.399L194.034 458.133C195.602 457.253 197.005 456.832 198.184 456.719L197.247 455.623ZM191.744 457.399L185.419 460.95L187.708 461.684L194.034 458.133L191.744 457.399ZM185.806 461.742L195.861 464.967L197.376 464.116L187.321 460.892L185.806 461.742ZM197.763 464.909L203.834 461.5L201.545 460.766L195.474 464.175L197.763 464.909ZM190.403 445.252L189.259 444.885L188.501 445.31L189.646 445.677L190.403 445.252ZM192.985 443.803L193.742 443.378L192.597 443.011L191.84 443.436L192.985 443.803ZM205.787 447.908L205.03 448.333L206.174 448.701L206.932 448.275L205.787 447.908ZM217.82 441.153L218.965 441.52L219.722 441.095L218.578 440.728L217.82 441.153ZM205.018 437.048L203.873 436.681L203.116 437.106L204.261 437.473L205.018 437.048ZM207.599 435.599L208.357 435.173L207.212 434.806L206.454 435.231L207.599 435.599ZM236.501 444.866L237.645 445.234L238.403 444.808L237.258 444.441L236.501 444.866ZM233.92 446.315L233.162 446.741L234.307 447.108L235.064 446.683L233.92 446.315ZM221.172 442.228L221.929 441.803L220.785 441.435L220.027 441.861L221.172 442.228ZM209.139 448.983L207.994 448.616L207.237 449.041L208.381 449.408L209.139 448.983ZM221.886 453.071L223.031 453.438L223.788 453.013L222.644 452.646L221.886 453.071ZM219.305 454.52L218.548 454.945L219.692 455.312L220.45 454.887L219.305 454.52ZM191.548 445.619L194.129 444.17L191.84 443.436L189.259 444.885L191.548 445.619ZM192.227 444.228L205.03 448.333L206.544 447.483L193.742 443.378L192.227 444.228ZM206.932 448.275L218.965 441.52L216.676 440.786L204.642 447.541L206.932 448.275ZM218.578 440.728L205.775 436.622L204.261 437.473L217.063 441.578L218.578 440.728ZM206.163 437.415L208.744 435.966L206.454 435.231L203.873 436.681L206.163 437.415ZM206.842 436.024L235.743 445.292L237.258 444.441L208.357 435.173L206.842 436.024ZM235.356 444.499L232.775 445.948L235.064 446.683L237.645 445.234L235.356 444.499ZM234.677 445.89L221.929 441.803L220.415 442.653L233.162 446.741L234.677 445.89ZM220.027 441.861L207.994 448.616L210.283 449.35L222.317 442.595L220.027 441.861ZM208.381 449.408L221.129 453.496L222.644 452.646L209.896 448.558L208.381 449.408ZM220.741 452.704L218.16 454.153L220.45 454.887L223.031 453.438L220.741 452.704ZM220.062 454.095L191.161 444.827L189.646 445.677L218.548 454.945L220.062 454.095ZM245.152 438.604L245.768 439.134L245.783 439.132L245.152 438.604ZM236.387 438.872L236.3 439.423L236.3 439.423L236.387 438.872ZM221.222 434.009L219.996 434.195L219.996 434.195L221.222 434.009ZM229.454 424.784L230.085 425.311L230.085 425.311L229.454 424.784ZM238.127 424.519L238.023 425.069L238.04 425.07L238.127 424.519ZM253.292 429.382L252.066 429.568L252.073 429.574L253.292 429.382ZM255.113 433.012L256.482 433.126L256.483 433.119L255.113 433.012ZM250.801 432.816L252.171 432.925L252.171 432.921L250.801 432.816ZM249.335 430.101L250.541 429.898L250.541 429.898L249.335 430.101ZM237.577 426.33L237.708 425.783L237.708 425.783L237.577 426.33ZM231.076 426.49L231.676 427.023L231.692 427.02L231.708 427.018L231.076 426.49ZM223.768 430.593L225.138 430.702L225.138 430.698L223.768 430.593ZM225.18 433.29L223.963 433.484L223.968 433.488L223.973 433.493L225.18 433.29ZM236.938 437.06L236.807 437.608L236.818 437.609L236.829 437.61L236.938 437.06ZM243.494 436.918L244.094 437.45L244.11 437.448L244.127 437.445L243.494 436.918ZM250.856 436.04C249.132 437.008 247.019 437.682 244.521 438.077L245.783 439.132C248.733 438.666 251.186 437.874 253.146 436.774L250.856 436.04ZM244.536 438.074C241.993 438.46 239.314 438.542 236.475 438.32L236.3 439.423C239.626 439.683 242.79 439.586 245.768 439.134L244.536 438.074ZM236.475 438.32C233.653 438.101 230.93 437.576 228.29 436.73L226.775 437.58C229.776 438.542 232.956 439.163 236.3 439.423L236.475 438.32ZM228.29 436.73C225.65 435.883 223.717 434.914 222.449 433.823L219.996 434.195C221.499 435.489 223.774 436.618 226.775 437.58L228.29 436.73ZM222.449 433.823C221.174 432.726 220.647 431.618 220.861 430.489L218.124 430.262C217.872 431.592 218.498 432.907 219.996 434.195L222.449 433.823ZM220.861 430.489C221.075 429.362 222.025 428.316 223.75 427.348L221.46 426.614C219.501 427.714 218.376 428.931 218.124 430.262L220.861 430.489ZM223.75 427.348C225.474 426.38 227.587 425.706 230.085 425.311L228.822 424.256C225.873 424.722 223.42 425.514 221.46 426.614L223.75 427.348ZM230.085 425.311C232.582 424.917 235.219 424.836 238.023 425.069L238.231 423.969C234.919 423.694 231.773 423.79 228.822 424.256L230.085 425.311ZM238.04 425.07C240.861 425.29 243.585 425.815 246.225 426.661L247.74 425.811C244.739 424.848 241.559 424.228 238.214 423.967L238.04 425.07ZM246.225 426.661C248.865 427.508 250.797 428.476 252.066 429.568L254.519 429.196C253.015 427.902 250.74 426.773 247.74 425.811L246.225 426.661ZM252.073 429.574C253.368 430.657 253.924 431.764 253.744 432.905L256.483 433.119C256.695 431.778 256.037 430.465 254.511 429.189L252.073 429.574ZM253.745 432.898C253.531 434.026 252.581 435.072 250.856 436.04L253.146 436.774C255.105 435.674 256.23 434.457 256.482 433.126L253.745 432.898ZM249.684 435.664C251.158 434.837 252.002 433.923 252.171 432.925L249.432 432.707C249.299 433.494 248.635 434.234 247.395 434.93L249.684 435.664ZM252.171 432.921C252.325 431.897 251.776 430.886 250.541 429.898L248.129 430.304C249.125 431.101 249.553 431.899 249.431 432.711L252.171 432.921ZM250.541 429.898C249.305 428.91 247.483 428.037 245.122 427.28L243.607 428.131C245.642 428.783 247.133 429.508 248.129 430.304L250.541 429.898ZM245.122 427.28C242.761 426.523 240.286 426.017 237.708 425.783L237.445 426.878C239.522 427.067 241.573 427.478 243.607 428.131L245.122 427.28ZM237.708 425.783C235.126 425.548 232.692 425.606 230.443 425.963L231.708 427.018C233.471 426.738 235.372 426.689 237.445 426.878L237.708 425.783ZM230.475 425.958C228.215 426.286 226.346 426.876 224.867 427.706L227.156 428.44C228.391 427.747 229.899 427.281 231.676 427.023L230.475 425.958ZM224.867 427.706C223.387 428.537 222.552 429.465 222.398 430.487L225.138 430.698C225.261 429.884 225.921 429.133 227.156 428.44L224.867 427.706ZM222.399 430.483C222.23 431.484 222.762 432.488 223.963 433.484L226.396 433.095C225.414 432.28 225.005 431.486 225.138 430.702L222.399 430.483ZM223.973 433.493C225.209 434.481 227.031 435.353 229.393 436.11L230.907 435.26C228.873 434.608 227.381 433.883 226.386 433.087L223.973 433.493ZM229.393 436.11C231.754 436.868 234.228 437.373 236.807 437.608L237.069 436.513C234.992 436.324 232.942 435.913 230.907 435.26L229.393 436.11ZM236.829 437.61C239.412 437.828 241.844 437.777 244.094 437.45L242.894 436.386C241.106 436.645 239.167 436.689 237.047 436.511L236.829 437.61ZM244.127 437.445C246.358 437.091 248.21 436.492 249.684 435.664L247.395 434.93C246.154 435.626 244.643 436.108 242.861 436.391L244.127 437.445ZM270.431 414.139L271.575 414.506L272.299 414.099L271.239 413.731L270.431 414.139ZM254.435 423.119L253.29 422.751L252.475 423.209L253.763 423.569L254.435 423.119ZM264.033 424.176L264.381 424.733L264.394 424.733L264.033 424.176ZM274.353 419.982L275.7 420.158L275.703 420.153L275.705 420.147L274.353 419.982ZM274.077 417.617L273.897 417.055L272.344 417.057L272.752 417.693L274.077 417.617ZM278.059 417.611L279.373 417.519L279.037 417.047L277.879 417.049L278.059 417.611ZM278.376 420.534L277.028 420.358L277.027 420.362L278.376 420.534ZM268.301 425.609L268.925 426.138L268.937 426.136L268.948 426.134L268.301 425.609ZM259.5 425.897L259.412 426.449L259.412 426.449L259.5 425.897ZM244.262 421.075L243.043 421.268L243.051 421.274L244.262 421.075ZM242.386 417.523L241.016 417.418L241.016 417.422L242.386 417.523ZM260.476 411.973L260.354 412.521L260.364 412.522L260.476 411.973ZM269.258 413.731L270.067 413.323L270.042 413.314L270.016 413.305L269.258 413.731ZM246.708 418.781L248.06 418.757L248.06 418.756L246.708 418.781ZM251.522 422.185L250.666 422.575L251.839 423.017L252.667 422.552L251.522 422.185ZM265.083 414.572L266.227 414.939L267.056 414.474L265.735 414.116L265.083 414.572ZM256.015 413.556L256.315 414.116L256.329 414.115L256.342 414.114L256.015 413.556ZM269.286 413.772L253.29 422.751L255.579 423.486L271.575 414.506L269.286 413.772ZM253.763 423.569C257.196 424.531 260.76 424.93 264.381 424.733L263.685 423.619C260.806 423.775 257.971 423.47 255.106 422.668L253.763 423.569ZM264.394 424.733C267.975 424.523 270.896 423.756 273.16 422.485L270.87 421.751C268.917 422.848 266.516 423.453 263.672 423.62L264.394 424.733ZM273.16 422.485C274.437 421.769 275.292 420.993 275.7 420.158L273.005 419.806C272.672 420.486 271.969 421.135 270.87 421.751L273.16 422.485ZM275.705 420.147C276.074 419.299 275.972 418.428 275.402 417.541L272.752 417.693C273.219 418.42 273.3 419.126 273 419.817L275.705 420.147ZM274.256 418.178L278.238 418.173L277.879 417.049L273.897 417.055L274.256 418.178ZM276.744 417.702C277.367 418.578 277.467 419.461 277.028 420.358L279.724 420.711C280.242 419.649 280.13 418.583 279.373 417.519L276.744 417.702ZM277.027 420.362C276.61 421.249 275.696 422.095 274.259 422.902L276.549 423.636C278.165 422.729 279.233 421.752 279.725 420.707L277.027 420.362ZM274.259 422.902C272.405 423.943 270.2 424.663 267.653 425.084L268.948 426.134C271.946 425.639 274.477 424.799 276.549 423.636L274.259 422.902ZM267.676 425.08C265.108 425.479 262.42 425.567 259.587 425.346L259.412 426.449C262.744 426.708 265.924 426.604 268.925 426.138L267.676 425.08ZM259.587 425.346C256.766 425.126 254.042 424.601 251.402 423.755L249.887 424.605C252.888 425.567 256.068 426.188 259.412 426.449L259.587 425.346ZM251.402 423.755C248.75 422.904 246.788 421.945 245.473 420.876L243.051 421.274C244.604 422.536 246.898 423.647 249.887 424.605L251.402 423.755ZM245.481 420.882C244.178 419.793 243.611 418.711 243.757 417.625L241.016 417.422C240.842 418.713 241.524 419.998 243.043 421.268L245.481 420.882ZM243.756 417.629C243.925 416.531 244.815 415.522 246.462 414.598L244.172 413.863C242.28 414.926 241.217 416.112 241.017 417.418L243.756 417.629ZM246.462 414.598C248.108 413.673 250.139 413.042 252.552 412.688L251.343 411.624C248.454 412.049 246.064 412.801 244.172 413.863L246.462 414.598ZM252.552 412.688C254.971 412.332 257.562 412.275 260.354 412.521L260.597 411.424C257.322 411.135 254.227 411.2 251.343 411.624L252.552 412.688ZM260.364 412.522C263.101 412.756 265.809 413.293 268.501 414.156L270.016 413.305C266.993 412.336 263.846 411.701 260.588 411.423L260.364 412.522ZM268.45 414.139L269.622 414.547L271.239 413.731L270.067 413.323L268.45 414.139ZM247.524 414.938C245.503 416.073 244.757 417.37 245.355 418.805L248.06 418.756C247.589 417.626 248.151 416.606 249.814 415.672L247.524 414.938ZM245.355 418.805C245.941 420.217 247.749 421.478 250.666 422.575L252.379 421.794C249.921 420.869 248.519 419.861 248.06 418.757L245.355 418.805ZM252.667 422.552L266.227 414.939L263.938 414.205L250.378 421.818L252.667 422.552ZM265.735 414.116C262.443 413.223 259.073 412.837 255.687 412.998L256.342 414.114C258.994 413.988 261.669 414.279 264.431 415.028L265.735 414.116ZM255.714 412.997C252.305 413.13 249.567 413.791 247.524 414.938L249.814 415.672C251.503 414.724 253.662 414.219 256.315 414.116L255.714 412.997ZM304.275 403.814L305.033 403.389L303.888 403.022L303.131 403.447L304.275 403.814ZM314.66 407.144L315.805 407.511L316.562 407.086L315.417 406.719L314.66 407.144ZM312.224 408.512L311.467 408.937L312.612 409.304L313.369 408.879L312.224 408.512ZM305.246 406.274L306.004 405.849L304.859 405.482L304.101 405.907L305.246 406.274ZM288.123 415.886L286.978 415.519L286.221 415.945L287.366 416.312L288.123 415.886ZM295.101 418.124L296.246 418.491L297.003 418.066L295.859 417.699L295.101 418.124ZM292.666 419.492L291.908 419.917L293.053 420.284L293.81 419.859L292.666 419.492ZM282.281 416.161L281.136 415.794L280.379 416.22L281.523 416.587L282.281 416.161ZM283.371 415.549L284.516 415.916L284.538 415.904L284.557 415.892L283.371 415.549ZM281.703 412.705L282.718 412.383L282.718 412.383L281.703 412.705ZM271.11 408.475L271.925 408.069L271.912 408.064L271.11 408.475ZM261.694 405.231L260.549 404.864L259.821 405.272L260.891 405.641L261.694 405.231ZM275.799 397.312L276.557 396.887L275.412 396.52L274.655 396.945L275.799 397.312ZM301.294 405.488L300.537 405.913L301.682 406.28L302.439 405.855L301.294 405.488ZM273.693 407.219L272.878 407.624L272.885 407.627L273.693 407.219ZM283.167 410.866L284.129 410.519L284.126 410.518L283.167 410.866ZM286.789 413.631L285.419 413.592L285.661 415.273L287.933 413.998L286.789 413.631ZM298.713 406.937L299.858 407.304L300.615 406.879L299.47 406.511L298.713 406.937ZM276.68 399.871L277.437 399.446L276.292 399.079L275.535 399.504L276.68 399.871ZM267.482 405.035L266.337 404.668L265.618 405.071L266.667 405.44L267.482 405.035ZM303.518 404.239L313.903 407.569L315.417 406.719L305.033 403.389L303.518 404.239ZM313.515 406.777L311.08 408.144L313.369 408.879L315.805 407.511L313.515 406.777ZM312.982 408.086L306.004 405.849L304.489 406.699L311.467 408.937L312.982 408.086ZM304.101 405.907L286.978 415.519L289.268 416.254L306.391 406.641L304.101 405.907ZM287.366 416.312L294.344 418.549L295.859 417.699L288.881 415.461L287.366 416.312ZM293.957 417.757L291.521 419.124L293.81 419.859L296.246 418.491L293.957 417.757ZM293.423 419.066L283.038 415.736L281.523 416.587L291.908 419.917L293.423 419.066ZM283.425 416.529L284.516 415.916L282.227 415.182L281.136 415.794L283.425 416.529ZM284.557 415.892C285.324 415.398 285.531 414.826 285.168 414.208C284.816 413.608 283.95 412.997 282.718 412.383L280.688 413.027C281.743 413.553 282.298 413.986 282.502 414.334C282.695 414.664 282.594 414.944 282.186 415.207L284.557 415.892ZM282.718 412.383C280.343 411.199 276.728 409.76 271.925 408.069L270.294 408.88C275.042 410.552 278.49 411.932 280.688 413.027L282.718 412.383ZM271.912 408.064L262.496 404.821L260.891 405.641L270.307 408.885L271.912 408.064ZM262.838 405.598L276.944 397.679L274.655 396.945L260.549 404.864L262.838 405.598ZM275.042 397.737L300.537 405.913L302.052 405.062L276.557 396.887L275.042 397.737ZM302.439 405.855L305.42 404.181L303.131 403.447L300.15 405.121L302.439 405.855ZM272.885 407.627C276.837 409 279.937 410.195 282.207 411.214L284.126 410.518C281.727 409.44 278.511 408.204 274.5 406.81L272.885 407.627ZM282.205 411.213C284.404 412.205 285.331 412.989 285.419 413.592L288.159 413.669C288.013 412.659 286.526 411.599 284.129 410.519L282.205 411.213ZM287.933 413.998L299.858 407.304L297.568 406.57L285.644 413.264L287.933 413.998ZM299.47 406.511L277.437 399.446L275.922 400.296L297.956 407.362L299.47 406.511ZM275.535 399.504L266.337 404.668L268.627 405.402L277.824 400.238L275.535 399.504ZM266.667 405.44L272.878 407.624L274.508 406.813L268.297 404.629L266.667 405.44ZM314.027 399.939L314.658 400.467L314.667 400.465L314.027 399.939ZM305.317 400.224L305.22 400.775L305.23 400.776L305.317 400.224ZM290.097 395.344L288.871 395.53L288.871 395.53L290.097 395.344ZM288.367 391.711L287 391.593L286.999 391.597L288.367 391.711ZM297.471 386.26L298.148 386.781L298.161 386.778L298.174 386.776L297.471 386.26ZM304.792 385.882L306.165 385.947L306.149 385.417L304.845 385.328L304.792 385.882ZM304.844 387.598L304.848 388.156L306.233 388.226L306.216 387.663L304.844 387.598ZM299.257 387.923L299.942 388.442L299.954 388.44L299.966 388.437L299.257 387.923ZM292.68 391.907L294.048 392.021L294.049 392.017L292.68 391.907ZM294.055 394.625L292.838 394.819L292.843 394.823L292.848 394.828L294.055 394.625ZM305.868 398.413L305.737 398.96L305.754 398.962L305.772 398.963L305.868 398.413ZM312.405 398.232L313.017 398.763L313.033 398.76L313.049 398.758L312.405 398.232ZM319.642 394.46L318.283 394.311L318.283 394.311L319.642 394.46ZM318.855 392.091L318.333 391.549L317.053 391.696L317.59 392.242L318.855 392.091ZM322.76 391.644L324.001 391.471L323.445 390.963L322.238 391.101L322.76 391.644ZM323.955 394.753L325.315 394.899L325.317 394.895L325.318 394.891L323.955 394.753ZM319.84 397.314C318.064 398.311 315.911 399.005 313.388 399.413L314.667 400.465C317.639 399.985 320.125 399.173 322.13 398.048L319.84 397.314ZM313.396 399.411C310.895 399.807 308.24 399.894 305.405 399.673L305.23 400.776C308.56 401.035 311.711 400.932 314.658 400.467L313.396 399.411ZM305.414 399.674C302.55 399.442 299.805 398.911 297.165 398.064L295.65 398.915C298.651 399.877 301.846 400.502 305.22 400.775L305.414 399.674ZM297.165 398.064C294.525 397.218 292.592 396.249 291.324 395.158L288.871 395.53C290.374 396.824 292.649 397.952 295.65 398.915L297.165 398.064ZM291.324 395.158C290.049 394.06 289.522 392.953 289.736 391.824L286.999 391.597C286.747 392.927 287.373 394.242 288.871 395.53L291.324 395.158ZM289.735 391.828C289.971 390.687 290.957 389.619 292.734 388.621L290.444 387.887C288.44 389.012 287.278 390.249 287 391.593L289.735 391.828ZM292.734 388.621C294.279 387.754 296.088 387.147 298.148 386.781L296.795 385.74C294.308 386.182 292.195 386.905 290.444 387.887L292.734 388.621ZM298.174 386.776C300.208 386.389 302.387 386.277 304.74 386.436L304.845 385.328C301.959 385.133 299.257 385.273 296.769 385.745L298.174 386.776ZM303.42 385.818L303.471 387.534L306.216 387.663L306.165 385.947L303.42 385.818ZM304.839 387.041C302.547 386.925 300.439 387.045 298.548 387.409L299.966 388.437C301.407 388.16 303.023 388.063 304.848 388.156L304.839 387.041ZM298.572 387.405C296.676 387.75 295.101 388.278 293.851 388.98L296.14 389.714C297.168 389.137 298.434 388.716 299.942 388.442L298.572 387.405ZM293.851 388.98C292.349 389.822 291.491 390.763 291.31 391.797L294.049 392.017C294.193 391.188 294.879 390.422 296.14 389.714L293.851 388.98ZM291.311 391.792C291.116 392.806 291.633 393.819 292.838 394.819L295.271 394.43C294.293 393.619 293.894 392.82 294.048 392.021L291.311 391.792ZM292.848 394.828C294.084 395.816 295.906 396.688 298.268 397.445L299.782 396.595C297.748 395.942 296.256 395.218 295.261 394.422L292.848 394.828ZM298.268 397.445C300.662 398.213 303.155 398.725 305.737 398.96L305.999 397.865C303.926 397.676 301.857 397.26 299.782 396.595L298.268 397.445ZM305.772 398.963C308.327 399.169 310.751 399.103 313.017 398.763L311.793 397.702C309.973 397.975 308.039 398.029 305.964 397.862L305.772 398.963ZM313.049 398.758C315.3 398.39 317.172 397.778 318.668 396.938L316.379 396.204C315.112 396.915 313.572 397.41 311.761 397.707L313.049 398.758ZM318.668 396.938C319.913 396.239 320.697 395.462 321.001 394.609L318.283 394.311C318.04 394.993 317.412 395.623 316.379 396.204L318.668 396.938ZM321.001 394.609C321.312 393.738 321.009 392.845 320.12 391.941L317.59 392.242C318.298 392.961 318.52 393.648 318.283 394.311L321.001 394.609ZM319.376 392.634L323.281 392.187L322.238 391.101L318.333 391.549L319.376 392.634ZM321.518 391.817C322.523 392.736 322.882 393.664 322.593 394.615L325.318 394.891C325.668 393.738 325.23 392.594 324.001 391.471L321.518 391.817ZM322.595 394.607C322.27 395.556 321.364 396.458 319.84 397.314L322.13 398.048C323.854 397.08 324.928 396.03 325.315 394.899L322.595 394.607ZM327.284 382.562L327.136 382L326.495 381.995L326.139 382.194L327.284 382.562ZM322.921 385.011L321.776 384.644L321.019 385.069L322.164 385.436L322.921 385.011ZM335.778 389.134L336.923 389.501L337.68 389.075L336.536 388.708L335.778 389.134ZM333.197 390.583L332.44 391.008L333.585 391.375L334.342 390.95L333.197 390.583ZM304.296 381.315L303.151 380.948L302.394 381.373L303.538 381.74L304.296 381.315ZM306.877 379.866L307.634 379.441L306.49 379.073L305.732 379.499L306.877 379.866ZM319.569 383.936L318.812 384.361L319.957 384.728L320.714 384.303L319.569 383.936ZM323.968 381.466L325.113 381.833L325.477 381.629L325.275 381.364L323.968 381.466ZM318.001 373.621L316.857 373.254L316.493 373.458L316.695 373.723L318.001 373.621ZM320.801 372.049L322.11 371.95L321.246 370.789L319.656 371.682L320.801 372.049ZM327.286 380.767L325.977 380.865L326.312 381.316L327.426 381.328L327.286 380.767ZM350.248 381.011L351.392 381.378L352.992 380.48L350.108 380.449L350.248 381.011ZM347.194 382.725L347.341 383.287L347.983 383.292L348.338 383.092L347.194 382.725ZM326.139 382.194L321.776 384.644L324.066 385.378L328.428 382.929L326.139 382.194ZM322.164 385.436L335.021 389.559L336.536 388.708L323.678 384.585L322.164 385.436ZM334.634 388.767L332.052 390.216L334.342 390.95L336.923 389.501L334.634 388.767ZM333.955 390.157L305.053 380.89L303.538 381.74L332.44 391.008L333.955 390.157ZM305.44 381.682L308.022 380.233L305.732 379.499L303.151 380.948L305.44 381.682ZM306.119 380.291L318.812 384.361L320.327 383.511L307.634 379.441L306.119 380.291ZM320.714 384.303L325.113 381.833L322.824 381.099L318.425 383.569L320.714 384.303ZM325.275 381.364L319.308 373.518L316.695 373.723L322.662 381.569L325.275 381.364ZM319.146 373.988L321.945 372.416L319.656 371.682L316.857 373.254L319.146 373.988ZM319.491 372.148L325.977 380.865L328.596 380.668L322.11 371.95L319.491 372.148ZM327.426 381.328L350.387 381.572L350.108 380.449L327.147 380.205L327.426 381.328ZM349.103 380.644L346.049 382.358L348.338 383.092L351.392 381.378L349.103 380.644ZM347.046 382.164L327.136 382L327.431 383.123L347.341 383.287L347.046 382.164Z" fill="white"/>
</svg>
