<svg width="2269" height="2560" viewBox="0 0 2269 2560" fill="none" xmlns="http://www.w3.org/2000/svg">
<path d="M805.5 2039L820 2055L805.5 2063V2076.5L765 2105L744.5 2120H698.5L681 2136L666 2159L638 2197L616 2216L627 2248.5L638 2262L605.5 2282L575.5 2332H540.5L513.5 2361.5L500 2380.5L374.5 2361.5L357 2380.5L338 2361.5L316.5 2380.5L307 2397L278.5 2372.5L269 2347V2324L246 2293H199L155.5 2282L146 2274L155.5 2248.5L174.5 2186H155.5L146 2159L174.5 2120L199 2085L215 2047L222 2021.5L238 1958L246 1935L238 1914.5L222 1897L246 1885H269L294.5 1867.5H316.5L396 1897L444.5 1914.5L492 1925.5C500.833 1928.67 519.9 1935 525.5 1935C531.1 1935 565.833 1950.33 582.5 1958L616 1914.5C619.667 1894 627 1850.5 627 1840.5V1767.5C627 1761.9 608 1720.17 598.5 1700C584.167 1685.17 552.5 1654.1 540.5 1648.5C528.5 1642.9 508.5 1614.5 500 1601L557 1591.5H582.5L605.5 1614.5L642 1620L650 1548.5L681 1567.5C689.667 1572.5 708.3 1582.5 713.5 1582.5C718.7 1582.5 763.333 1553.5 785 1539L797 1487.5L842 1478.5L860.5 1463.5C868.833 1459.17 886.8 1448.8 892 1442C897.2 1435.2 912.167 1423.83 919 1419L932.5 1381V1359.5L950 1351.5L971.5 1343L997 1333.5L1013.5 1343L1032.5 1333.5L1047 1320L1063.5 1333.5H1085V1312L1093 1289V1258L1074 1244.5V1212C1074 1206.5 1056.5 1199 1056.5 1192C1056.5 1186.4 1061.17 1160.67 1063.5 1148.5L1085 1111L1140.5 1074.5L1155 1092L1140.5 1132.5L1160.5 1143.5V1167.5L1140.5 1185V1202.5H1155C1159.4 1202.5 1173.17 1185.5 1179.5 1177C1185.67 1173.83 1199.4 1167.5 1205 1167.5C1212 1167.5 1228.5 1178 1227 1185C1225.8 1190.6 1220.83 1210 1218.5 1219L1210.5 1252.5L1179.5 1278.5L1135 1238L1124 1252.5C1125.83 1256.5 1130.6 1265.9 1135 1271.5C1139.4 1277.1 1153.83 1285.5 1160.5 1289L1179.5 1301.5L1210.5 1289L1237.5 1271.5L1256.5 1258L1279.5 1289L1310.5 1301.5L1371.5 1278.5L1383.5 1252.5L1444.5 1228.5L1460.5 1238L1474 1258L1505 1228.5L1533.5 1192V1177C1533.5 1169.4 1528.17 1144.17 1525.5 1132.5C1527.33 1120.33 1529.9 1095.2 1525.5 1092C1521.1 1088.8 1523.67 1062.67 1525.5 1050L1548.5 1027H1564.5L1586 1050L1601 1066.5L1618.5 1050L1628 1027L1618.5 1008V970.5L1601 978.5L1586 970.5L1578 948.5L1564.5 938L1586 912.5L1610.5 896L1632 889.5L1651 878.5H1668.5H1695.5H1706.5V869V861L1718.5 851.5L1741.5 839.5L1764.5 824.5L1757 817.75L1734.59 818.625C1725.64 821.094 1717.09 820.221 1717.09 813.5L1701.41 802.605L1685 811L1659 824.5L1628 851.5L1593 861L1578 878.5L1548.5 889.5L1533.5 878.5L1493 861L1482 811L1460.5 720.5L1474 680L1493 630L1525.5 565L1548.5 545L1533.5 515L1513 507H1482L1460.5 515V538L1444.5 545L1436 577L1460.5 605.5L1436 623V645L1413 658.5L1394.5 680L1371.5 701.5V739.5L1356.5 758.5V788L1349.5 824.5L1356.5 861L1383.5 870.5L1404 889.5L1413 896L1422.5 912.5L1404 938L1413 955.5L1394.5 978.5H1364.5L1349.5 1027L1364.5 1074.5V1111L1356.5 1143.5L1316 1162L1302.5 1167.5L1291.5 1177V1202.5C1284.5 1208 1269.1 1219 1263.5 1219C1257.9 1219 1249.17 1214.33 1245.5 1212L1237.5 1192L1227 1162L1218.5 1111L1205 1074.5L1179.5 1027V989.5L1155 970.5L1140.5 948.5L1135 978.5L1109.5 1008L1074 1027L1032.5 1042L1002.5 1020.5L971.5 998.5L989 978.5C987.333 970.333 983.7 952.4 982.5 946C981.3 939.6 974.667 898.333 971.5 878.5V824.5V788L1013.5 739.5L1056.5 720.5L1089 686.5L1147 627L1205 538L1218.5 478.5L1245.5 438L1256.5 396C1255.5 389.333 1251.9 376 1245.5 376C1239.1 376 1219.5 383.333 1210.5 387L1218.5 362.5L1245.5 315L1263.5 303H1279.5L1302.5 280L1316 251.5L1371.5 214L1413 183L1474 149L1525.5 138L1578 149C1583.33 152 1592.4 160.5 1586 170.5C1579.6 180.5 1569 192 1564.5 196.5C1560.33 200.833 1556.1 208.2 1572.5 203C1588.9 197.8 1604.67 196.5 1610.5 196.5L1593 234C1586.17 241.333 1572.5 257.3 1572.5 262.5C1572.5 267.7 1567.17 284.333 1564.5 292L1586 315L1601 324.5L1628 345L1610.5 396C1617.67 404.167 1632 421.3 1632 424.5C1632 427.7 1650 449.167 1659 459.5V489.5L1668.5 515C1674 520.333 1685 532.4 1685 538C1685 543.6 1692 558.333 1695.5 565L1706.5 590.5L1741.5 615L1757.5 645L1741.5 701.5L1695.5 798.5L1701.41 802.605L1706.5 800H1718.5C1718.5 803.667 1717.09 802.7 1717.09 813.5L1725 819L1734.59 818.625C1740.02 817.127 1745.6 814.399 1749.5 811L1757 817.75L1764.5 824.5L1722.5 854.5L1706.5 869V878.5V938L1724 962L1729.5 998.5L1757 1027C1756.83 1037.5 1758.1 1060.1 1764.5 1066.5C1770.9 1072.9 1804.83 1086.17 1821 1092C1824.33 1090 1832.6 1085.8 1839 1085C1845.4 1084.2 1865 1077.67 1874 1074.5L1895.5 1111V1148.5L1955 1167.5L1991.5 1192L1971 1228.5H1955V1258L1971 1278.5L2026.5 1258L2063 1252.5L2087.5 1271.5V1301.5H2121H2128V1620H2095.5L2063 1639L2052 1648.5V1681L2026.5 1724L2030.5 1762C2023.33 1769 2009 1784.7 2009 1791.5V1840.5V1867.5L1991.5 1897V1925.5L2009 1958V1967.5H1982L1961.5 1974L1948 1994.5L1955 2021.5L1948 2047V2055L1928 2063L1884.5 2055L1861.5 2063L1839 2085V2094.5L1853.5 2113L1861.5 2120L1853.5 2136H1821L1782 2105V2136L1798 2159C1802.5 2168.5 1813.4 2189.4 1821 2197C1828.6 2204.6 1859.5 2223.5 1874 2232L1907.5 2274L1895.5 2293L1861.5 2282V2307.5L1839 2324L1853.5 2361.5L1821 2372.5L1782 2347L1749.5 2316L1695.5 2307.5V2248.5L1668.5 2205L1651 2186C1640.17 2177 1618.5 2157.4 1618.5 2151C1618.5 2143 1601 2112.5 1601 2094.5C1601 2076.5 1609 2055 1601 2055C1594.6 2055 1553.33 2032.67 1533.5 2021.5L1474 1986L1422.5 1958L1371.5 1914.5V1885L1356.5 1867.5H1335C1334 1881.33 1330.4 1906.6 1324 1897C1317.6 1887.4 1312.33 1873.33 1310.5 1867.5L1302.5 1852.5L1316 1840.5L1302.5 1831L1263.5 1840.5L1250 1862V1885V1925.5L1279.5 1967.5L1316 1986L1337.5 2028L1364.5 2055C1371.33 2053.17 1386.9 2052.2 1394.5 2063C1402.1 2073.8 1431 2076.5 1444.5 2076.5V2105C1460.67 2105.33 1493 2107.4 1493 2113C1493 2118.6 1530 2130.67 1548.5 2136L1578 2175.5L1564.5 2197L1525.5 2159H1493L1474 2205L1505 2232V2274L1482 2307.5L1460.5 2332C1450.17 2326.67 1429.5 2317.6 1429.5 2324C1429.5 2330.4 1425.83 2346.33 1424 2353.5L1422.5 2372.5L1429.5 2409C1427 2413.33 1420.2 2421.8 1413 2421C1405.8 2420.2 1377.67 2412.67 1364.5 2409L1337.5 2397L1316 2380.5L1279.5 2361.5C1275.5 2356.67 1269.9 2347 1279.5 2347C1291.5 2347 1297 2332 1316 2332H1356.5C1362.9 2332 1396.83 2321.33 1413 2316L1444.5 2307.5L1460.5 2274C1455.17 2265.33 1444.5 2244.8 1444.5 2232C1444.5 2219.2 1423.5 2203.33 1413 2197L1371.5 2159C1359.33 2161.67 1335 2165.4 1335 2159C1335 2152.6 1306 2130.33 1291.5 2120C1282 2118.5 1261.7 2113.4 1256.5 2105C1250 2094.5 1248 2093.5 1237.5 2085C1227 2076.5 1226.5 2071 1218.5 2063C1212.1 2056.6 1200.5 2044.33 1195.5 2039C1190.17 2037.67 1177.6 2032.3 1170 2021.5C1160.5 2008 1166 2003 1160.5 1994.5C1155 1986 1140.5 1980.5 1140.5 1974C1140.5 1968.8 1119.83 1945.83 1109.5 1935H1089L1047 1943L1032.5 1967.5L1013.5 1974L982.5 1994.5L971.5 2012H950L937.5 2006.5L898.5 1991.5L877 1986H860.5L820 1991.5L805.5 2012V2039Z" fill="#9CB7A3"/>
<path d="M1706.5 878.5H1695.5H1668.5H1651L1632 889.5L1610.5 896L1586 912.5L1564.5 938L1578 948.5L1586 970.5L1601 978.5L1618.5 970.5V1008L1628 1027L1618.5 1050L1601 1066.5L1586 1050L1564.5 1027H1548.5L1525.5 1050C1523.67 1062.67 1521.1 1088.8 1525.5 1092C1529.9 1095.2 1527.33 1120.33 1525.5 1132.5C1528.17 1144.17 1533.5 1169.4 1533.5 1177C1533.5 1184.6 1533.5 1190.17 1533.5 1192L1505 1228.5L1474 1258L1460.5 1238L1444.5 1228.5L1383.5 1252.5L1371.5 1278.5L1310.5 1301.5L1279.5 1289L1256.5 1258L1237.5 1271.5L1210.5 1289L1179.5 1301.5L1160.5 1289C1153.83 1285.5 1139.4 1277.1 1135 1271.5C1130.6 1265.9 1125.83 1256.5 1124 1252.5L1135 1238L1179.5 1278.5L1210.5 1252.5L1218.5 1219C1220.83 1210 1225.8 1190.6 1227 1185C1228.5 1178 1212 1167.5 1205 1167.5C1199.4 1167.5 1185.67 1173.83 1179.5 1177C1173.17 1185.5 1159.4 1202.5 1155 1202.5C1150.6 1202.5 1143.5 1202.5 1140.5 1202.5V1185L1160.5 1167.5V1143.5L1140.5 1132.5L1155 1092L1140.5 1074.5L1085 1111L1063.5 1148.5C1061.17 1160.67 1056.5 1186.4 1056.5 1192C1056.5 1199 1074 1206.5 1074 1212C1074 1216.4 1074 1235.5 1074 1244.5L1093 1258V1289L1085 1312V1333.5H1063.5L1047 1320L1032.5 1333.5L1013.5 1343L997 1333.5L971.5 1343L950 1351.5L932.5 1359.5V1381L919 1419C912.167 1423.83 897.2 1435.2 892 1442C886.8 1448.8 868.833 1459.17 860.5 1463.5L842 1478.5L797 1487.5L785 1539C763.333 1553.5 718.7 1582.5 713.5 1582.5C708.3 1582.5 689.667 1572.5 681 1567.5L650 1548.5L642 1620L605.5 1614.5L582.5 1591.5H557L500 1601C508.5 1614.5 528.5 1642.9 540.5 1648.5C552.5 1654.1 584.167 1685.17 598.5 1700C608 1720.17 627 1761.9 627 1767.5C627 1774.5 627 1828 627 1840.5C627 1850.5 619.667 1894 616 1914.5L582.5 1958C565.833 1950.33 531.1 1935 525.5 1935C519.9 1935 500.833 1928.67 492 1925.5L444.5 1914.5L396 1897L316.5 1867.5H294.5L269 1885H246L222 1897L238 1914.5L246 1935L238 1958L222 2021.5L215 2047L199 2085L174.5 2120L146 2159L155.5 2186H174.5L155.5 2248.5L146 2274L155.5 2282L199 2293H246L269 2324V2347L278.5 2372.5L307 2397L316.5 2380.5L338 2361.5L357 2380.5L374.5 2361.5L500 2380.5L513.5 2361.5L540.5 2332H575.5L605.5 2282L638 2262L627 2248.5L616 2216L638 2197L666 2159L681 2136L698.5 2120H744.5L765 2105L805.5 2076.5V2063L820 2055L805.5 2039V2012L820 1991.5L860.5 1986H877L898.5 1991.5L937.5 2006.5L950 2012H971.5L982.5 1994.5L1013.5 1974L1032.5 1967.5L1047 1943L1089 1935H1109.5C1119.83 1945.83 1140.5 1968.8 1140.5 1974C1140.5 1980.5 1155 1986 1160.5 1994.5C1166 2003 1160.5 2008 1170 2021.5C1177.6 2032.3 1190.17 2037.67 1195.5 2039C1200.5 2044.33 1212.1 2056.6 1218.5 2063C1226.5 2071 1227 2076.5 1237.5 2085C1248 2093.5 1250 2094.5 1256.5 2105C1261.7 2113.4 1282 2118.5 1291.5 2120C1306 2130.33 1335 2152.6 1335 2159C1335 2165.4 1359.33 2161.67 1371.5 2159L1413 2197C1423.5 2203.33 1444.5 2219.2 1444.5 2232C1444.5 2244.8 1455.17 2265.33 1460.5 2274L1444.5 2307.5L1413 2316C1396.83 2321.33 1362.9 2332 1356.5 2332C1348.5 2332 1335 2332 1316 2332C1297 2332 1291.5 2347 1279.5 2347C1269.9 2347 1275.5 2356.67 1279.5 2361.5L1316 2380.5L1337.5 2397L1364.5 2409C1377.67 2412.67 1405.8 2420.2 1413 2421C1420.2 2421.8 1427 2413.33 1429.5 2409L1422.5 2372.5L1424 2353.5C1425.83 2346.33 1429.5 2330.4 1429.5 2324C1429.5 2317.6 1450.17 2326.67 1460.5 2332L1482 2307.5L1505 2274V2232L1474 2205L1493 2159H1525.5L1564.5 2197L1578 2175.5L1548.5 2136C1530 2130.67 1493 2118.6 1493 2113C1493 2107.4 1460.67 2105.33 1444.5 2105V2076.5C1431 2076.5 1402.1 2073.8 1394.5 2063C1386.9 2052.2 1371.33 2053.17 1364.5 2055L1337.5 2028L1316 1986L1279.5 1967.5L1250 1925.5V1885V1862L1263.5 1840.5L1302.5 1831L1316 1840.5L1302.5 1852.5L1310.5 1867.5C1312.33 1873.33 1317.6 1887.4 1324 1897C1330.4 1906.6 1334 1881.33 1335 1867.5H1356.5L1371.5 1885V1914.5L1422.5 1958L1474 1986L1533.5 2021.5C1553.33 2032.67 1594.6 2055 1601 2055C1609 2055 1601 2076.5 1601 2094.5C1601 2112.5 1618.5 2143 1618.5 2151C1618.5 2157.4 1640.17 2177 1651 2186L1668.5 2205L1695.5 2248.5V2307.5L1749.5 2316L1782 2347L1821 2372.5L1853.5 2361.5L1839 2324L1861.5 2307.5V2282L1895.5 2293L1907.5 2274L1874 2232C1859.5 2223.5 1828.6 2204.6 1821 2197C1813.4 2189.4 1802.5 2168.5 1798 2159L1782 2136V2105L1821 2136H1853.5L1861.5 2120L1853.5 2113L1839 2094.5V2085L1861.5 2063L1884.5 2055L1928 2063L1948 2055V2047L1955 2021.5L1948 1994.5L1961.5 1974L1982 1967.5H2009V1958L1991.5 1925.5V1897L2009 1867.5V1840.5C2009 1827 2009 1798.3 2009 1791.5C2009 1784.7 2023.33 1769 2030.5 1762L2026.5 1724L2052 1681V1648.5L2063 1639L2095.5 1620H2128V1301.5H2121H2087.5V1271.5L2063 1252.5L2026.5 1258L1971 1278.5L1955 1258V1228.5H1971L1991.5 1192L1955 1167.5L1895.5 1148.5V1111L1874 1074.5C1865 1077.67 1845.4 1084.2 1839 1085C1832.6 1085.8 1824.33 1090 1821 1092C1804.83 1086.17 1770.9 1072.9 1764.5 1066.5C1758.1 1060.1 1756.83 1037.5 1757 1027L1729.5 998.5L1724 962L1706.5 938V878.5ZM1706.5 878.5V869M1706.5 869V861L1718.5 851.5L1741.5 839.5L1764.5 824.5M1706.5 869L1722.5 854.5L1764.5 824.5M1764.5 824.5L1757 817.75M1757 817.75L1749.5 811C1739.17 820 1717.09 824.3 1717.09 813.5C1717.09 802.7 1718.5 803.667 1718.5 800H1706.5L1685 811L1659 824.5L1628 851.5L1593 861L1578 878.5L1548.5 889.5L1533.5 878.5L1493 861L1482 811L1460.5 720.5L1474 680L1493 630L1525.5 565L1548.5 545L1533.5 515L1513 507H1482L1460.5 515V538L1444.5 545L1436 577L1460.5 605.5L1436 623V645L1413 658.5L1394.5 680L1371.5 701.5V739.5L1356.5 758.5V788L1349.5 824.5L1356.5 861L1383.5 870.5L1404 889.5L1413 896L1422.5 912.5L1404 938L1413 955.5L1394.5 978.5H1364.5L1349.5 1027L1364.5 1074.5V1111L1356.5 1143.5L1316 1162L1302.5 1167.5L1291.5 1177V1202.5C1284.5 1208 1269.1 1219 1263.5 1219C1257.9 1219 1249.17 1214.33 1245.5 1212L1237.5 1192L1227 1162L1218.5 1111L1205 1074.5L1179.5 1027V989.5L1155 970.5L1140.5 948.5L1135 978.5L1109.5 1008L1074 1027L1032.5 1042L1002.5 1020.5L971.5 998.5L989 978.5C987.333 970.333 983.7 952.4 982.5 946C981.3 939.6 974.667 898.333 971.5 878.5V824.5V788L1013.5 739.5L1056.5 720.5L1089 686.5L1147 627L1205 538L1218.5 478.5L1245.5 438L1256.5 396C1255.5 389.333 1251.9 376 1245.5 376C1239.1 376 1219.5 383.333 1210.5 387L1218.5 362.5L1245.5 315L1263.5 303H1279.5L1302.5 280L1316 251.5L1371.5 214L1413 183L1474 149L1525.5 138L1578 149C1583.33 152 1592.4 160.5 1586 170.5C1579.6 180.5 1569 192 1564.5 196.5C1560.33 200.833 1556.1 208.2 1572.5 203C1588.9 197.8 1604.67 196.5 1610.5 196.5L1593 234C1586.17 241.333 1572.5 257.3 1572.5 262.5C1572.5 267.7 1567.17 284.333 1564.5 292L1586 315L1601 324.5L1628 345L1610.5 396C1617.67 404.167 1632 421.3 1632 424.5C1632 427.7 1650 449.167 1659 459.5V489.5L1668.5 515C1674 520.333 1685 532.4 1685 538C1685 543.6 1692 558.333 1695.5 565L1706.5 590.5L1741.5 615L1757.5 645L1741.5 701.5L1695.5 798.5L1725 819L1757 817.75Z" stroke="black"/>
<path d="M1278 2352.5L1290 2330V2341L1303 2335L1322 2322.5L1345 2335L1382 2330L1407.5 2318L1431 2312.5L1457.5 2301L1448.5 2284L1461.5 2279.5L1467 2268.5L1461.5 2263V2247L1448.5 2233L1443 2223L1436 2209L1427.5 2201.5L1418.5 2197L1407.5 2187.5L1390 2181.5L1394.5 2166L1382 2160.5L1360.5 2166L1366 2155H1345L1331.5 2125H1306L1290 2129L1286.5 2116L1270.5 2113V2103L1249 2095L1236.5 2086.5L1232 2069L1216.5 2059.5L1189 2054.5L1199.5 2042L1181 2033.5V2016.5C1177.67 2025 1170.2 2036.9 1167 2016.5C1163.8 1996.1 1151 1968 1145 1956.5L1130 1944L1100 1933.5L1087 1925.5L1065.5 1944L1043 1965H1025.5L1038 1944L1032.5 1938L1014.5 1944L994.5 1933.5V1921L1008.5 1907L984.5 1877H1001.5L1014.5 1864.5L998.5 1834L1008.5 1831L1025.5 1825.5L1043 1831L1057 1818.5V1807.5L1071 1796L1087 1818.5L1100 1834V1818.5L1108.5 1796L1115.5 1790.5L1120 1801.5H1135.5L1151 1807.5L1145 1790.5L1151 1783L1160.5 1790.5V1777.5L1167 1766L1176.5 1770L1181 1777.5L1189 1770V1757H1227.5L1236.5 1749L1240.5 1770L1261 1777.5L1306 1783L1294.5 1801.5L1306 1807.5L1303 1818.5L1306 1831L1294.5 1834H1283L1278 1844.5L1267.5 1853H1249L1244.5 1859.5L1249 1874L1261 1884L1254.5 1897H1249V1915.5L1254.5 1938L1267.5 1951L1283 1956.5L1303 1972.5L1316.5 1977L1340 2042L1366 2054.5L1371.5 2069L1394.5 2076H1427.5L1443 2069L1448.5 2076L1443 2086.5L1436 2095L1443 2106L1467 2113L1504 2125L1521 2137.5H1541L1546.5 2146.5L1558 2155L1574 2166L1580 2174.5L1574 2181.5V2197H1558L1554 2187.5L1546.5 2174.5L1531 2166H1521L1510 2160.5L1504 2155L1496.5 2166L1485.5 2187.5L1480 2209L1496.5 2223L1514 2233L1521 2254.5L1514 2263L1496.5 2268.5L1491 2284V2301L1475.5 2309.5L1471.5 2335H1461.5L1448.5 2330L1443 2318L1414.5 2364L1427.5 2378.5L1436 2396.5L1427.5 2414L1418.5 2420.5C1411.83 2418.83 1397.7 2415.2 1394.5 2414C1391.3 2412.8 1374.17 2399.17 1366 2392.5L1355 2396.5L1340 2388.5L1322 2369.5H1290H1278V2352.5Z" stroke="black"/>
<path d="M1120 2135L1111 2131.5L1102 2135L1094.5 2142L1087.5 2152.5L1075.5 2155L1066.5 2158L1058 2155L1053.5 2147.5L1050.5 2152.5C1051.67 2156 1053.9 2163.5 1053.5 2165.5C1053.1 2167.5 1051.33 2172 1050.5 2174H1063L1068.5 2187L1071 2205L1063 2217L1066.5 2222.5C1069 2221 1074.3 2217.8 1075.5 2217C1076.7 2216.2 1078.33 2220.33 1079 2222.5L1068.5 2230.5L1066.5 2244.5L1071 2253.5H1063C1062.67 2256.5 1062.2 2262.9 1063 2264.5C1063.8 2266.1 1064.33 2268.83 1064.5 2270L1058 2276L1064.5 2283L1071 2274L1079 2286.5H1094.5L1097.5 2276L1100 2265.5H1108.5L1111 2272L1122 2274L1129.5 2265.5L1132 2209L1129.5 2195L1136.5 2182.5L1132 2168.5L1129.5 2158H1125.5L1120 2155L1122 2147.5L1120 2135Z" fill="#9CB7A3" stroke="black"/>
<path d="M1329 1788L1305.5 1783L1276.5 1780L1242.5 1770.5L1235 1750L1227.5 1758H1190.5L1183.5 1777L1175 1768H1163.5L1152 1758L1148 1770.5L1142.5 1768L1120 1755.5V1746L1123.5 1738L1120 1733L1131.5 1721L1148 1730L1152 1741.5L1160.5 1733L1169.5 1721H1177.5L1195.5 1733V1727.5H1202.5L1217 1721H1235V1713.5H1259.5L1272 1709V1698.5L1264 1689V1679L1285.5 1668L1291.5 1649L1301.5 1655.5V1641L1309.5 1638L1318.5 1649C1323 1648.17 1332.6 1646.5 1335 1646.5C1337.4 1646.5 1341 1642.83 1342.5 1641L1346.5 1634L1353 1633L1356 1622H1383L1399 1630.5L1416 1625.5L1436 1635.5V1646.5L1442.5 1663.5L1450.5 1673.5L1445 1694L1436 1698.5L1432 1694H1425.5V1703.5L1436 1709L1425.5 1721L1428.5 1733V1741.5H1418.5V1750L1411.5 1753L1405.5 1764.5H1396L1392 1770.5H1376.5L1361 1774L1348.5 1788H1329Z" stroke="black"/>
<path d="M861.5 1464.5L839.5 1482.5L837 1504L845 1510L854.5 1499L861.5 1514L867 1525L876.5 1523V1535H889.5L898 1541L892 1552.5L907.5 1560.5L920 1552.5H929.5L924.5 1572L938.5 1581.5L959 1590.5L966 1585L959 1566L969.5 1552.5L982.5 1546.5L990.5 1535L982.5 1523L975 1514H963L959 1504L963 1491.5L966 1482.5L944 1472L933.5 1464.5H920L913 1472L898 1477.5H886.5L882.5 1472H870.5L861.5 1464.5Z" stroke="black"/>
<path d="M871 1471.5L866 1467L883 1459.5L871 1453L878.5 1446L883 1440.5H893C894.6 1440.5 900.333 1434.83 903 1432L915.5 1421V1405.5L923 1392.5L927.5 1377V1365.5L933 1357H940.5L944.5 1362.5H951C949.667 1365.67 946.5 1372.5 944.5 1374.5C942.5 1376.5 943.667 1381.33 944.5 1383.5V1397C944.5 1400.6 941.833 1405.83 940.5 1408L944.5 1411L954.5 1402.5L963 1393.5L966.5 1383.5L973.5 1377H954.5V1367.5L958.5 1353L966.5 1348L979 1338H1012.5L1019 1344L1027.5 1353V1372L1019 1379.5V1392.5H1014.5C1013 1392.67 1009.5 1393.1 1007.5 1393.5C1005.5 1393.9 1004.33 1396 1004 1397L1010 1402.5L1019 1411L1016.5 1417.5L1007.5 1432L1010 1437L1007.5 1443L982.5 1440.5L976 1450L982.5 1459.5C982.667 1463.5 982.9 1471.9 982.5 1473.5C982.1 1475.1 982.667 1481.83 983 1485L973.5 1493L976 1500.5V1513.5H963L958.5 1505L966.5 1482.5L933 1464L920 1467L911.5 1471.5L897.5 1477.5H887.5L883 1471.5H871Z" stroke="black"/>
<path d="M792.499 2037H809.999V2013.5L817.499 1994L866.999 1972.5L881.999 1983L909.499 1988.5L937.499 2002.5L952.999 2010L963.499 2005L972.999 2002.5H985.499L979.499 1988.5L995.499 1983L1012.5 1972.5L1023.5 1967L1036 1942.5L1032.5 1936L1012.5 1942.5L998.999 1931L995.499 1918L1008 1909.5L986.499 1878.5L1004.5 1875L1012.5 1865.5L995.499 1830.5L1004.5 1825.5L995.499 1819.5L991.999 1805L972.999 1801H965.999V1795V1784L972.999 1775L979.499 1755.5H995.499L998.999 1747.5L1008 1731H1023.5L1032.5 1724V1712.5V1684L1048.5 1666.5V1649L1061 1635.5V1626H1039.5L1019.5 1618.5L995.499 1609.5V1599L979.499 1590.5L965.999 1596C953.166 1587.83 926.899 1570.9 924.499 1568.5C922.099 1566.1 923.499 1557.17 924.499 1553L903.999 1560L893.499 1553L899.499 1537.5H881.999L866.999 1524L851.999 1500.5L844.999 1510H837.499V1486.5L817.499 1480.5L792.499 1492L787.499 1537.5C770.333 1542.67 735.399 1553.6 732.999 1556C730.599 1558.4 723.999 1562.67 720.999 1564.5L729.999 1575L710.499 1584.5C704.333 1581.33 691.399 1575 688.999 1575H678.499L670.499 1564.5L673.999 1553L648.999 1543.5V1613.5L634.999 1609.5L594.499 1613.5L588.499 1590.5L577.499 1584.5L550.999 1590.5H528.499C520.833 1592.33 504.899 1596 502.499 1596C500.099 1596 507.833 1607.67 511.999 1613.5L523.999 1626L511.999 1635.5C512.833 1638.5 514.999 1645.4 516.999 1649C518.999 1652.6 525.499 1645.17 528.499 1641L565.499 1666.5L594.499 1689.5L600.499 1724L616.999 1747.5L626.999 1779.5L634.999 1819.5L626.999 1862L616.999 1902.5L605.499 1931L582.499 1948.5L600.499 1961.5L594.499 1972.5H605.499L626.999 1983L640.499 1999.5L648.999 1994L670.499 2010H697.499L703.999 1999.5L729.999 2017V2031.5L748.999 2027.5L759.999 2041L772.499 2037L784.499 2047L792.499 2037Z" stroke="black"/>
<path d="M1113 2101.5L1105 2121.5L1088 2116.5L1078 2101.5V2080V2067.5C1078 2065.1 1081.67 2054.83 1083.5 2050L1096.5 2041.5L1110 2036L1105 2022L1113 2016.5C1115.33 2024.67 1120 2041.9 1120 2045.5C1120 2049.1 1122.67 2070 1124 2080L1113 2101.5Z" fill="#9CB7A3" stroke="black"/>
<path d="M1029.5 1374V1354.5L1024.5 1337.5L1029.5 1325.5L1045 1324L1078.5 1337.5V1317L1095 1320.5V1301L1081.5 1289.5L1095 1282L1086.5 1252.5C1089.83 1252.17 1097.1 1251.7 1099.5 1252.5C1101.9 1253.3 1117.17 1256.83 1124.5 1258.5L1133.5 1271L1145 1282L1158.5 1285.5L1178.5 1271V1294.5C1174 1295.83 1164.6 1299 1163 1301C1161.4 1303 1165.33 1305.17 1167.5 1306H1184L1194 1312L1198 1301L1223 1282L1228.5 1271L1249.5 1278.5L1254.5 1258.5L1269 1262L1271.5 1282H1261.5V1294.5H1271.5L1293.5 1306L1300.5 1325.5L1307 1354.5L1293.5 1370L1318.5 1391.5L1313.5 1407L1327 1424.5L1321.5 1439.5L1327 1457.5L1339.5 1461L1336.5 1486V1500L1307 1503L1287.5 1512.5L1269 1529L1249.5 1535.5L1223 1541.5L1245.5 1561.5V1589L1261.5 1604L1280 1624.5H1293.5L1304 1638.5L1300.5 1660L1293.5 1649.5L1291 1660L1269 1676L1261.5 1684.5L1271.5 1698.5L1261.5 1714.5H1238.5L1211 1722L1191.5 1731L1170 1722L1158.5 1737.5L1151.5 1740.5L1137 1722L1108.5 1714.5L1084.5 1709.5H1075.5L1071 1718H1047L1035 1722V1698.5L1042 1673L1047 1655.5L1060.5 1647V1629L1042 1624.5L1013.5 1613L1002 1616.5C998.667 1611.5 992 1600.9 992 1598.5C992 1596.1 987.667 1593.5 985.5 1592.5L992 1577.5L982 1567.5V1550L992 1535.5L978.5 1517L972 1500L982 1486V1464L978.5 1452L982 1439.5L1006.5 1445.5L1013.5 1429L1019.5 1420L1013.5 1407L1006.5 1394H1019.5V1381.5L1029.5 1374Z" stroke="black"/>
<path d="M1563.5 884L1548 895V875.5L1526 879.5L1533 863.5L1493 884L1522 863.5L1511.5 854H1488.5L1482.5 824.5L1488.5 802L1473.5 770.5L1461.5 699V679.5H1482.5V656.5L1499 638L1511.5 620.5L1533 557L1551 554.5L1537 528.5V512.5L1505 502.5L1482.5 482.5V448L1461.5 406V368.5L1446 350C1438.67 347.167 1422.3 341.1 1415.5 339.5C1408.7 337.9 1389.33 317.833 1380.5 308L1386.5 289.5L1437.5 322.5L1451 308L1482.5 316L1493 289.5L1488.5 242.5L1493 230.5L1511.5 220.5L1528.5 209.5L1554 220.5L1570.5 230.5L1563.5 264.5V272.5L1570.5 278.5L1563.5 301.5L1576.5 322.5H1594L1623 350L1610.5 400L1662.5 466.5L1652 477.5L1662.5 502.5V517.5L1673.5 522L1682 550L1697.5 558.5L1693 588.5L1729.5 609.5L1758.5 638L1746 691.5L1729.5 737.5L1714.5 764.5C1706.17 779.667 1689 811 1687 815C1684.5 820 1668.5 816 1662.5 815C1657.7 814.2 1614.83 847 1594 863.5C1589.5 867.5 1579.7 875.5 1576.5 875.5H1563.5V884Z" stroke="black"/>
<path d="M511 1481.5C505.333 1482.67 493.4 1485.3 491 1486.5L504.5 1504.5L522 1497.5L532 1486.5L549.5 1484L574 1504.5L588 1484L607.5 1473.5L624 1486.5L652.5 1484L675 1478L708 1484C718.5 1485.83 740 1489.9 742 1491.5C744 1493.1 764.167 1483.17 774 1478C778.667 1474 788.7 1464.9 791.5 1460.5C794.3 1456.1 790.333 1454.67 788 1454.5C784.833 1454.67 777.6 1454.9 774 1454.5C769.5 1454 762 1449 762 1447C762 1445.4 767.333 1438.67 770 1435.5C771.333 1433.67 774 1428.6 774 1423C774 1417.4 783.333 1425.33 788 1430C791.333 1425.83 798.5 1417 800.5 1415C803 1412.5 811 1389.5 811 1386C811 1383.2 807 1370.83 805 1365C796 1360 777.2 1350.7 774 1353.5C770 1357 762 1358.5 755.5 1359C750.3 1359.4 747.667 1355.5 747 1353.5L762 1327.5L755.5 1300V1282L742 1270.5V1250.5L718 1235.5L712.5 1203.5V1181L705.5 1156L684 1143H675L656.5 1134.5L684 1125.5L675 1109.5L688 1095.5L705.5 1089.5L725 1063V1039.5L679 1028.5L645 1032.5L661.5 1017.5L656.5 1012.5L667.5 1005L688 990V973L636 961C629.667 967.833 615.7 982.5 610.5 986.5C605.3 990.5 599.333 998.5 597 1002C586.333 1002.83 563.8 1006.1 559 1012.5C553 1020.5 559 1029 559 1032.5C559 1035.3 566 1038.33 569.5 1039.5C566 1048.83 559 1068.4 559 1072C559 1076.5 554 1085.5 554 1089.5C554 1093.5 559 1105.5 559 1109.5C559 1112.7 569 1118.17 574 1120.5L565 1134.5V1148C562.833 1153.17 558.6 1163.5 559 1163.5C559.4 1163.5 563.167 1167.5 565 1169.5L574 1151.5L579 1130.5L588 1120.5V1130.5L597 1134.5V1148L605 1163.5L579 1181L569.5 1185.5L579 1210L588 1199L593.5 1210H605L624 1203.5H641.5C639.667 1205.83 635.2 1211.7 632 1216.5C628.8 1221.3 630.667 1231.17 632 1235.5L636 1255L652.5 1258.5C650 1262.67 644.3 1271.9 641.5 1275.5C638.7 1279.1 642.667 1281.33 645 1282L636 1286.5L632 1309.5L624 1305.5H597L579 1286.5L569.5 1294.5L579 1309.5L569.5 1327.5V1334.5L588 1327.5C585 1334.83 579 1350.3 579 1353.5V1365L532 1379V1394L538.5 1408L549.5 1401L579 1408L597 1426.5L627.5 1423C622.5 1429.5 612.1 1442.5 610.5 1442.5C608.5 1442.5 572.5 1435.5 569.5 1435.5C567.1 1435.5 558.167 1440.17 554 1442.5L538.5 1466L522 1470.5L511 1481.5Z" fill="#9CB7A3" stroke="black"/>
<path d="M487 1225.5C483.4 1229.1 478.167 1227 476 1225.5L465.5 1207.5V1197V1190L480 1181L498 1169.5H508L522.5 1163C527.5 1162.33 538.4 1161 542 1161C546.5 1161 542 1175 547.5 1177.5C553 1180 554 1187.5 554 1190C554 1192.5 554 1197 547.5 1197C541 1197 549.5 1207.5 554 1207.5C557.6 1207.5 557.833 1216.5 557.5 1221C553.833 1222.5 545.6 1227.3 542 1234.5C538.4 1241.7 532.833 1240.5 530.5 1239C527.667 1238.33 521.5 1236.5 519.5 1234.5C517 1232 510.5 1225.5 501.5 1221C496.485 1218.49 497.001 1214.38 498.789 1211.11C495.045 1216.03 489.812 1222.69 487 1225.5Z" fill="#9CB7A3"/>
<path d="M465.5 1197L476 1225.5M476 1225.5C478.167 1227 483.4 1229.1 487 1225.5C490.6 1221.9 498.167 1212 501.5 1207.5C498.5 1210.5 494.3 1217.4 501.5 1221C510.5 1225.5 517 1232 519.5 1234.5C521.5 1236.5 527.667 1238.33 530.5 1239C532.833 1240.5 538.4 1241.7 542 1234.5C545.6 1227.3 553.833 1222.5 557.5 1221C557.833 1216.5 557.6 1207.5 554 1207.5C549.5 1207.5 541 1197 547.5 1197C554 1197 554 1192.5 554 1190C554 1187.5 553 1180 547.5 1177.5C542 1175 546.5 1161 542 1161C538.4 1161 527.5 1162.33 522.5 1163L508 1169.5H498L480 1181L465.5 1190V1207.5L476 1225.5Z" stroke="black"/>
<path d="M1369 1281.5L1297 1308V1327L1306 1353.5L1291.5 1367.5L1313 1386L1321.5 1407.5V1423.5C1321.5 1427.5 1322.5 1436 1324.5 1444.5C1326.1 1451.3 1329.83 1457 1331.5 1459L1336.5 1469L1339.5 1496.5L1355 1499.5L1383 1515.5L1398.5 1509V1525C1401.33 1528.5 1407.3 1536.1 1408.5 1538.5C1409.7 1540.9 1417.67 1534.5 1421.5 1531L1427 1521.5L1446 1525L1458.5 1538.5L1496 1549C1500.5 1553.67 1509.5 1563.9 1509.5 1567.5C1509.5 1571.1 1519.17 1572.67 1524 1573L1537.5 1563L1551.5 1573V1584.5H1563L1569 1573L1585 1567.5L1598.5 1573L1601.5 1563L1622.5 1556.5L1638.5 1563C1644.83 1564.5 1659 1568.6 1665 1573C1671 1577.4 1675.83 1571.17 1677.5 1567.5L1665 1549L1671 1531L1686.5 1506L1695 1483.5L1708 1479L1712.5 1465L1698.5 1455.5L1708 1444.5L1686.5 1419.5L1677.5 1402V1377.5C1675.5 1376.5 1670.2 1374.4 1665 1374C1658.5 1373.5 1657.5 1362 1657.5 1359C1657.5 1356.6 1668.83 1342.33 1674.5 1335.5C1669.83 1321.5 1659.9 1292.8 1657.5 1290C1655.1 1287.2 1652.17 1271.83 1651 1264.5L1643 1242.5L1614 1236.5L1559.5 1249L1509.5 1255C1503 1258.17 1489.3 1264.5 1486.5 1264.5C1483 1264.5 1464.5 1261 1458.5 1261C1453.7 1261 1460.5 1244.67 1464.5 1236.5L1442.5 1232.5C1427.67 1238.67 1397.5 1250.6 1395.5 1249C1393.5 1247.4 1379.33 1256.33 1372.5 1261L1369 1281.5Z" stroke="black"/>
<path d="M1658 1616L1667 1573L1622.5 1555L1599 1565.5V1573L1583.5 1565.5L1575 1573L1563.5 1582.5H1551.5V1573L1537 1565.5L1520 1573L1511 1565.5L1485 1582.5V1600L1466.5 1616L1448.5 1619L1439.5 1627.5L1433.5 1643L1448.5 1671L1476.5 1688.5L1516.5 1682L1524.5 1662.5L1583.5 1643V1622.5L1622.5 1616L1641 1622.5L1658 1616Z" stroke="black"/>
<path d="M1952.5 2050.5C1954 2056.5 1947.5 2065 1946.5 2069C1940.83 2067.67 1927.7 2065 1920.5 2065C1911.5 2065 1905 2062 1898.5 2058.5C1892 2055 1884.5 2065 1878.5 2065C1872.5 2065 1869 2069 1865.5 2072C1862 2075 1843 2078 1837.5 2078C1832 2078 1825.5 2091 1833 2101.5C1840.5 2112 1843 2107.5 1854 2112.5C1865 2117.5 1864 2127.5 1865.5 2134.5C1867 2141.5 1843 2143 1837.5 2146C1832 2149 1820 2130.5 1814 2130C1809.2 2129.6 1798 2118.17 1793 2112.5L1777 2098.5C1776.33 2105.67 1775.4 2122.9 1777 2134.5C1779 2149 1807.5 2166.5 1825.5 2179C1843.5 2191.5 1828.5 2200 1837.5 2211C1844.7 2219.8 1859.17 2218.67 1865.5 2217C1878.17 2228 1903.8 2251.6 1905 2258C1906.2 2264.4 1898.17 2280 1894 2287H1843C1851 2295.17 1867.4 2312.5 1869 2316.5C1871 2321.5 1834 2316.5 1833 2324C1832 2331.5 1835.5 2342 1843 2357C1849 2369 1852.83 2377 1854 2379.5C1843.33 2378.83 1821.6 2376.3 1820 2371.5C1818 2365.5 1799.5 2352 1785.5 2347.5C1774.3 2343.9 1778.5 2362 1782 2371.5C1777.83 2363.33 1769.5 2346 1769.5 2342C1769.5 2337 1765 2326 1763 2324C1761 2322 1748.5 2306 1746 2303.5C1743.5 2301 1718.5 2314.5 1715.5 2316.5C1713.1 2318.1 1703.5 2297.5 1699 2287L1692 2258L1699 2227.5L1666 2211V2187C1669.83 2179.33 1678 2163.6 1680 2162C1682 2160.4 1688.83 2146.67 1692 2140L1699 2122.5L1692 2112.5L1729 2098.5L1742 2083.5L1777 2078V2065L1799.5 2058.5L1854 2029.5L1878.5 2043L1920.5 2036.5L1934.5 2020C1934.17 2014.33 1933.7 2003 1934.5 2003H1952.5C1955 2007.33 1960.2 2016.8 1961 2020C1961.8 2023.2 1951.67 2027.67 1946.5 2029.5C1948 2034.5 1951.3 2045.7 1952.5 2050.5Z" stroke="black"/>
<path d="M2100.5 1310.5C2101.7 1312.9 2120.33 1305.5 2129.5 1301.5V1618.5C2126.5 1617.5 2119.4 1615.5 2115 1615.5C2109.5 1615.5 2092.5 1615.5 2092.5 1618.5C2092.5 1621.5 2080 1628 2077.5 1630C2075 1632 2061 1637.5 2054.5 1642.5C2048 1647.5 2054.5 1658.5 2054.5 1662C2054.5 1664.8 2050.17 1666.5 2048 1667L2032 1662L2021.5 1651.5L2017.5 1637.5L1998 1634.5C1997 1628.17 1994.9 1615.5 1994.5 1615.5H1984L1968.5 1608.5V1589L1960.5 1573H1947.5H1933C1927.5 1570.5 1915.6 1565.5 1912 1565.5H1892C1886.5 1568 1874.1 1573 1868.5 1573C1861.5 1573 1857.5 1577.5 1854.5 1582.5C1852.1 1586.5 1847.83 1588.5 1846 1589L1837.5 1594.5V1608.5C1832.67 1610.83 1821.7 1615.5 1816.5 1615.5C1810 1615.5 1801 1622 1796 1625C1792 1627.4 1788.33 1634.33 1787 1637.5L1771 1625H1765.5C1758.83 1626.67 1744 1630 1738 1630H1710L1696.5 1637.5L1688.5 1628L1676 1630C1670.83 1626.17 1660.5 1617.9 1660.5 1615.5C1660.5 1613.1 1666.5 1586.17 1669.5 1573L1681.5 1569L1669.5 1545L1693 1487.5L1710 1478.5L1713.5 1465L1699.5 1453L1710 1444.5L1686 1422.5L1681.5 1406.5L1696.5 1393L1710 1383L1728.5 1374C1739.67 1372 1762.7 1368 1765.5 1368H1804.5L1834 1377.5C1834.67 1374.33 1836.3 1367.1 1837.5 1363.5C1838.7 1359.9 1855.67 1362 1864 1363.5L1875.5 1368L1886 1363.5L1892 1353.5L1906.5 1363.5L1912 1353.5C1917.33 1352 1929 1349.1 1933 1349.5C1937 1349.9 1946.33 1355 1950.5 1357.5C1950.33 1351.5 1949.5 1339.2 1947.5 1338C1945.5 1336.8 1950.67 1319.17 1953.5 1310.5L1980 1292.5L1998 1286.5L2012.5 1268.5C2018.17 1264.33 2030.8 1255.6 2036 1254C2041.2 1252.4 2054.83 1250.33 2061 1249.5C2070.5 1257.33 2090.1 1273.7 2092.5 1276.5C2095.5 1280 2086 1288.5 2084.5 1292.5C2083 1296.5 2099 1307.5 2100.5 1310.5Z" stroke="black"/>
<path d="M273.999 515.5C266.799 513.9 264.666 492.833 264.499 482.5L209.999 450.5C216.166 447.333 227.299 439.4 222.499 433C216.499 425 212.999 410 209.999 401C207.599 393.8 217.332 394.667 222.499 396C232.499 401.167 253.699 411.2 258.499 410C264.499 408.5 264.499 399 252.499 390.5C240.499 382 235.499 379.5 222.499 364C209.499 348.5 228.499 334 235.499 321.5C242.499 309 264.499 303 264.499 295C264.499 287 280.999 299 299.499 313.5C317.999 328 299.499 329 299.499 344C299.499 359 299.499 379.5 305.999 384.5C312.499 389.5 320.499 370 320.499 364C320.499 358 342.999 355.5 353.499 352.5C363.999 349.5 369.499 370 385.999 379.5C402.499 389 411.999 384.5 413.999 379.5C415.599 375.5 434.666 371.5 443.999 370C451.499 374.833 467.799 385.7 472.999 390.5C479.499 396.5 465.499 411 461.499 419.5C457.499 428 472.999 439 482.999 450.5C490.999 459.7 489.999 467.333 488.499 470C484.332 480.333 475.399 502.2 472.999 507C470.599 511.8 440.999 521.333 426.499 525.5C404.499 528.667 359.099 535 353.499 535C346.499 535 335.499 542 320.499 545C305.499 548 300.499 530 299.499 525.5C298.499 521 282.999 517.5 273.999 515.5Z" fill="#9CB7A3" stroke="black"/>
<path d="M523 1249V1241L508 1222.5L502.5 1205C497.667 1210.83 487.2 1222.5 484 1222.5C480.8 1222.5 475.333 1225.83 473 1227.5C469.833 1224.33 463.5 1217.2 463.5 1214V1194.5L484 1177.5L513.5 1152L502.5 1143C498.833 1142.83 490 1142.6 484 1143C476.5 1143.5 473 1148.5 448.5 1163C442.1 1165 441.5 1173.5 442 1177.5C444.167 1179 450.1 1183 456.5 1187C464.5 1192 452.5 1194.5 448.5 1205C444.5 1215.5 442 1205 436.5 1205C432.1 1205 425 1198 422 1194.5C416.5 1190.83 400.2 1185.7 379 1194.5C363 1204 373.5 1201 395 1214C411 1220 385.5 1218.5 379 1222.5C372.5 1226.5 373.5 1226.5 385.5 1256.5C389.5 1264 411 1259 415 1261.5C419 1264 405.5 1268.5 385.5 1281.5C365.5 1294.5 373.5 1294 365 1298C356.5 1302 351.5 1303 338.5 1303.5C325.5 1304 332.5 1311 331 1319.5C329.5 1328 335.5 1340 338.5 1348L338.593 1348.25C341.511 1356.03 342.099 1357.6 351.5 1367C361 1376.5 364 1367 373.5 1367C383 1367 396.5 1369 405.5 1367C414.5 1365 431 1357.5 442 1357.5C453 1357.5 462 1357 473 1357.5C481.8 1357.9 493 1351.33 497.5 1348L513.5 1311L523 1276V1249Z" fill="#9CB7A3" stroke="black"/>
<path d="M804.071 760.78L796.222 756.476L788.904 769.871L787.368 769.029L795.445 754.298L804.81 759.433L804.071 760.78ZM800.335 776.276C799.269 775.692 798.438 774.926 797.844 773.98C797.258 773.019 796.954 771.977 796.932 770.852C796.91 769.727 797.195 768.624 797.788 767.544C798.38 766.464 799.156 765.63 800.117 765.044C801.077 764.457 802.116 764.16 803.233 764.152C804.351 764.145 805.442 764.433 806.509 765.018C807.575 765.603 808.405 766.368 808.999 767.314C809.593 768.261 809.894 769.292 809.902 770.41C809.924 771.535 809.638 772.637 809.046 773.718C808.454 774.798 807.677 775.631 806.717 776.218C805.771 776.812 804.735 777.12 803.61 777.142C802.493 777.149 801.401 776.861 800.335 776.276ZM801.062 774.95C801.847 775.381 802.645 775.591 803.455 775.578C804.286 775.56 805.058 775.317 805.77 774.85C806.482 774.383 807.069 773.728 807.531 772.887C807.993 772.045 808.229 771.198 808.24 770.347C808.25 769.495 808.036 768.721 807.597 768.024C807.18 767.32 806.579 766.753 805.793 766.323C805.007 765.892 804.199 765.686 803.368 765.704C802.558 765.716 801.79 765.952 801.064 766.412C800.351 766.879 799.764 767.533 799.303 768.375C798.841 769.216 798.605 770.063 798.594 770.915C798.597 771.774 798.808 772.556 799.225 773.259C799.664 773.956 800.276 774.52 801.062 774.95ZM819.393 779.145C820.702 780.319 820.956 781.635 820.156 783.094C819.625 784.062 818.859 784.61 817.859 784.737C816.859 784.863 815.651 784.538 814.234 783.761L809.204 781.003L815.274 769.934L820.156 772.611C821.419 773.304 822.273 774.092 822.72 774.975C823.166 775.858 823.139 776.756 822.639 777.668C822.308 778.271 821.855 778.698 821.28 778.948C820.726 779.192 820.097 779.258 819.393 779.145ZM814.026 775.655L817.351 777.478C818.207 777.947 818.947 778.144 819.573 778.067C820.213 777.998 820.702 777.655 821.041 777.038C821.379 776.421 821.402 775.831 821.108 775.268C820.828 774.713 820.261 774.201 819.405 773.732L816.08 771.909L814.026 775.655ZM814.817 782.548C815.771 783.071 816.571 783.309 817.217 783.262C817.863 783.215 818.367 782.862 818.729 782.203C819.09 781.543 819.138 780.94 818.873 780.393C818.615 779.832 818.016 779.293 817.076 778.778L813.414 776.77L811.303 780.621L814.817 782.548ZM828.077 776.955L829.571 777.774L826.882 782.677L833.848 786.497L836.537 781.594L838.031 782.413L831.961 793.482L830.467 792.663L833.144 787.781L826.179 783.961L823.501 788.843L822.007 788.024L828.077 776.955ZM840.716 798.42C839.65 797.836 838.82 797.07 838.226 796.124C837.639 795.164 837.335 794.121 837.313 792.996C837.292 791.871 837.577 790.768 838.169 789.688C838.762 788.608 839.538 787.774 840.498 787.188C841.459 786.601 842.497 786.304 843.615 786.296C844.732 786.289 845.824 786.577 846.89 787.162C847.956 787.747 848.787 788.512 849.381 789.458C849.975 790.405 850.276 791.436 850.284 792.554C850.305 793.679 850.02 794.781 849.428 795.862C848.835 796.942 848.059 797.775 847.099 798.362C846.152 798.956 845.117 799.264 843.992 799.286C842.874 799.293 841.783 799.005 840.716 798.42ZM841.443 797.095C842.229 797.525 843.027 797.735 843.836 797.722C844.668 797.704 845.439 797.461 846.152 796.994C846.864 796.527 847.451 795.873 847.913 795.031C848.374 794.189 848.61 793.342 848.621 792.491C848.632 791.639 848.418 790.865 847.979 790.168C847.562 789.464 846.96 788.897 846.175 788.467C845.389 788.036 844.581 787.83 843.749 787.848C842.94 787.86 842.172 788.096 841.445 788.556C840.733 789.023 840.146 789.677 839.684 790.519C839.223 791.361 838.987 792.207 838.976 793.059C838.979 793.918 839.189 794.7 839.606 795.403C840.045 796.1 840.658 796.664 841.443 797.095ZM862.047 803.384L852.788 798.307C852.241 799.503 852.172 800.678 852.579 801.832C852.994 802.972 853.812 803.877 855.032 804.546C855.72 804.923 856.416 805.15 857.122 805.227C857.836 805.29 858.534 805.198 859.216 804.952L859.527 806.382C858.713 806.702 857.85 806.812 856.937 806.713C856.038 806.622 855.147 806.334 854.263 805.849C853.127 805.226 852.247 804.433 851.625 803.472C851.025 802.504 850.713 801.457 850.692 800.332C850.67 799.207 850.955 798.104 851.548 797.024C852.14 795.944 852.902 795.103 853.835 794.501C854.781 793.907 855.792 793.594 856.867 793.564C857.956 793.54 859.013 793.81 860.037 794.371C861.061 794.933 861.849 795.675 862.401 796.598C862.953 797.522 863.226 798.538 863.22 799.648C863.221 800.743 862.922 801.838 862.322 802.933L862.047 803.384ZM859.333 795.655C858.267 795.07 857.18 794.922 856.074 795.209C854.989 795.49 854.098 796.151 853.399 797.191L861.249 801.496C861.751 800.347 861.821 799.237 861.461 798.163C861.123 797.083 860.413 796.247 859.333 795.655ZM873.879 814.772L871.698 818.749L870.288 817.976L871.754 815.303L861.842 809.868L860.377 812.541L858.967 811.768L861.148 807.79L861.779 808.137C862.546 808.502 863.351 808.232 864.194 807.326C865.038 806.42 866.028 805.047 867.165 803.207L869.343 799.584L877.508 804.061L872.154 813.826L873.879 814.772ZM868.486 804.041C867.555 805.574 866.71 806.799 865.952 807.715C865.201 808.617 864.47 809.119 863.757 809.221L870.659 813.006L875.287 804.568L869.963 801.648L868.486 804.041ZM880.647 820.317C879.553 819.717 878.702 818.94 878.094 817.986C877.499 817.04 877.191 816.004 877.17 814.879C877.156 813.74 877.445 812.631 878.037 811.55C878.63 810.47 879.406 809.637 880.366 809.05C881.326 808.464 882.365 808.167 883.483 808.159C884.614 808.159 885.727 808.459 886.821 809.059C887.775 809.582 888.52 810.237 889.056 811.023C889.613 811.804 889.913 812.671 889.956 813.625L888.425 813.771C888.36 813.023 888.121 812.363 887.706 811.788C887.298 811.2 886.765 810.725 886.106 810.364C885.306 809.925 884.483 809.711 883.638 809.722C882.814 809.727 882.039 809.959 881.313 810.418C880.601 810.885 880.014 811.539 879.552 812.381C879.083 813.237 878.843 814.091 878.832 814.942C878.843 815.788 879.064 816.566 879.495 817.277C879.948 817.981 880.575 818.553 881.374 818.992C882.034 819.353 882.717 819.554 883.424 819.596C884.132 819.637 884.818 819.484 885.483 819.137L886.182 820.506C885.355 820.983 884.459 821.203 883.494 821.166C882.536 821.116 881.587 820.833 880.647 820.317ZM894.653 821.456L892.127 820.071L889.427 824.995L887.933 824.176L894.003 813.107L895.497 813.926L892.831 818.787L895.378 820.183L901.936 817.457L903.557 818.346L896.258 821.323L897.802 829.588L896.035 828.618L894.653 821.456Z" fill="white"/>
<path d="M804.071 760.78L803.59 761.657L804.467 762.138L804.948 761.261L804.071 760.78ZM796.222 756.476L796.703 755.599L795.825 755.117L795.344 755.996L796.222 756.476ZM788.904 769.871L788.423 770.748L789.301 771.229L789.781 770.35L788.904 769.871ZM787.368 769.029L786.491 768.548L786.01 769.425L786.887 769.905L787.368 769.029ZM795.445 754.298L795.926 753.421L795.049 752.94L794.569 753.817L795.445 754.298ZM804.81 759.433L805.687 759.914L806.167 759.037L805.291 758.556L804.81 759.433ZM804.552 759.903L796.703 755.599L795.741 757.352L803.59 761.657L804.552 759.903ZM795.344 755.996L788.026 769.391L789.781 770.35L797.1 756.955L795.344 755.996ZM789.385 768.994L787.848 768.152L786.887 769.905L788.423 770.748L789.385 768.994ZM788.244 769.509L796.322 754.779L794.569 753.817L786.491 768.548L788.244 769.509ZM794.965 755.175L804.329 760.31L805.291 758.556L795.926 753.421L794.965 755.175ZM803.933 758.952L803.194 760.299L804.948 761.261L805.687 759.914L803.933 758.952ZM797.844 773.98L796.991 774.501L796.997 774.512L797.844 773.98ZM796.932 770.852L795.932 770.871L795.932 770.871L796.932 770.852ZM800.117 765.044L799.596 764.19L799.596 764.19L800.117 765.044ZM808.999 767.314L808.152 767.846L808.152 767.846L808.999 767.314ZM809.902 770.41L808.902 770.417L808.902 770.429L809.902 770.41ZM806.717 776.218L806.196 775.364L806.185 775.371L806.717 776.218ZM803.61 777.142L803.617 778.142L803.629 778.141L803.61 777.142ZM803.455 775.578L803.47 776.578L803.477 776.578L803.455 775.578ZM805.77 774.85L806.318 775.686L806.318 775.686L805.77 774.85ZM808.24 770.347L809.24 770.359L809.24 770.359L808.24 770.347ZM807.597 768.024L806.737 768.534L806.744 768.545L806.751 768.557L807.597 768.024ZM803.368 765.704L803.383 766.704L803.39 766.704L803.368 765.704ZM801.064 766.412L800.529 765.566L800.522 765.571L800.515 765.575L801.064 766.412ZM798.594 770.915L797.594 770.902L797.594 770.91L797.594 770.919L798.594 770.915ZM799.225 773.259L798.365 773.769L798.372 773.781L798.379 773.792L799.225 773.259ZM800.816 775.399C799.885 774.889 799.187 774.237 798.691 773.448L796.997 774.512C797.69 775.615 798.652 776.494 799.854 777.153L800.816 775.399ZM798.698 773.459C798.203 772.65 797.95 771.78 797.932 770.832L795.932 770.871C795.957 772.173 796.312 773.389 796.991 774.501L798.698 773.459ZM797.932 770.832C797.914 769.898 798.148 768.967 798.665 768.025L796.911 767.063C796.243 768.281 795.907 769.555 795.932 770.871L797.932 770.832ZM798.665 768.025C799.181 767.083 799.841 766.384 800.638 765.897L799.596 764.19C798.472 764.876 797.579 765.845 796.911 767.063L798.665 768.025ZM800.638 765.897C801.444 765.405 802.306 765.159 803.24 765.152L803.226 763.152C801.926 763.161 800.71 763.51 799.596 764.19L800.638 765.897ZM803.24 765.152C804.172 765.146 805.097 765.384 806.028 765.895L806.989 764.141C805.787 763.482 804.529 763.143 803.226 763.152L803.24 765.152ZM806.028 765.895C806.958 766.405 807.657 767.057 808.152 767.846L809.846 766.782C809.153 765.679 808.191 764.8 806.989 764.141L806.028 765.895ZM808.152 767.846C808.648 768.635 808.896 769.485 808.902 770.417L810.902 770.403C810.893 769.1 810.539 767.886 809.846 766.782L808.152 767.846ZM808.902 770.429C808.92 771.363 808.686 772.295 808.169 773.237L809.923 774.198C810.591 772.98 810.927 771.706 810.902 770.39L808.902 770.429ZM808.169 773.237C807.653 774.179 806.993 774.877 806.196 775.364L807.238 777.071C808.362 776.385 809.255 775.417 809.923 774.198L808.169 773.237ZM806.185 775.371C805.394 775.868 804.536 776.124 803.591 776.142L803.629 778.141C804.935 778.116 806.148 777.756 807.249 777.065L806.185 775.371ZM803.603 776.142C802.671 776.148 801.746 775.91 800.816 775.399L799.854 777.153C801.056 777.812 802.314 778.151 803.617 778.142L803.603 776.142ZM800.581 775.827C801.502 776.332 802.469 776.593 803.47 776.578L803.44 774.578C802.821 774.588 802.193 774.43 801.543 774.074L800.581 775.827ZM803.477 776.578C804.5 776.555 805.454 776.253 806.318 775.686L805.222 774.014C804.662 774.381 804.072 774.564 803.432 774.579L803.477 776.578ZM806.318 775.686C807.184 775.118 807.878 774.334 808.408 773.368L806.654 772.406C806.261 773.123 805.781 773.647 805.222 774.014L806.318 775.686ZM808.408 773.368C808.938 772.401 809.226 771.395 809.24 770.359L807.24 770.334C807.231 771.002 807.047 771.689 806.654 772.406L808.408 773.368ZM809.24 770.359C809.253 769.322 808.989 768.357 808.444 767.491L806.751 768.557C807.084 769.084 807.248 769.668 807.24 770.334L809.24 770.359ZM808.457 767.513C807.94 766.642 807.201 765.954 806.274 765.446L805.312 767.199C805.956 767.553 806.42 767.999 806.737 768.534L808.457 767.513ZM806.274 765.446C805.347 764.937 804.366 764.682 803.345 764.704L803.39 766.704C804.032 766.69 804.668 766.846 805.312 767.199L806.274 765.446ZM803.353 764.704C802.347 764.719 801.401 765.015 800.529 765.566L801.598 767.257C802.179 766.889 802.769 766.713 803.383 766.704L803.353 764.704ZM800.515 765.575C799.65 766.143 798.956 766.927 798.426 767.894L800.18 768.856C800.573 768.139 801.053 767.614 801.612 767.248L800.515 765.575ZM798.426 767.894C797.896 768.861 797.607 769.867 797.594 770.902L799.594 770.928C799.603 770.26 799.787 769.572 800.18 768.856L798.426 767.894ZM797.594 770.919C797.598 771.947 797.852 772.905 798.365 773.769L800.085 772.749C799.763 772.207 799.597 771.602 799.594 770.911L797.594 770.919ZM798.379 773.792C798.916 774.645 799.66 775.322 800.581 775.827L801.543 774.074C800.893 773.717 800.412 773.267 800.071 772.726L798.379 773.792ZM819.393 779.145L819.551 778.158L816.196 777.621L818.725 779.89L819.393 779.145ZM817.859 784.737L817.734 783.744L817.734 783.744L817.859 784.737ZM809.204 781.003L808.328 780.522L807.847 781.399L808.724 781.88L809.204 781.003ZM815.274 769.934L815.755 769.057L814.878 768.577L814.397 769.453L815.274 769.934ZM822.72 774.975L823.612 774.524L823.612 774.524L822.72 774.975ZM821.28 778.948L820.881 778.031L820.877 778.033L821.28 778.948ZM814.026 775.655L813.149 775.174L812.668 776.051L813.545 776.531L814.026 775.655ZM819.573 778.067L819.466 777.073L819.459 777.074L819.452 777.074L819.573 778.067ZM821.108 775.268L820.215 775.718L820.218 775.725L820.222 775.731L821.108 775.268ZM816.08 771.909L816.561 771.032L815.684 770.551L815.203 771.428L816.08 771.909ZM817.217 783.262L817.145 782.265L817.145 782.265L817.217 783.262ZM818.873 780.393L817.964 780.81L817.969 780.82L817.973 780.83L818.873 780.393ZM813.414 776.77L813.895 775.893L813.018 775.412L812.538 776.289L813.414 776.77ZM811.303 780.621L810.426 780.14L809.945 781.017L810.822 781.498L811.303 780.621ZM818.725 779.89C819.268 780.376 819.509 780.817 819.583 781.203C819.656 781.581 819.595 782.038 819.279 782.614L821.033 783.575C821.517 782.692 821.728 781.761 821.547 780.823C821.367 779.892 820.827 779.088 820.06 778.401L818.725 779.89ZM819.279 782.614C818.885 783.332 818.382 783.662 817.734 783.744L817.985 785.729C819.337 785.557 820.365 784.793 821.033 783.575L819.279 782.614ZM817.734 783.744C817.035 783.833 816.049 783.616 814.715 782.884L813.753 784.638C815.252 785.46 816.683 785.894 817.985 785.729L817.734 783.744ZM814.715 782.884L809.685 780.126L808.724 781.88L813.753 784.638L814.715 782.884ZM810.081 781.484L816.151 770.415L814.397 769.453L808.328 780.522L810.081 781.484ZM814.793 770.811L819.676 773.488L820.637 771.735L815.755 769.057L814.793 770.811ZM819.676 773.488C820.838 774.126 821.505 774.788 821.827 775.426L823.612 774.524C823.042 773.396 822 772.482 820.637 771.735L819.676 773.488ZM821.827 775.426C822.116 775.998 822.113 776.547 821.762 777.187L823.516 778.149C824.165 776.965 824.216 775.719 823.612 774.524L821.827 775.426ZM821.762 777.187C821.527 777.616 821.233 777.878 820.881 778.031L821.679 779.865C822.477 779.518 823.089 778.926 823.516 778.149L821.762 777.187ZM820.877 778.033C820.529 778.186 820.1 778.245 819.551 778.158L819.235 780.133C820.095 780.27 820.924 780.198 821.683 779.863L820.877 778.033ZM813.545 776.531L816.87 778.355L817.832 776.601L814.507 774.778L813.545 776.531ZM816.87 778.355C817.815 778.873 818.775 779.172 819.695 779.06L819.452 777.074C819.12 777.115 818.598 777.021 817.832 776.601L816.87 778.355ZM819.68 779.061C820.679 778.954 821.439 778.391 821.918 777.519L820.164 776.557C819.966 776.919 819.747 777.043 819.466 777.073L819.68 779.061ZM821.918 777.519C822.396 776.646 822.462 775.701 821.995 774.805L820.222 775.731C820.342 775.961 820.363 776.195 820.164 776.557L821.918 777.519ZM822.001 774.818C821.592 774.006 820.825 773.371 819.886 772.855L818.924 774.609C819.696 775.032 820.065 775.421 820.215 775.718L822.001 774.818ZM819.886 772.855L816.561 771.032L815.599 772.786L818.924 774.609L819.886 772.855ZM815.203 771.428L813.149 775.174L814.903 776.135L816.957 772.39L815.203 771.428ZM814.336 783.425C815.357 783.984 816.361 784.327 817.29 784.26L817.145 782.265C816.781 782.291 816.185 782.158 815.298 781.671L814.336 783.425ZM817.29 784.26C818.333 784.184 819.112 783.584 819.606 782.683L817.852 781.722C817.623 782.139 817.394 782.247 817.145 782.265L817.29 784.26ZM819.606 782.683C820.082 781.815 820.213 780.864 819.772 779.956L817.973 780.83C818.063 781.015 818.099 781.271 817.852 781.722L819.606 782.683ZM819.781 779.975C819.389 779.121 818.561 778.452 817.557 777.901L816.595 779.655C817.471 780.135 817.841 780.542 817.964 780.81L819.781 779.975ZM817.557 777.901L813.895 775.893L812.934 777.647L816.595 779.655L817.557 777.901ZM812.538 776.289L810.426 780.14L812.179 781.102L814.291 777.251L812.538 776.289ZM810.822 781.498L814.336 783.425L815.298 781.671L811.783 779.744L810.822 781.498ZM828.077 776.955L828.558 776.078L827.681 775.597L827.2 776.474L828.077 776.955ZM829.571 777.774L830.448 778.255L830.929 777.378L830.052 776.897L829.571 777.774ZM826.882 782.677L826.006 782.197L825.525 783.073L826.402 783.554L826.882 782.677ZM833.848 786.497L833.367 787.374L834.244 787.855L834.725 786.978L833.848 786.497ZM836.537 781.594L837.018 780.717L836.141 780.236L835.66 781.113L836.537 781.594ZM838.031 782.413L838.908 782.894L839.388 782.017L838.512 781.536L838.031 782.413ZM831.961 793.482L831.48 794.359L832.357 794.84L832.838 793.963L831.961 793.482ZM830.467 792.663L829.59 792.182L829.109 793.059L829.986 793.54L830.467 792.663ZM833.144 787.781L834.021 788.262L834.502 787.385L833.625 786.904L833.144 787.781ZM826.179 783.961L826.659 783.084L825.783 782.603L825.302 783.48L826.179 783.961ZM823.501 788.843L823.021 789.72L823.897 790.201L824.378 789.324L823.501 788.843ZM822.007 788.024L821.13 787.543L820.65 788.42L821.526 788.901L822.007 788.024ZM827.596 777.832L829.09 778.651L830.052 776.897L828.558 776.078L827.596 777.832ZM828.694 777.293L826.006 782.197L827.759 783.158L830.448 778.255L828.694 777.293ZM826.402 783.554L833.367 787.374L834.329 785.62L827.363 781.801L826.402 783.554ZM834.725 786.978L837.414 782.075L835.66 781.113L832.971 786.016L834.725 786.978ZM836.056 782.471L837.55 783.29L838.512 781.536L837.018 780.717L836.056 782.471ZM837.154 781.932L831.084 793.001L832.838 793.963L838.908 782.894L837.154 781.932ZM832.442 792.605L830.948 791.786L829.986 793.54L831.48 794.359L832.442 792.605ZM831.344 793.144L834.021 788.262L832.267 787.3L829.59 792.182L831.344 793.144ZM833.625 786.904L826.659 783.084L825.698 784.838L832.663 788.658L833.625 786.904ZM825.302 783.48L822.625 788.362L824.378 789.324L827.055 784.442L825.302 783.48ZM823.982 787.966L822.488 787.147L821.526 788.901L823.021 789.72L823.982 787.966ZM822.884 788.505L828.954 777.436L827.2 776.474L821.13 787.543L822.884 788.505ZM838.226 796.124L837.372 796.645L837.379 796.656L838.226 796.124ZM837.313 792.996L836.314 793.015L836.314 793.015L837.313 792.996ZM840.498 787.188L839.977 786.334L839.977 786.334L840.498 787.188ZM849.381 789.458L848.534 789.99L848.534 789.99L849.381 789.458ZM850.284 792.554L849.284 792.561L849.284 792.573L850.284 792.554ZM847.099 798.362L846.577 797.508L846.567 797.515L847.099 798.362ZM843.992 799.286L843.999 800.286L844.011 800.286L843.992 799.286ZM843.836 797.722L843.851 798.722L843.859 798.722L843.836 797.722ZM846.152 796.994L846.7 797.83L846.7 797.83L846.152 796.994ZM848.621 792.491L849.621 792.503L849.621 792.503L848.621 792.491ZM847.979 790.168L847.119 790.678L847.126 790.689L847.133 790.701L847.979 790.168ZM843.749 787.848L843.764 788.848L843.772 788.848L843.749 787.848ZM841.445 788.556L840.911 787.71L840.904 787.715L840.897 787.719L841.445 788.556ZM838.976 793.059L837.976 793.046L837.976 793.054L837.976 793.063L838.976 793.059ZM839.606 795.403L838.746 795.913L838.753 795.925L838.76 795.936L839.606 795.403ZM841.197 797.543C840.267 797.033 839.568 796.381 839.073 795.592L837.379 796.656C838.072 797.759 839.033 798.638 840.236 799.297L841.197 797.543ZM839.079 795.603C838.585 794.794 838.331 793.924 838.313 792.977L836.314 793.015C836.339 794.318 836.693 795.533 837.372 796.645L839.079 795.603ZM838.313 792.977C838.295 792.042 838.53 791.111 839.046 790.169L837.292 789.207C836.624 790.426 836.288 791.699 836.314 793.015L838.313 792.977ZM839.046 790.169C839.563 789.227 840.222 788.528 841.02 788.041L839.977 786.334C838.854 787.02 837.961 787.989 837.292 789.207L839.046 790.169ZM841.02 788.041C841.826 787.549 842.687 787.303 843.622 787.296L843.608 785.297C842.308 785.305 841.091 785.654 839.977 786.334L841.02 788.041ZM843.622 787.296C844.554 787.29 845.479 787.529 846.409 788.039L847.371 786.285C846.169 785.626 844.91 785.288 843.608 785.297L843.622 787.296ZM846.409 788.039C847.34 788.549 848.038 789.201 848.534 789.99L850.228 788.927C849.535 787.823 848.573 786.944 847.371 786.285L846.409 788.039ZM848.534 789.99C849.029 790.779 849.277 791.629 849.284 792.561L851.284 792.547C851.275 791.244 850.921 790.03 850.228 788.927L848.534 789.99ZM849.284 792.573C849.302 793.507 849.067 794.439 848.551 795.381L850.304 796.343C850.973 795.124 851.309 793.85 851.283 792.534L849.284 792.573ZM848.551 795.381C848.034 796.323 847.375 797.021 846.577 797.508L847.62 799.215C848.743 798.529 849.636 797.561 850.304 796.343L848.551 795.381ZM846.567 797.515C845.776 798.012 844.917 798.268 843.972 798.286L844.011 800.286C845.316 800.26 846.529 799.9 847.63 799.209L846.567 797.515ZM843.985 798.286C843.053 798.292 842.128 798.054 841.197 797.543L840.236 799.297C841.438 799.956 842.696 800.295 843.999 800.286L843.985 798.286ZM840.963 797.971C841.883 798.476 842.851 798.737 843.851 798.722L843.821 796.723C843.203 796.732 842.575 796.574 841.924 796.218L840.963 797.971ZM843.859 798.722C844.882 798.699 845.835 798.397 846.7 797.83L845.603 796.158C845.044 796.525 844.453 796.708 843.814 796.723L843.859 798.722ZM846.7 797.83C847.566 797.263 848.259 796.479 848.789 795.512L847.036 794.55C846.643 795.267 846.162 795.791 845.603 796.158L846.7 797.83ZM848.789 795.512C849.32 794.545 849.608 793.539 849.621 792.503L847.621 792.478C847.613 793.146 847.429 793.833 847.036 794.55L848.789 795.512ZM849.621 792.503C849.634 791.466 849.371 790.501 848.825 789.635L847.133 790.701C847.465 791.229 847.63 791.812 847.621 792.478L849.621 792.503ZM848.839 789.657C848.322 788.786 847.583 788.098 846.655 787.59L845.694 789.343C846.338 789.697 846.802 790.143 847.119 790.678L848.839 789.657ZM846.655 787.59C845.728 787.081 844.747 786.826 843.727 786.849L843.772 788.848C844.414 788.834 845.05 788.99 845.694 789.343L846.655 787.59ZM843.734 786.848C842.729 786.864 841.783 787.159 840.911 787.71L841.98 789.401C842.56 789.034 843.15 788.857 843.764 788.848L843.734 786.848ZM840.897 787.719C840.031 788.287 839.338 789.071 838.808 790.038L840.561 791C840.954 790.283 841.435 789.758 841.994 789.392L840.897 787.719ZM838.808 790.038C838.277 791.005 837.989 792.011 837.976 793.046L839.976 793.072C839.984 792.404 840.168 791.716 840.561 791L838.808 790.038ZM837.976 793.063C837.98 794.091 838.233 795.049 838.746 795.913L840.466 794.893C840.145 794.351 839.978 793.746 839.976 793.055L837.976 793.063ZM838.76 795.936C839.298 796.789 840.041 797.466 840.963 797.971L841.924 796.218C841.274 795.861 840.793 795.411 840.453 794.87L838.76 795.936ZM862.047 803.384L861.566 804.261L862.404 804.72L862.901 803.904L862.047 803.384ZM852.788 798.307L853.269 797.43L852.325 796.912L851.878 797.891L852.788 798.307ZM852.579 801.832L851.636 802.165L851.639 802.174L852.579 801.832ZM857.122 805.227L857.014 806.221L857.024 806.222L857.034 806.223L857.122 805.227ZM859.216 804.952L860.194 804.74L859.951 803.624L858.877 804.011L859.216 804.952ZM859.527 806.382L859.893 807.312L860.685 807.001L860.504 806.169L859.527 806.382ZM856.937 806.713L857.045 805.719L857.038 805.718L856.937 806.713ZM851.625 803.472L850.775 803.999L850.78 804.007L850.786 804.015L851.625 803.472ZM850.692 800.332L849.692 800.351L849.692 800.351L850.692 800.332ZM853.835 794.501L853.303 793.654L853.292 793.661L853.835 794.501ZM856.867 793.564L856.846 792.564L856.838 792.564L856.867 793.564ZM863.22 799.648L862.22 799.642L862.22 799.649L863.22 799.648ZM862.322 802.933L863.176 803.453L863.188 803.433L863.199 803.413L862.322 802.933ZM856.074 795.209L856.325 796.177L856.325 796.177L856.074 795.209ZM853.399 797.191L852.569 796.634L851.96 797.542L852.919 798.068L853.399 797.191ZM861.249 801.496L860.768 802.372L861.727 802.898L862.165 801.896L861.249 801.496ZM861.461 798.163L860.507 798.462L860.51 798.472L860.513 798.481L861.461 798.163ZM862.528 802.507L853.269 797.43L852.307 799.183L861.566 804.261L862.528 802.507ZM851.878 797.891C851.233 799.304 851.135 800.747 851.636 802.165L853.522 801.499C853.208 800.609 853.25 799.702 853.697 798.722L851.878 797.891ZM851.639 802.174C852.149 803.576 853.151 804.655 854.551 805.423L855.513 803.669C854.472 803.098 853.838 802.369 853.519 801.49L851.639 802.174ZM854.551 805.423C855.342 805.857 856.164 806.129 857.014 806.221L857.231 804.233C856.668 804.172 856.097 803.99 855.513 803.669L854.551 805.423ZM857.034 806.223C857.895 806.299 858.738 806.188 859.556 805.893L858.877 804.011C858.329 804.209 857.777 804.281 857.21 804.231L857.034 806.223ZM858.239 805.165L858.55 806.594L860.504 806.169L860.194 804.74L858.239 805.165ZM859.162 805.451C858.505 805.709 857.805 805.801 857.045 805.719L856.829 807.707C857.894 807.823 858.921 807.694 859.893 807.312L859.162 805.451ZM857.038 805.718C856.287 805.642 855.524 805.4 854.744 804.972L853.782 806.726C854.77 807.267 855.789 807.601 856.836 807.708L857.038 805.718ZM854.744 804.972C853.734 804.418 852.986 803.733 852.465 802.928L850.786 804.015C851.509 805.133 852.52 806.033 853.782 806.726L854.744 804.972ZM852.475 802.945C851.968 802.127 851.71 801.256 851.692 800.313L849.692 800.351C849.717 801.659 850.081 802.88 850.775 803.999L852.475 802.945ZM851.692 800.313C851.673 799.379 851.908 798.447 852.424 797.505L850.671 796.543C850.003 797.762 849.666 799.036 849.692 800.351L851.692 800.313ZM852.424 797.505C852.946 796.554 853.599 795.843 854.377 795.341L853.292 793.661C852.205 794.363 851.334 795.334 850.671 796.543L852.424 797.505ZM854.366 795.348C855.168 794.845 856.006 794.589 856.895 794.563L856.838 792.564C855.578 792.6 854.394 792.969 853.303 793.654L854.366 795.348ZM856.888 794.563C857.79 794.544 858.674 794.765 859.556 795.248L860.518 793.494C859.351 792.855 858.123 792.537 856.846 792.564L856.888 794.563ZM859.556 795.248C860.438 795.732 861.09 796.354 861.543 797.112L863.26 796.085C862.608 794.996 861.684 794.134 860.518 793.494L859.556 795.248ZM861.543 797.112C861.998 797.873 862.225 798.709 862.22 799.642L864.22 799.653C864.227 798.367 863.909 797.17 863.26 796.085L861.543 797.112ZM862.22 799.649C862.221 800.554 861.976 801.484 861.445 802.452L863.199 803.413C863.868 802.192 864.222 800.933 864.22 799.646L862.22 799.649ZM861.468 802.412L861.193 802.864L862.901 803.904L863.176 803.453L861.468 802.412ZM859.814 794.778C858.54 794.079 857.193 793.885 855.823 794.241L856.325 796.177C857.168 795.958 857.994 796.061 858.852 796.532L859.814 794.778ZM855.823 794.241C854.473 794.591 853.386 795.416 852.569 796.634L854.23 797.748C854.809 796.885 855.505 796.389 856.325 796.177L855.823 794.241ZM852.919 798.068L860.768 802.372L861.73 800.619L853.88 796.314L852.919 798.068ZM862.165 801.896C862.755 800.547 862.857 799.179 862.409 797.845L860.513 798.481C860.786 799.294 860.746 800.148 860.332 801.095L862.165 801.896ZM862.415 797.864C861.992 796.515 861.099 795.483 859.814 794.778L858.852 796.532C859.728 797.012 860.253 797.652 860.507 798.462L862.415 797.864ZM873.879 814.772L874.756 815.253L875.237 814.376L874.36 813.895L873.879 814.772ZM871.698 818.749L871.217 819.626L872.094 820.107L872.575 819.23L871.698 818.749ZM870.288 817.976L869.411 817.495L868.931 818.372L869.807 818.853L870.288 817.976ZM871.754 815.303L872.631 815.784L873.111 814.907L872.235 814.427L871.754 815.303ZM861.842 809.868L862.323 808.991L861.446 808.511L860.965 809.387L861.842 809.868ZM860.377 812.541L859.896 813.418L860.773 813.898L861.253 813.022L860.377 812.541ZM858.967 811.768L858.09 811.287L857.609 812.164L858.486 812.644L858.967 811.768ZM861.148 807.79L861.629 806.914L860.752 806.433L860.271 807.31L861.148 807.79ZM861.779 808.137L861.298 809.013L861.323 809.027L861.349 809.039L861.779 808.137ZM864.194 807.326L864.926 808.007L864.926 808.007L864.194 807.326ZM867.165 803.207L868.016 803.732L868.022 803.722L867.165 803.207ZM869.343 799.584L869.824 798.707L868.981 798.245L868.486 799.069L869.343 799.584ZM877.508 804.061L878.385 804.542L878.866 803.665L877.989 803.185L877.508 804.061ZM872.154 813.826L871.277 813.345L870.796 814.222L871.673 814.702L872.154 813.826ZM868.486 804.041L867.635 803.516L867.632 803.522L868.486 804.041ZM865.952 807.715L866.721 808.354L866.722 808.352L865.952 807.715ZM863.757 809.221L863.616 808.231L860.646 808.656L863.276 810.098L863.757 809.221ZM870.659 813.006L870.179 813.883L871.055 814.364L871.536 813.487L870.659 813.006ZM875.287 804.568L876.164 805.049L876.645 804.172L875.768 803.691L875.287 804.568ZM869.963 801.648L870.444 800.771L869.611 800.315L869.112 801.123L869.963 801.648ZM873.002 814.291L870.821 818.268L872.575 819.23L874.756 815.253L873.002 814.291ZM872.179 817.872L870.769 817.099L869.807 818.853L871.217 819.626L872.179 817.872ZM871.165 818.457L872.631 815.784L870.877 814.823L869.411 817.495L871.165 818.457ZM872.235 814.427L862.323 808.991L861.361 810.745L871.273 816.18L872.235 814.427ZM860.965 809.387L859.5 812.06L861.253 813.022L862.719 810.349L860.965 809.387ZM860.857 811.664L859.448 810.891L858.486 812.644L859.896 813.418L860.857 811.664ZM859.844 812.248L862.025 808.271L860.271 807.31L858.09 811.287L859.844 812.248ZM860.667 808.667L861.298 809.013L862.26 807.26L861.629 806.914L860.667 808.667ZM861.349 809.039C861.966 809.334 862.627 809.374 863.276 809.156C863.892 808.949 864.439 808.53 864.926 808.007L863.462 806.645C863.106 807.028 862.828 807.197 862.64 807.26C862.483 807.313 862.359 807.305 862.21 807.234L861.349 809.039ZM864.926 808.007C865.835 807.031 866.866 805.594 868.016 803.732L866.314 802.681C865.19 804.5 864.24 805.809 863.462 806.645L864.926 808.007ZM868.022 803.722L870.2 800.099L868.486 799.069L866.308 802.692L868.022 803.722ZM868.862 800.461L877.027 804.938L877.989 803.185L869.824 798.707L868.862 800.461ZM876.631 803.581L871.277 813.345L873.03 814.306L878.385 804.542L876.631 803.581ZM871.673 814.702L873.398 815.649L874.36 813.895L872.634 812.949L871.673 814.702ZM867.632 803.522C866.714 805.032 865.897 806.212 865.181 807.078L866.722 808.352C867.522 807.385 868.395 806.116 869.341 804.561L867.632 803.522ZM865.183 807.076C864.497 807.9 863.969 808.181 863.616 808.231L863.899 810.211C864.971 810.058 865.906 809.334 866.721 808.354L865.183 807.076ZM863.276 810.098L870.179 813.883L871.14 812.13L864.238 808.344L863.276 810.098ZM871.536 813.487L876.164 805.049L874.41 804.087L869.783 812.525L871.536 813.487ZM875.768 803.691L870.444 800.771L869.482 802.525L874.806 805.445L875.768 803.691ZM869.112 801.123L867.635 803.516L869.337 804.566L870.814 802.173L869.112 801.123ZM878.094 817.986L877.247 818.518L877.25 818.524L878.094 817.986ZM877.17 814.879L876.17 814.892L876.17 814.899L877.17 814.879ZM880.366 809.05L879.845 808.197L879.845 808.197L880.366 809.05ZM883.483 808.159L883.483 807.159L883.476 807.159L883.483 808.159ZM889.056 811.023L888.229 811.586L888.236 811.596L888.242 811.605L889.056 811.023ZM889.956 813.625L890.051 814.62L890.997 814.53L890.955 813.58L889.956 813.625ZM888.425 813.771L887.429 813.857L887.516 814.862L888.52 814.766L888.425 813.771ZM887.706 811.788L886.883 812.358L886.889 812.366L886.895 812.374L887.706 811.788ZM883.638 809.722L883.644 810.722L883.651 810.722L883.638 809.722ZM881.313 810.418L880.779 809.573L880.772 809.577L880.765 809.582L881.313 810.418ZM878.832 814.942L877.832 814.93L877.832 814.942L877.832 814.955L878.832 814.942ZM879.495 817.277L878.64 817.796L878.647 817.807L878.654 817.818L879.495 817.277ZM883.424 819.596L883.482 818.597L883.482 818.597L883.424 819.596ZM885.483 819.137L886.373 818.682L885.914 817.783L885.02 818.25L885.483 819.137ZM886.182 820.506L886.682 821.372L887.506 820.897L887.073 820.051L886.182 820.506ZM883.494 821.166L883.441 822.165L883.448 822.165L883.456 822.166L883.494 821.166ZM881.128 819.44C880.166 818.913 879.446 818.247 878.937 817.449L877.25 818.524C877.958 819.634 878.94 820.522 880.167 821.194L881.128 819.44ZM878.94 817.454C878.444 816.663 878.188 815.805 878.169 814.86L876.17 814.899C876.195 816.204 876.555 817.417 877.247 818.518L878.94 817.454ZM878.17 814.867C878.158 813.914 878.397 812.973 878.914 812.031L877.16 811.069C876.492 812.288 876.153 813.566 876.17 814.892L878.17 814.867ZM878.914 812.031C879.431 811.089 880.09 810.391 880.887 809.904L879.845 808.197C878.722 808.883 877.828 809.851 877.16 811.069L878.914 812.031ZM880.887 809.904C881.694 809.411 882.555 809.165 883.49 809.159L883.476 807.159C882.175 807.168 880.959 807.516 879.845 808.197L880.887 809.904ZM883.483 809.159C884.429 809.159 885.378 809.408 886.34 809.936L887.302 808.182C886.076 807.51 884.799 807.159 883.483 807.159L883.483 809.159ZM886.34 809.936C887.176 810.394 887.794 810.948 888.229 811.586L889.882 810.46C889.246 809.526 888.374 808.77 887.302 808.182L886.34 809.936ZM888.242 811.605C888.688 812.228 888.923 812.909 888.957 813.669L890.955 813.58C890.904 812.432 890.539 811.379 889.869 810.442L888.242 811.605ZM889.861 812.629L888.33 812.775L888.52 814.766L890.051 814.62L889.861 812.629ZM889.421 813.684C889.342 812.768 889.043 811.932 888.516 811.203L886.895 812.374C887.198 812.793 887.379 813.279 887.429 813.857L889.421 813.684ZM888.528 811.219C888.028 810.497 887.375 809.919 886.586 809.487L885.625 811.24C886.155 811.531 886.569 811.904 886.883 812.358L888.528 811.219ZM886.586 809.487C885.648 808.972 884.656 808.709 883.625 808.722L883.651 810.722C884.31 810.714 884.964 810.878 885.625 811.24L886.586 809.487ZM883.633 808.722C882.613 808.728 881.656 809.018 880.779 809.573L881.848 811.263C882.423 810.899 883.016 810.726 883.644 810.722L883.633 808.722ZM880.765 809.582C879.899 810.149 879.206 810.934 878.675 811.9L880.429 812.862C880.822 812.145 881.303 811.621 881.861 811.254L880.765 809.582ZM878.675 811.9C878.139 812.879 877.845 813.892 877.832 814.93L879.832 814.955C879.84 814.29 880.027 813.595 880.429 812.862L878.675 811.9ZM877.832 814.955C877.845 815.976 878.115 816.929 878.64 817.796L880.35 816.758C880.013 816.203 879.841 815.6 879.832 814.93L877.832 814.955ZM878.654 817.818C879.205 818.675 879.961 819.357 880.894 819.868L881.855 818.115C881.188 817.749 880.691 817.288 880.336 816.736L878.654 817.818ZM880.894 819.868C881.675 820.297 882.502 820.544 883.366 820.594L883.482 818.597C882.932 818.565 882.393 818.409 881.855 818.115L880.894 819.868ZM883.366 820.594C884.265 820.646 885.13 820.449 885.945 820.023L885.02 818.25C884.506 818.519 883.999 818.627 883.482 818.597L883.366 820.594ZM884.592 819.592L885.292 820.961L887.073 820.051L886.373 818.682L884.592 819.592ZM885.683 819.64C885.021 820.021 884.311 820.197 883.532 820.167L883.456 822.166C884.607 822.209 885.69 821.944 886.682 821.372L885.683 819.64ZM883.546 820.168C882.756 820.126 881.952 819.892 881.128 819.44L880.167 821.194C881.222 821.773 882.316 822.106 883.441 822.165L883.546 820.168ZM894.653 821.456L895.635 821.266L895.546 820.805L895.133 820.579L894.653 821.456ZM892.127 820.071L892.608 819.194L891.731 818.713L891.251 819.59L892.127 820.071ZM889.427 824.995L888.946 825.872L889.823 826.353L890.304 825.476L889.427 824.995ZM887.933 824.176L887.056 823.695L886.575 824.572L887.452 825.053L887.933 824.176ZM894.003 813.107L894.484 812.23L893.607 811.749L893.126 812.626L894.003 813.107ZM895.497 813.926L896.374 814.407L896.855 813.53L895.978 813.049L895.497 813.926ZM892.831 818.787L891.955 818.306L891.474 819.183L892.351 819.664L892.831 818.787ZM895.378 820.183L894.897 821.06L895.318 821.291L895.761 821.107L895.378 820.183ZM901.936 817.457L902.417 816.58L901.996 816.349L901.553 816.534L901.936 817.457ZM903.557 818.346L903.934 819.272L905.879 818.479L904.038 817.469L903.557 818.346ZM896.258 821.323L895.88 820.397L895.125 820.705L895.275 821.507L896.258 821.323ZM897.802 829.588L897.322 830.465L899.173 831.48L898.785 829.404L897.802 829.588ZM896.035 828.618L895.053 828.808L895.142 829.269L895.554 829.495L896.035 828.618ZM895.133 820.579L892.608 819.194L891.647 820.948L894.172 822.332L895.133 820.579ZM891.251 819.59L888.55 824.514L890.304 825.476L893.004 820.552L891.251 819.59ZM889.908 824.118L888.414 823.299L887.452 825.053L888.946 825.872L889.908 824.118ZM888.81 824.657L894.88 813.588L893.126 812.626L887.056 823.695L888.81 824.657ZM893.522 813.984L895.016 814.803L895.978 813.049L894.484 812.23L893.522 813.984ZM894.62 813.445L891.955 818.306L893.708 819.268L896.374 814.407L894.62 813.445ZM892.351 819.664L894.897 821.06L895.858 819.307L893.312 817.91L892.351 819.664ZM895.761 821.107L902.32 818.381L901.553 816.534L894.994 819.26L895.761 821.107ZM901.456 818.334L903.076 819.223L904.038 817.469L902.417 816.58L901.456 818.334ZM903.179 817.42L895.88 820.397L896.636 822.249L903.934 819.272L903.179 817.42ZM895.275 821.507L896.82 829.772L898.785 829.404L897.241 821.139L895.275 821.507ZM898.283 828.711L896.516 827.742L895.554 829.495L897.322 830.465L898.283 828.711ZM897.017 828.429L895.635 821.266L893.671 821.645L895.053 828.808L897.017 828.429Z" fill="white"/>
</svg>
