<svg width="1440" height="1024" viewBox="0 0 1440 1024" fill="none" xmlns="http://www.w3.org/2000/svg">
<g id="UK">
<rect width="1440" height="1024" fill="white"/>
<g id="UK_2">
<path id="&#208;&#146;&#208;&#181;&#208;&#187;&#208;&#184;&#208;&#186;&#208;&#190;&#208;&#177;&#209;&#128;&#208;&#184;&#209;&#130;&#208;&#176;&#208;&#189;&#208;&#184;&#209;&#143;" d="M535.091 878.145C526.765 879.863 509.233 883.739 505.707 885.505L525.541 912L551.252 901.696L565.944 885.505L591.655 881.825L627.65 912L648.219 881.825L676.868 866.37L701.11 885.505L742.982 881.825L776.039 872.994L824.522 881.825C839.949 884.524 871.536 890.51 874.475 892.865C877.413 895.22 907.042 880.599 921.489 872.994C928.345 867.106 943.086 853.711 947.2 847.235C951.314 840.758 945.486 838.648 942.058 838.403C937.405 838.648 926.778 838.992 921.489 838.403C914.878 837.667 903.859 830.307 903.859 827.363C903.859 825.008 911.694 815.097 915.612 810.436C917.571 807.738 921.489 800.28 921.489 792.037C921.489 783.794 935.201 795.471 942.058 802.34C946.955 796.207 957.484 783.205 960.423 780.261C964.096 776.581 975.849 742.727 975.849 737.575C975.849 733.454 969.972 715.251 967.034 706.664C953.811 699.305 926.19 685.615 921.489 689.737C915.612 694.889 903.859 697.097 894.309 697.833C886.669 698.421 882.8 692.681 881.821 689.737L903.859 651.466L894.309 610.988V584.493L874.475 567.566V538.127L839.214 516.048L831.134 468.946V435.827L820.849 399.029L789.262 379.893H776.039L748.859 367.382L789.262 354.134L776.039 330.583L795.138 309.976L820.849 301.144L849.498 262.138V227.547L781.916 211.356L731.963 217.244L756.205 195.165L748.859 187.805L765.02 176.765L795.138 154.686V129.663L718.74 112C709.435 122.058 688.916 143.647 681.276 149.534C673.636 155.422 664.87 167.198 661.442 172.35C645.77 173.576 612.664 178.385 605.612 187.805C596.797 199.58 605.612 212.092 605.612 217.244C605.612 221.365 615.897 225.83 621.039 227.547C615.897 241.285 605.612 270.086 605.612 275.385C605.612 282.009 598.266 295.257 598.266 301.144C598.266 307.032 605.612 324.695 605.612 330.583C605.612 335.293 620.304 343.34 627.65 346.775L614.427 367.382V387.253C611.244 394.858 605.025 410.068 605.612 410.068C606.2 410.068 611.734 415.956 614.427 418.9L627.65 392.405L634.996 361.494L648.219 346.775V361.494L661.442 367.382V387.253L673.195 410.068L634.996 435.827L621.039 442.451L634.996 478.513L648.219 462.322L656.299 478.513H673.195L701.11 468.946H726.821C724.127 472.38 717.565 481.016 712.863 488.081C708.162 495.146 710.904 509.669 712.863 516.048L718.74 544.751L742.982 549.902C739.309 556.036 730.935 569.627 726.821 574.926C722.707 580.224 728.535 583.512 731.963 584.493L718.74 591.117L712.863 624.971L701.11 619.084H661.442L634.996 591.117L621.039 602.892L634.996 624.971L621.039 651.466V661.77L648.219 651.466C643.811 662.261 634.996 685.027 634.996 689.737V706.664L565.944 727.271V749.35L575.494 769.958L591.655 759.654L634.996 769.958L661.442 797.189L706.252 792.037C698.906 801.604 683.626 820.74 681.276 820.74C678.337 820.74 625.446 810.436 621.039 810.436C617.513 810.436 604.388 817.305 598.266 820.74L575.494 855.33L551.252 861.954L535.091 878.145Z" stroke="black"/>
<path id="&#208;&#146;&#208;&#181;&#208;&#187;&#208;&#184;&#208;&#186;&#208;&#190;&#208;&#177;&#209;&#128;&#208;&#184;&#209;&#130;&#208;&#176;&#208;&#189;&#208;&#184;&#209;&#143; (&#208;&#161;.&#208;&#152;.)" d="M498.123 493.055L477.27 502.522L464 485.46V453.232L488.645 432.379L513.289 411.526L532.52 416.568L554.603 406.914C562.218 405.924 578.819 403.943 584.302 403.943C591.156 403.943 584.302 424.736 592.679 428.449C601.055 432.162 602.578 443.301 602.578 447.014C602.578 450.727 602.578 457.411 592.679 457.411C582.779 457.411 595.725 473.005 602.578 473.005C608.061 473.005 608.417 486.372 607.909 493.055C602.324 495.283 584.302 513.106 584.302 513.106L550.034 521.479L543.621 513.106L528.455 493.055L520.872 470.294L498.123 493.055Z" stroke="black"/>
<g id="Column Essex UK">
<path id="Rectangle 58" d="M911.395 665.554L930.352 675.033V714.844L911.395 705.475V665.554Z" fill="#FFC909"/>
<path id="Rectangle 59" d="M911.395 704.692L930.352 714.843V754.653L911.395 745.085V704.692Z" fill="#FFC909"/>
<path id="Rectangle 60" d="M911.395 665.554L930.352 655.865L949.309 665.554L930.352 675.244L911.395 665.554Z" fill="#FFEA30"/>
<path id="Rectangle 61" d="M930.352 715.254L948.836 705.475L949.309 665.554L930.352 675.282V715.254Z" fill="#FFE03D"/>
<path id="Rectangle 62" d="M930.352 754.654L948.366 745.086V704.692L930.352 714.844V754.654Z" fill="#FFE03D"/>
</g>
</g>
</g>
</svg>
