<svg width="1440" height="1024" viewBox="0 0 1440 1024" fill="none" xmlns="http://www.w3.org/2000/svg">
<path d="M0 0H1440V1024H0V0Z" fill="url(#paint0_linear_57_481)"/>
<path d="M1043.55 393.143C1158.38 363.254 1214.31 -13.8819 1440 59.4341L1440 1024L252 1024C252 1024 280 975.5 333.5 946.5C387 917.5 479.5 892.5 479.5 892.5C579.5 871 784.084 822.976 699 727.5C633.5 654 703.528 541.828 824.307 528.173C908.397 518.666 842.349 445.511 1043.55 393.143Z" fill="white"/>
<path d="M170.5 667.5C81.5405 746.023 170.5 760.5 0 964.566L0.00202194 0L1019.5 0L959 80C940 104.5 855.346 172.102 756.5 160.5C632.943 145.998 593.719 277.486 471 241.5C381.433 215.235 351 353 251 406.5C176.382 446.421 260 588.5 170.5 667.5Z" fill="white"/>
<path d="M1043.55 393.143C1158.38 363.254 1214.31 -13.8819 1440 59.4341L1440 1024L252 1024C252 1024 280 975.5 333.5 946.5C387 917.5 479.5 892.5 479.5 892.5C579.5 871 784.084 822.976 699 727.5C633.5 654 703.528 541.828 824.307 528.173C908.397 518.666 842.349 445.511 1043.55 393.143Z" fill="url(#paint1_linear_57_481)"/>
<path d="M170.5 667.5C81.5405 746.023 170.5 760.5 0 964.566L0.00202194 0L1019.5 0L959 80C940 104.5 855.346 172.102 756.5 160.5C632.943 145.998 593.719 277.486 471 241.5C381.433 215.235 351 353 251 406.5C176.382 446.421 260 588.5 170.5 667.5Z" fill="url(#paint2_linear_57_481)"/>
<defs>
<linearGradient id="paint0_linear_57_481" x1="1440" y1="-1.00009" x2="-9.52831e-05" y2="1023" gradientUnits="userSpaceOnUse">
<stop stop-color="white"/>
<stop offset="0.0001" stop-color="#FF9029"/>
<stop offset="1" stop-color="#E92626"/>
</linearGradient>
<linearGradient id="paint1_linear_57_481" x1="1433.56" y1="1020.44" x2="-0.0255442" y2="753.429" gradientUnits="userSpaceOnUse">
<stop stop-color="#38A2DE" stop-opacity="0.5"/>
<stop offset="0.468287" stop-color="#3BC98E" stop-opacity="0.5"/>
<stop offset="1" stop-color="#E6EA3C" stop-opacity="0.5"/>
</linearGradient>
<linearGradient id="paint2_linear_57_481" x1="6.44368" y1="3.56236" x2="1440.02" y2="270.57" gradientUnits="userSpaceOnUse">
<stop stop-color="#38A2DE" stop-opacity="0.5"/>
<stop offset="0.468287" stop-color="#3BC98E" stop-opacity="0.5"/>
<stop offset="1" stop-color="#E6EA3C" stop-opacity="0.5"/>
</linearGradient>
</defs>
</svg>
