<svg width="764" height="884" viewBox="0 0 764 884" fill="none" xmlns="http://www.w3.org/2000/svg">
<g filter="url(#filter0_b_57_482)">
<path d="M255.55 735.403L261.146 741.585L255.55 744.675V749.891L239.918 760.901L232.005 766.696H214.251L207.496 772.877L201.706 781.762L190.899 796.443L182.408 803.783L186.653 816.339L190.899 821.554L178.355 829.28L166.776 848.597H153.267L142.845 859.993L137.635 867.333L89.195 859.993L82.4405 867.333L75.107 859.993L66.8085 867.333L63.1418 873.708L52.1415 864.243L48.4748 854.391V845.506L39.5974 833.53H21.4566L4.66675 829.28L1 826.19L4.66675 816.339L12.0003 792.193H4.66675L1 781.762L12.0003 766.696L21.4566 753.174L27.6322 738.494L30.334 728.643L36.5096 704.111L39.5974 695.226L36.5096 687.306L30.334 680.545L39.5974 675.909H48.4748L58.3171 669.149H66.8085L97.4934 680.545L116.213 687.306L134.547 691.556C137.956 692.779 145.316 695.226 147.477 695.226C149.638 695.226 163.045 701.149 169.478 704.111L182.408 687.306C183.823 679.386 186.653 662.581 186.653 658.718V630.516C186.653 628.353 179.32 612.23 175.653 604.439C170.121 598.709 157.898 586.707 153.267 584.544C148.635 582.38 140.915 571.409 137.635 566.193L159.635 562.523H169.478L178.355 571.409L192.443 573.533L195.531 545.911L207.496 553.251C210.841 555.183 218.033 559.046 220.04 559.046C222.047 559.046 239.274 547.843 247.637 542.241L252.269 522.345L269.638 518.868L276.778 513.073C279.995 511.399 286.929 507.395 288.936 504.768C290.943 502.141 296.72 497.749 299.358 495.882L304.568 481.202V472.896L307.5 471.5L311 475L309 482.5L311 487.5L317 485.5L322 476.5L317.5 472.896V468.5L322.5 465.5L329.464 462.851L335.832 466.521L343.166 462.851L348.762 457.636L355.131 462.851H363.429V454.545L366.517 445.66V433.684L359.184 428.468V415.913C359.184 413.788 352.429 410.891 352.429 408.186C352.429 406.023 354.23 396.081 355.131 391.381L363.429 376.894L384.851 362.793L390.448 369.554L384.851 385.2L392.57 389.45V398.721L384.851 405.482V412.243H390.448C392.146 412.243 397.459 405.675 399.904 402.391C402.284 401.168 407.585 398.721 409.746 398.721C412.448 398.721 418.817 402.778 418.238 405.482C417.774 407.645 415.857 415.14 414.957 418.617L411.869 431.559L399.904 441.603L382.728 425.957L378.482 431.559C379.19 433.104 381.03 436.736 382.728 438.899C384.426 441.063 389.997 444.308 392.57 445.66L399.904 450.489L411.869 445.66L422.29 438.899L429.624 433.684L438.501 445.66L450.466 450.489L474.011 441.603L478.643 431.559L502.187 422.287L508.362 425.957L513.573 433.684L525.538 422.287L536.539 408.186V402.391C536.539 399.455 534.48 389.707 533.451 385.2C534.158 380.5 535.149 370.79 533.451 369.554C531.753 368.318 532.743 358.222 533.451 353.328L542.328 344.443H548.504L556.802 353.328L562.592 359.703L569.346 353.328L573.013 344.443L569.346 337.103V322.615L562.592 325.706L556.802 322.615L553.714 314.116L548.504 310.06L556.802 300.209L566.259 293.834L574.557 291.323L581.891 287.074H588.645H599.066H603.312V282.5V280.313L607.944 276.643L616.5 271.616L625.699 266.212L622.5 263.5L619.909 260.997L607.398 261.962L598 256.168L595.014 260.997L584.978 266.212L573.013 276.643L559.504 280.313L553.714 287.074L542.328 291.323L536.539 287.074L520.907 280.313L518.5 266.212L520.5 259L515 247L511.5 227.5L510 210.388H518.5L518 201.5L528.626 187.5L535.5 169.5L536.539 163L544 161.5L539.5 151V146L528.626 143.554H516.661L508.362 146.644V155.53L502.187 158.234L498.906 170.597L508.362 181.607L498.906 188.368V196.867L490.029 202.082L482.888 210.388L474.011 218.694V233.374L468.221 240.715V252.111L465.519 266.212L468.221 280.313L478.643 283.983L486.555 291.323L490.029 293.834L493.695 300.209L486.555 310.06L490.029 316.821L482.888 325.706H471.309L465.519 344.443L471.309 362.793V376.894L468.221 389.45L452.589 396.597L447.379 398.721L443.133 402.391V412.243C440.431 414.368 434.487 418.617 432.326 418.617C430.164 418.617 426.793 416.814 425.378 415.913L422.29 408.186L418.238 396.597L414.957 376.894L409.746 362.793L399.904 344.443V329.956L390.448 322.615L384.851 314.116L382.728 325.706L372.886 337.103L359.184 344.443L343.166 350.238L331.587 341.932L319.621 333.432L326.376 325.706C325.733 322.551 324.33 315.623 323.867 313.15C323.404 310.678 320.844 294.736 319.621 287.074V266.212V252.111L335.832 233.374L352.429 226.034L364.973 212.899L387.36 189.913L409.746 155.53L414.957 132.544L425.378 116.897L429.624 100.672C429.238 98.0963 427.848 92.9453 425.378 92.9453C422.908 92.9453 415.343 95.7783 411.869 97.1949L414.957 87.7299L425.378 69.3795L432.326 64.7436H438.501L447.379 55.8581L452.589 44.8479L474.011 30.3607L490.029 18.3846L513.573 5.24957L533.451 1L553.714 5.24957C555.773 6.40855 559.272 9.69231 556.802 13.5556C554.332 17.4188 550.241 21.8615 548.504 23.6C546.896 25.2741 557.67 20.3935 564 18.3846C570.33 16.3757 564.007 23.6 566.259 23.6L559.504 38.0872C556.867 40.9202 551.5 52.4911 551.5 54.5C551.5 56.5089 550.029 60.5382 549 63.5L553.714 71.5H561L572.651 83.3282L567.409 102C570.175 105.155 574.557 110.446 574.557 111.682C574.557 112.918 581.505 121.211 584.978 125.203V136.793L588.645 146.644C590.768 148.705 595.014 153.367 595.014 155.53C595.014 157.693 597.715 163.385 599.066 165.961L603.312 175.812L616.821 185.277L622.997 196.867L616.821 218.694L598 256.168L604 259.599L607.398 261.962L619.909 260.997L622.5 263.5L625.699 266.212L616.5 271.616L607.944 276.643L603.312 280.313V282.5V287.074V310.06L610.067 319.332L612.189 333.432L622.804 344.443C622.739 348.499 623.228 357.23 625.699 359.703C628.169 362.175 641.266 367.3 647.506 369.554C648.793 368.781 651.983 367.159 654.454 366.85C656.924 366.541 664.489 364.017 667.963 362.793L676.261 376.894V391.381L699.227 398.721L713.315 408.186L705.402 422.287H699.227V433.684L716.5 444.5L721.5 437L726.824 433.684L740.912 431.559L750.368 438.899V450.489H763.298H766V573.533H753.456L740.912 580.874L736.666 584.544V597.099L726.824 613.711L728.368 628.391C725.601 631.096 720.069 637.161 720.069 639.788V658.718V669.149L713.315 680.545V691.556L720.069 704.111V707.781H709.648L701.735 710.292L696.525 718.212L699.227 728.643L696.525 738.494V741.585L688.805 744.675L672.015 741.585L663.138 744.675L654.454 753.174V756.844L660.05 763.991L663.138 766.696L660.05 772.877H647.506L632.453 760.901V772.877L638.629 781.762C640.366 785.432 644.573 793.507 647.506 796.443C650.439 799.379 662.366 806.68 667.963 809.964L680.893 826.19L676.261 833.53L663.138 829.28V839.132L654.454 845.506L660.05 859.993L647.506 864.243L632.453 854.391L619.909 842.415L599.066 839.132V816.339L588.645 799.533L581.891 792.193C577.709 788.716 569.346 781.144 569.346 778.672C569.346 775.581 562.592 763.798 562.592 756.844C562.592 749.891 565.68 741.585 562.592 741.585C560.122 741.585 544.194 732.957 536.539 728.643L513.573 714.928L493.695 704.111L474.011 687.306V675.909L468.221 669.149H459.923C459.537 674.493 458.147 684.254 455.677 680.545C453.207 676.837 451.174 671.402 450.466 669.149L447.379 663.354L452.589 658.718L447.379 655.048L432.326 658.718L427.115 667.024V675.909V691.556L438.501 707.781L452.589 714.928L460.888 731.154L471.309 741.585C473.947 740.876 479.955 740.503 482.888 744.675C485.822 748.848 496.976 749.891 502.187 749.891V760.901C508.427 761.03 520.907 761.828 520.907 763.991C520.907 766.155 535.188 770.817 542.328 772.877L553.714 788.137L548.504 796.443L533.451 781.762H520.907L513.573 799.533L525.538 809.964V826.19L516.661 839.132L508.362 848.597C504.374 846.536 496.397 843.034 496.397 845.506C496.397 847.978 494.982 854.134 494.274 856.903L493.695 864.243L496.397 878.344C495.432 880.018 492.808 883.289 490.029 882.979C487.25 882.67 476.391 879.76 471.309 878.344L460.888 873.708L452.589 867.333L438.501 859.993C436.957 858.126 434.796 854.391 438.501 854.391C443.133 854.391 445.256 848.597 452.589 848.597H468.221C470.691 848.597 483.789 844.476 490.029 842.415L502.187 839.132L508.362 826.19C506.304 822.842 502.187 814.909 502.187 809.964C502.187 805.019 494.081 798.889 490.029 796.443L474.011 781.762C469.315 782.793 459.923 784.235 459.923 781.762C459.923 779.29 448.73 770.688 443.133 766.696C439.466 766.116 431.631 764.146 429.624 760.901C427.115 756.844 426.343 756.458 422.29 753.174C418.238 749.891 418.045 747.766 414.957 744.675C412.487 742.203 408.009 737.464 406.079 735.403C404.021 734.888 399.171 732.815 396.237 728.643C392.57 723.427 394.693 721.496 392.57 718.212C390.448 714.928 384.851 712.803 384.851 710.292C384.851 708.283 376.874 699.411 372.886 695.226H364.973L348.762 698.316L343.166 707.781L335.832 710.292L323.867 718.212L319.621 724.973H311.323L306.498 722.848L291.445 717.053L283.147 714.928H276.778L261.146 717.053L255.55 724.973V735.403Z" fill="#326D3B" fill-opacity="0.5"/>
<path d="M603.312 287.074H599.066H588.645H581.891L574.557 291.323L566.259 293.834L556.802 300.209L548.504 310.06L553.714 314.116L556.802 322.615L562.592 325.706L569.346 322.615V337.103L573.013 344.443L569.346 353.328L562.592 359.703L556.802 353.328L548.504 344.443H542.328L533.451 353.328C532.743 358.222 531.753 368.318 533.451 369.554C535.149 370.79 534.158 380.5 533.451 385.2C534.48 389.707 536.539 399.455 536.539 402.391C536.539 405.328 536.539 407.478 536.539 408.186L525.538 422.287L513.573 433.684L508.362 425.957L502.187 422.287L478.643 431.559L474.011 441.603L450.466 450.489L438.501 445.66L429.624 433.684L422.29 438.899L411.869 445.66L399.904 450.489L392.57 445.66C389.997 444.308 384.426 441.063 382.728 438.899C381.03 436.736 379.19 433.104 378.482 431.559L382.728 425.957L399.904 441.603L411.869 431.559L414.957 418.617C415.857 415.14 417.774 407.645 418.238 405.482C418.817 402.778 412.448 398.721 409.746 398.721C407.585 398.721 402.284 401.168 399.904 402.391C397.459 405.675 392.146 412.243 390.448 412.243C388.749 412.243 386.009 412.243 384.851 412.243V405.482L392.57 398.721V389.45L384.851 385.2L390.448 369.554L384.851 362.793L363.429 376.894L355.131 391.381C354.23 396.081 352.429 406.023 352.429 408.186C352.429 410.891 359.184 413.788 359.184 415.913C359.184 417.613 359.184 424.991 359.184 428.468L366.517 433.684V445.66L363.429 454.545V462.851H355.131L348.762 457.636L343.166 462.851L335.832 466.521L329.464 462.851L322.5 465.5L317.5 468.5V472.896L322 476.5L317 485.5L311 487.5L309 482.5L311 475L307.5 471.5L304.568 472.896V481.202L299.358 495.882C296.72 497.749 290.943 502.141 288.936 504.768C286.929 507.395 279.995 511.399 276.778 513.073L269.638 518.868L252.269 522.345L247.637 542.241C239.274 547.843 222.047 559.046 220.04 559.046C218.033 559.046 210.841 555.183 207.496 553.251L195.531 545.911L192.443 573.533L178.355 571.409L169.478 562.523H159.635L137.635 566.193C140.915 571.409 148.635 582.38 153.267 584.544C157.898 586.707 170.121 598.709 175.653 604.439C179.32 612.23 186.653 628.353 186.653 630.516C186.653 633.221 186.653 653.889 186.653 658.718C186.653 662.581 183.823 679.386 182.408 687.306L169.478 704.111C163.045 701.149 149.638 695.226 147.477 695.226C145.316 695.226 137.956 692.779 134.547 691.556L116.213 687.306L97.4934 680.545L66.8085 669.149H58.3171L48.4748 675.909H39.5974L30.334 680.545L36.5096 687.306L39.5974 695.226L36.5096 704.111L30.334 728.643L27.6322 738.494L21.4566 753.174L12.0003 766.696L1 781.762L4.66675 792.193H12.0003L4.66675 816.339L1 826.19L4.66675 829.28L21.4566 833.53H39.5974L48.4748 845.506V854.391L52.1415 864.243L63.1418 873.708L66.8085 867.333L75.107 859.993L82.4405 867.333L89.195 859.993L137.635 867.333L142.845 859.993L153.267 848.597H166.776L178.355 829.28L190.899 821.554L186.653 816.339L182.408 803.783L190.899 796.443L201.706 781.762L207.496 772.877L214.251 766.696H232.005L239.918 760.901L255.55 749.891V744.675L261.146 741.585L255.55 735.403V724.973L261.146 717.053L276.778 714.928H283.147L291.445 717.053L306.498 722.848L311.323 724.973H319.621L323.867 718.212L335.832 710.292L343.166 707.781L348.762 698.316L364.973 695.226H372.886C376.874 699.411 384.851 708.283 384.851 710.292C384.851 712.803 390.448 714.928 392.57 718.212C394.693 721.496 392.57 723.427 396.237 728.643C399.171 732.815 404.021 734.888 406.079 735.403C408.009 737.464 412.487 742.203 414.957 744.675C418.045 747.766 418.238 749.891 422.29 753.174C426.343 756.458 427.115 756.844 429.624 760.901C431.631 764.146 439.466 766.116 443.133 766.696C448.73 770.688 459.923 779.29 459.923 781.762C459.923 784.235 469.315 782.793 474.011 781.762L490.029 796.443C494.081 798.889 502.187 805.019 502.187 809.964C502.187 814.909 506.304 822.842 508.362 826.19L502.187 839.132L490.029 842.415C483.789 844.476 470.691 848.597 468.221 848.597C465.133 848.597 459.923 848.597 452.589 848.597C445.256 848.597 443.133 854.391 438.501 854.391C434.796 854.391 436.957 858.126 438.501 859.993L452.589 867.333L460.888 873.708L471.309 878.344C476.391 879.76 487.25 882.67 490.029 882.979C492.808 883.289 495.432 880.018 496.397 878.344L493.695 864.243L494.274 856.903C494.982 854.134 496.397 847.978 496.397 845.506C496.397 843.034 504.374 846.536 508.362 848.597L516.661 839.132L525.538 826.19V809.964L513.573 799.533L520.907 781.762H533.451L548.504 796.443L553.714 788.137L542.328 772.877C535.188 770.817 520.907 766.155 520.907 763.991C520.907 761.828 508.427 761.03 502.187 760.901V749.891C496.976 749.891 485.822 748.848 482.888 744.675C479.955 740.503 473.947 740.876 471.309 741.585L460.888 731.154L452.589 714.928L438.501 707.781L427.115 691.556V675.909V667.024L432.326 658.718L447.379 655.048L452.589 658.718L447.379 663.354L450.466 669.149C451.174 671.402 453.207 676.837 455.677 680.545C458.147 684.254 459.537 674.493 459.923 669.149H468.221L474.011 675.909V687.306L493.695 704.111L513.573 714.928L536.539 728.643C544.194 732.957 560.122 741.585 562.592 741.585C565.68 741.585 562.592 749.891 562.592 756.844C562.592 763.798 569.346 775.581 569.346 778.672C569.346 781.144 577.709 788.716 581.891 792.193L588.645 799.533L599.066 816.339V839.132L619.909 842.415L632.453 854.391L647.506 864.243L660.05 859.993L654.454 845.506L663.138 839.132V829.28L676.261 833.53L680.893 826.19L667.963 809.964C662.366 806.68 650.439 799.379 647.506 796.443C644.573 793.507 640.366 785.432 638.629 781.762L632.453 772.877V760.901L647.506 772.877H660.05L663.138 766.696L660.05 763.991L654.454 756.844V753.174L663.138 744.675L672.015 741.585L688.805 744.675L696.525 741.585V738.494L699.227 728.643L696.525 718.212L701.735 710.292L709.648 707.781H720.069V704.111L713.315 691.556V680.545L720.069 669.149V658.718C720.069 653.503 720.069 642.415 720.069 639.788C720.069 637.161 725.601 631.096 728.368 628.391L726.824 613.711L736.666 597.099V584.544L740.912 580.874L753.456 573.533H766V450.489H763.298H750.368V438.899L740.912 431.559L726.824 433.684L721.5 437L716.5 444.5L699.227 433.684V422.287H705.402L713.315 408.186L699.227 398.721L676.261 391.381V376.894L667.963 362.793C664.489 364.017 656.924 366.541 654.454 366.85C651.983 367.159 648.793 368.781 647.506 369.554C641.266 367.3 628.169 362.175 625.699 359.703C623.228 357.23 622.739 348.499 622.804 344.443L612.189 333.432L610.067 319.332L603.312 310.06V287.074ZM603.312 287.074V282.5V280.313L607.944 276.643M607.944 276.643L616.5 271.616L625.699 266.212M607.944 276.643L625.699 266.212M625.699 266.212L622.5 263.5L619.909 260.997L607.398 261.962M607.398 261.962C607.398 261.962 604.576 260 604 259.599L598 256.168M607.398 261.962L598 256.168M598 256.168L595.014 260.997L584.978 266.212L573.013 276.643L559.504 280.313L553.714 287.074L542.328 291.323L536.539 287.074L520.907 280.313L518.5 266.212L520.5 259L515 247L511.5 227.5L510 210.388H518.5L518 201.5L528.626 187.5L535.5 169.5L536.539 163L544 161.5L539.5 151V146L528.626 143.554H516.661L508.362 146.644V155.53L502.187 158.234L498.906 170.597L508.362 181.607L498.906 188.368V196.867L490.029 202.082L482.888 210.388L474.011 218.694V233.374L468.221 240.715V252.111L465.519 266.212L468.221 280.313L478.643 283.983L486.555 291.323L490.029 293.834L493.695 300.209L486.555 310.06L490.029 316.821L482.888 325.706H471.309L465.519 344.443L471.309 362.793V376.894L468.221 389.45L452.589 396.597L447.379 398.721L443.133 402.391V412.243C440.431 414.368 434.487 418.617 432.326 418.617C430.164 418.617 426.793 416.814 425.378 415.913L422.29 408.186L418.238 396.597L414.957 376.894L409.746 362.793L399.904 344.443V329.956L390.448 322.615L384.851 314.116L382.728 325.706L372.886 337.103L359.184 344.443L343.166 350.238L331.587 341.932L319.621 333.432L326.376 325.706C325.733 322.551 324.33 315.623 323.867 313.15C323.404 310.678 320.844 294.736 319.621 287.074V266.212V252.111L335.832 233.374L352.429 226.034L364.973 212.899L387.36 189.913L409.746 155.53L414.957 132.544L425.378 116.897L429.624 100.672C429.238 98.0963 427.848 92.9453 425.378 92.9453C422.908 92.9453 415.343 95.7783 411.869 97.1949L414.957 87.7299L425.378 69.3795L432.326 64.7436H438.501L447.379 55.8581L452.589 44.8479L474.011 30.3607L490.029 18.3846L513.573 5.24957L533.451 1L553.714 5.24957C555.773 6.40855 559.272 9.69231 556.802 13.5556C554.332 17.4188 550.241 21.8615 548.504 23.6C546.896 25.2741 557.67 20.3935 564 18.3846C570.33 16.3757 564.007 23.6 566.259 23.6L559.504 38.0872C556.867 40.9202 551.5 52.4911 551.5 54.5C551.5 56.5089 550.029 60.5382 549 63.5L553.714 71.5H561L572.651 83.3282L567.409 102C570.175 105.155 574.557 110.446 574.557 111.682C574.557 112.918 581.505 121.211 584.978 125.203V136.793L588.645 146.644C590.768 148.705 595.014 153.367 595.014 155.53C595.014 157.693 597.715 163.385 599.066 165.961L603.312 175.812L616.821 185.277L622.997 196.867L616.821 218.694L598 256.168Z" stroke="black"/>
</g>
<path d="M250.721 733.152H255.499V725L260.999 717L276.999 715H283.499L293.999 718L304.999 722.5L311.499 725H315.499H319.999L323 719.5L326.5 716L331 713.5L336 710L343 707.5L348.5 698.5L344.5 695.5L337.5 698.5L330 694.5V689.5L335.343 684L326 672.5H332.5L337.5 667.5L331.5 655.5L332.266 651.763L328.804 649.454L327.458 643.874L320.15 642.335H317.457V640.026V635.793L320.15 632.329L322.65 624.825H328.804L330.151 621.747L333.612 615.397H339.574L344.5 611.5V608V602L348 590.5L349 586.5L353.999 583V576.5L346 574L336 570L331.5 571.5L328 564.5L325.5 562L318.5 560L315.5 562L307.5 558.5L302.5 555C302.5 555 303.615 548.603 304 547H300.5L295.5 550.5L289.5 547L292 542.5L288.5 540.5H283.5V535.5L279.5 536.5L275 526.5L271 531L268 528L269 519L260.5 520.5L252.499 522.5L247.999 542C242.499 545.5 234.423 550.401 233.499 551.325C232.576 552.248 231.153 552.794 229.999 553.5L226.68 555.365L222.499 558L219.18 559.021C216.808 557.803 211.833 555.365 210.91 555.365C209.986 555.365 208.961 553.5 207.999 553.5L204.499 551.325L202.499 550L195.499 546L192.999 567.5L192.499 573.5L178.499 571.5L170.999 564L169.499 562.5H157.999L148.999 564C146.05 564.706 138.923 566 137.999 566C137.076 566 139.396 568.755 140.998 571L143.499 574.5L145.499 577C145.819 578.154 146.53 578.205 147.443 579.5C148.499 581 148.999 581 149.999 582L162.999 592L175.499 604.5L178.999 612L182.999 621L186.499 630V634V650V659.5L185.999 666L182.499 687L178.499 692.5L170.499 703L176.868 704.098L174.56 708.331H178.791L187.061 712.372L192.254 718.721L195.524 716.605L203.794 722.762H214.179L216.679 718.721L226.68 725.455V731.035L233.988 729.496L238.22 734.691L243.028 733.152L247.643 737L250.721 733.152Z" stroke="black"/>
<path d="M374.696 759L371.565 767L364.913 765L361 759V750.4V745.4C361 744.44 362.435 740.333 363.152 738.4L368.239 735L373.522 732.8L371.565 727.2L374.696 725C375.609 728.267 377.435 735.16 377.435 736.6C377.435 738.04 378.478 746.4 379 750.4L374.696 759Z" fill="#326D3B" fill-opacity="0.5" stroke="black"/>
<path d="M35.7941 818.902L36.5 833.5H30.5H22L18 832.5L13 831.516C11.7885 831.388 4.50014 829.5 4.50014 829.5L1 826.356L2.70045 821L4.5 816.5L6 812.213L8 805.5L12 791.956H9H6.9089H4.5L2.70045 786L1 782L3.5 778.5L6.9089 773.227L21.5 753L24.5 746L29 732.5L34.0725 714.364L35.7941 708.822H38.6635L42.4894 705L48.8021 706.147L51.2889 708.822L47.6543 712.453L50.3324 714.364H56.2625L63.9142 717.422L69.2704 714.364C68.8241 715.447 69.1939 717.575 74.2441 717.422C79.2942 717.269 80.1741 718.76 79.9829 719.525C79.4727 719.142 78.0699 719.104 76.5396 722.009C75.0092 724.914 75.9019 725.767 76.5396 725.831H81.5132L84 727.36L81.5132 730.227L76.5396 732.138L73.0963 735.196L71.3747 737.871H67.9314L65.062 738.827L67.9314 745.516C67.4213 748.191 66.1332 753.619 65.062 753.925C63.9907 754.23 63.8505 757.747 63.9142 759.467L60.8535 756.6L58.558 758.129L61.81 763.098L57.6016 770.933L48.8021 769.213L47.6543 770.933L50.3324 777.431L48.8021 785.076H52.6279C53.8395 786.159 56.0712 788.325 55.306 788.325C54.3496 788.325 49.3759 786.413 47.6543 792.911C45.9327 799.409 44.4023 793.676 44.7849 802.276C45.1675 810.876 51.2889 806.862 50.3324 809.92C49.5672 812.366 44.7849 812.468 42.4894 812.213L35.7941 818.902Z" stroke="black"/>
<g filter="url(#filter1_b_57_482)">
<path d="M50.6086 146.439C47.8562 145.819 47.0407 137.655 46.977 133.651L26.143 121.251C28.5004 120.023 32.7564 116.949 30.9215 114.469C28.6278 111.369 27.2898 105.556 26.143 102.069C25.2256 99.2788 28.9464 99.6147 30.9215 100.131C34.7442 102.133 42.8484 106.021 44.6833 105.556C46.977 104.975 46.977 101.294 42.3897 98C37.8024 94.7062 35.891 93.7374 30.9215 87.731C25.9519 81.7247 33.2151 76.1058 35.891 71.262C38.5669 66.4181 46.977 64.093 46.977 60.993C46.977 57.8929 53.2845 62.543 60.3566 68.1619C67.4287 73.7807 60.3566 74.1683 60.3566 79.9809C60.3566 85.7935 60.3566 93.7374 62.8414 95.675C65.3262 97.6125 68.3844 90.0561 68.3844 87.731C68.3844 85.406 76.9855 84.4372 80.9994 83.2747C85.0133 82.1122 87.1158 90.0561 93.4234 93.7374C99.7309 97.4188 103.363 95.675 104.127 93.7374C104.739 92.1874 112.027 90.6374 115.595 90.0561C118.462 91.9291 124.693 96.14 126.681 98C129.166 100.325 123.814 105.944 122.285 109.238C120.756 112.532 126.681 116.794 130.504 121.251C133.562 124.816 133.18 127.774 132.607 128.807C131.014 132.811 127.599 141.285 126.681 143.145C125.764 145.005 114.448 148.699 108.905 150.314C100.495 151.541 83.1402 153.995 80.9994 153.995C78.3235 153.995 74.1185 156.708 68.3844 157.87C62.6502 159.033 60.7389 152.057 60.3566 150.314C59.9743 148.57 54.0491 147.214 50.6086 146.439Z" fill="#326D3B" fill-opacity="0.5"/>
<path d="M50.6086 146.439C47.8562 145.819 47.0407 137.655 46.977 133.651L26.143 121.251C28.5004 120.023 32.7564 116.949 30.9215 114.469C28.6278 111.369 27.2898 105.556 26.143 102.069C25.2256 99.2788 28.9464 99.6147 30.9215 100.131C34.7442 102.133 42.8484 106.021 44.6833 105.556C46.977 104.975 46.977 101.294 42.3897 98C37.8024 94.7062 35.891 93.7374 30.9215 87.731C25.9519 81.7247 33.2151 76.1058 35.891 71.262C38.5669 66.4181 46.977 64.093 46.977 60.993C46.977 57.8929 53.2845 62.543 60.3566 68.1619C67.4287 73.7807 60.3566 74.1683 60.3566 79.9809C60.3566 85.7935 60.3566 93.7374 62.8414 95.675C65.3262 97.6125 68.3844 90.0561 68.3844 87.731C68.3844 85.406 76.9855 84.4372 80.9994 83.2747C85.0133 82.1122 87.1158 90.0561 93.4234 93.7374C99.7309 97.4188 103.363 95.675 104.127 93.7374C104.739 92.1874 112.027 90.6374 115.595 90.0561C118.462 91.9291 124.693 96.14 126.681 98C129.166 100.325 123.814 105.944 122.285 109.238C120.756 112.532 126.681 116.794 130.504 121.251C133.562 124.816 133.18 127.774 132.607 128.807C131.014 132.811 127.599 141.285 126.681 143.145C125.764 145.005 114.448 148.699 108.905 150.314C100.495 151.541 83.1402 153.995 80.9994 153.995C78.3235 153.995 74.1185 156.708 68.3844 157.87C62.6502 159.033 60.7389 152.057 60.3566 150.314C59.9743 148.57 54.0491 147.214 50.6086 146.439Z" stroke="black"/>
</g>
<path d="M280.92 515.726L277.5 513L280.5 511.077L283 509.5L286 507.5L288 506C289.024 506 288.751 503.715 289.365 503.715C289.98 503.715 292.181 501.519 293.204 500.422L299.5 495.5L300.882 491.5L303 485.504L304.5 481V476.5V473L307.601 471.362L311 475L309 483L311 487.5L317 485.504L322 476.5L317.5 473V468.5L322.5 465.5L329.5 463L336.009 466.5L340.5 464.5L342 471.362V478.5L338.5 481.5L338 486.5H336.5C335.924 486.565 333.5 486.5 333.5 486.5L334.5 488L335 488.991L337 493L338 496L336.009 499.5L335 502.5L333.322 506L323.724 503.715L322.5 509L323.5 511.5C323.564 513.05 323.878 515.881 323.724 516.501C323.571 517.121 323.788 519.73 323.916 520.957L321.229 525L320.269 527L322 532H317.5L316 528.5L318 520L305.5 512.821H300.5L296.5 516.501L291.093 518.051H287.254L285.526 515.726H280.92Z" stroke="black"/>
<path d="M307 472L312 474.5V485L307 482.529V472Z" fill="#FFC909"/>
<path d="M307 482.323L312 485V495.5L307 492.977V482.323Z" fill="#FFC909"/>
<path d="M307 472L312 469.444L317 472L312 474.556L307 472Z" fill="#FFEA30"/>
<path d="M312 485.108L316.875 482.529L317 472L312 474.566V485.108Z" fill="#FFE03D"/>
<path d="M312 495.5L316.751 492.976V482.323L312 485V495.5Z" fill="#FFE03D"/>
<g filter="url(#filter2_b_57_482)">
<path d="M141.75 520.071C139.554 520.524 134.93 521.546 134 522.012L139.231 529L146.012 526.282L149.887 522.012L156.669 521.041L166.162 529L171.587 521.041L179.144 516.965L185.537 522.012L196.581 521.041L205.3 518.712L218.087 521.041C222.156 521.753 230.487 523.332 231.262 523.953C232.037 524.574 239.852 520.718 243.662 518.712C245.471 517.159 249.359 513.626 250.444 511.918C251.529 510.21 249.992 509.653 249.087 509.589C247.86 509.653 245.057 509.744 243.662 509.589C241.919 509.395 239.012 507.454 239.012 506.677C239.012 506.056 241.079 503.442 242.112 502.213C242.629 501.501 243.662 499.534 243.662 497.36C243.662 495.186 247.279 498.266 249.087 500.077C250.379 498.46 253.156 495.03 253.931 494.254C254.9 493.283 258 484.354 258 482.995C258 481.908 256.45 477.107 255.675 474.843C252.187 472.902 244.902 469.291 243.662 470.378C242.112 471.737 239.012 472.319 236.494 472.513C234.479 472.669 233.458 471.155 233.2 470.378L239.012 460.284L236.494 449.608V442.62L231.262 438.155V430.391L221.962 424.568L219.831 412.144V403.409L217.119 393.704L208.787 388.657H205.3L198.131 385.357L208.787 381.863L205.3 375.651L210.337 370.216L217.119 367.887L224.675 357.599V348.476L206.85 344.205L193.675 345.758L200.069 339.935L198.131 337.994L202.394 335.082L210.337 329.259V322.659L190.188 318C187.733 320.653 182.321 326.347 180.306 327.9C178.291 329.453 175.979 332.558 175.075 333.917C170.942 334.241 162.21 335.509 160.35 337.994C158.025 341.099 160.35 344.399 160.35 345.758C160.35 346.845 163.062 348.023 164.419 348.476C163.062 352.099 160.35 359.695 160.35 361.093C160.35 362.84 158.412 366.334 158.412 367.887C158.412 369.44 160.35 374.098 160.35 375.651C160.35 376.894 164.225 379.016 166.162 379.922L162.675 385.357V390.598C161.835 392.604 160.195 396.615 160.35 396.615C160.505 396.615 161.965 398.168 162.675 398.945L166.162 391.957L168.1 383.804L171.587 379.922V383.804L175.075 385.357V390.598L178.175 396.615L168.1 403.409L164.419 405.156L168.1 414.668L171.587 410.397L173.719 414.668H178.175L185.537 412.144H192.319C191.608 413.05 189.877 415.328 188.637 417.191C187.397 419.055 188.121 422.885 188.637 424.568L190.188 432.138L196.581 433.497C195.612 435.114 193.404 438.699 192.319 440.097C191.234 441.494 192.771 442.361 193.675 442.62L190.188 444.367L188.637 453.296L185.537 451.743H175.075L168.1 444.367L164.419 447.473L168.1 453.296L164.419 460.284V463.002L171.587 460.284C170.425 463.131 168.1 469.136 168.1 470.378V474.843L149.887 480.278V486.101L152.406 491.536L156.669 488.819L168.1 491.536L175.075 498.718L186.894 497.36C184.956 499.883 180.926 504.93 180.306 504.93C179.531 504.93 165.581 502.213 164.419 502.213C163.489 502.213 160.027 504.024 158.412 504.93L152.406 514.053L146.012 515.8L141.75 520.071Z" fill="#326D3B" fill-opacity="0.5"/>
<path d="M141.75 520.071C139.554 520.524 134.93 521.546 134 522.012L139.231 529L146.012 526.282L149.887 522.012L156.669 521.041L166.162 529L171.587 521.041L179.144 516.965L185.537 522.012L196.581 521.041L205.3 518.712L218.087 521.041C222.156 521.753 230.487 523.332 231.262 523.953C232.037 524.574 239.852 520.718 243.662 518.712C245.471 517.159 249.359 513.626 250.444 511.918C251.529 510.21 249.992 509.653 249.087 509.589C247.86 509.653 245.057 509.744 243.662 509.589C241.919 509.395 239.012 507.454 239.012 506.677C239.012 506.056 241.079 503.442 242.112 502.213C242.629 501.501 243.662 499.534 243.662 497.36C243.662 495.186 247.279 498.266 249.087 500.077C250.379 498.46 253.156 495.03 253.931 494.254C254.9 493.283 258 484.354 258 482.995C258 481.908 256.45 477.107 255.675 474.843C252.187 472.902 244.902 469.291 243.662 470.378C242.112 471.737 239.012 472.319 236.494 472.513C234.479 472.669 233.458 471.155 233.2 470.378L239.012 460.284L236.494 449.608V442.62L231.262 438.155V430.391L221.962 424.568L219.831 412.144V403.409L217.119 393.704L208.787 388.657H205.3L198.131 385.357L208.787 381.863L205.3 375.651L210.337 370.216L217.119 367.887L224.675 357.599V348.476L206.85 344.205L193.675 345.758L200.069 339.935L198.131 337.994L202.394 335.082L210.337 329.259V322.659L190.188 318C187.733 320.653 182.321 326.347 180.306 327.9C178.291 329.453 175.979 332.558 175.075 333.917C170.942 334.241 162.21 335.509 160.35 337.994C158.025 341.099 160.35 344.399 160.35 345.758C160.35 346.845 163.062 348.023 164.419 348.476C163.062 352.099 160.35 359.695 160.35 361.093C160.35 362.84 158.412 366.334 158.412 367.887C158.412 369.44 160.35 374.098 160.35 375.651C160.35 376.894 164.225 379.016 166.162 379.922L162.675 385.357V390.598C161.835 392.604 160.195 396.615 160.35 396.615C160.505 396.615 161.965 398.168 162.675 398.945L166.162 391.957L168.1 383.804L171.587 379.922V383.804L175.075 385.357V390.598L178.175 396.615L168.1 403.409L164.419 405.156L168.1 414.668L171.587 410.397L173.719 414.668H178.175L185.537 412.144H192.319C191.608 413.05 189.877 415.328 188.637 417.191C187.397 419.055 188.121 422.885 188.637 424.568L190.188 432.138L196.581 433.497C195.612 435.114 193.404 438.699 192.319 440.097C191.234 441.494 192.771 442.361 193.675 442.62L190.188 444.367L188.637 453.296L185.537 451.743H175.075L168.1 444.367L164.419 447.473L168.1 453.296L164.419 460.284V463.002L171.587 460.284C170.425 463.131 168.1 469.136 168.1 470.378V474.843L149.887 480.278V486.101L152.406 491.536L156.669 488.819L168.1 491.536L175.075 498.718L186.894 497.36C184.956 499.883 180.926 504.93 180.306 504.93C179.531 504.93 165.581 502.213 164.419 502.213C163.489 502.213 160.027 504.024 158.412 504.93L152.406 514.053L146.012 515.8L141.75 520.071Z" stroke="black"/>
</g>
<g filter="url(#filter3_b_57_482)">
<path d="M132 418.503L126.5 421L123 416.5V408L129.5 402.5L136 397L141.072 398.33L146.897 395.783C148.905 395.522 153.284 395 154.73 395C156.537 395 154.73 400.484 156.939 401.463C159.148 402.443 159.55 405.381 159.55 406.36C159.55 407.339 159.55 409.102 156.939 409.102C154.328 409.102 157.742 413.215 159.55 413.215C160.996 413.215 161.09 416.741 160.956 418.503C159.483 419.091 154.73 423.792 154.73 423.792L145.692 426L144 423.792L140 418.503L138 412.5L132 418.503Z" fill="#326D3B" fill-opacity="0.5"/>
<path d="M132 418.503L126.5 421L123 416.5V408L129.5 402.5L136 397L141.072 398.33L146.897 395.783C148.905 395.522 153.284 395 154.73 395C156.537 395 154.73 400.484 156.939 401.463C159.148 402.443 159.55 405.381 159.55 406.36C159.55 407.339 159.55 409.102 156.939 409.102C154.328 409.102 157.742 413.215 159.55 413.215C160.996 413.215 161.09 416.741 160.956 418.503C159.483 419.091 154.73 423.792 154.73 423.792L145.692 426L144 423.792L140 418.503L138 412.5L132 418.503Z" stroke="black"/>
</g>
<path d="M241 464L246 466.5V477L241 474.529V464Z" fill="#FFC909"/>
<path d="M241 474.323L246 477V487.5L241 484.977V474.323Z" fill="#FFC909"/>
<path d="M241 464L246 461.444L251 464L246 466.556L241 464Z" fill="#FFEA30"/>
<path d="M246 477.108L250.875 474.529L251 464L246 466.566V477.108Z" fill="#FFE03D"/>
<path d="M246 487.5L250.751 484.976V474.323L246 477V487.5Z" fill="#FFE03D"/>
<path d="M277.577 513L268.977 520L268 528.361L271.127 530.694L274.84 526.417L277.577 532.25L279.726 536.528L283.44 535.75V540.417H288.521L291.844 542.75L289.498 547.222L295.557 550.333L300.443 547.222H304.156L302.202 554.806L307.674 558.5L315.687 562L318.423 559.861L315.687 552.472L319.792 547.222L324.873 544.889L328 540.417L324.873 535.75L321.941 532.25H317.251L315.687 528.361L317.251 523.5L318.423 520L309.824 515.917L305.72 513H300.443L297.707 515.917L291.844 518.056H287.349L285.785 515.917H281.094L277.577 513Z" stroke="black"/>
<path d="M302 506L307 508.5V519L302 516.529V506Z" fill="#FFC909"/>
<path d="M302 516.323L307 519V529.5L302 526.977V516.323Z" fill="#FFC909"/>
<path d="M302 506L307 503.444L312 506L307 508.556L302 506Z" fill="#FFEA30"/>
<path d="M307 519.108L311.875 516.529L312 506L307 508.566V519.108Z" fill="#FFE03D"/>
<path d="M307 529.5L311.751 526.976V516.323L307 519V529.5Z" fill="#FFE03D"/>
<path d="M473.822 441.932L446.116 452.17V459.511L449.58 469.75L444 475.159L452.273 482.307L455.544 490.614V496.795C455.544 498.341 455.929 501.625 456.698 504.909C457.314 507.536 458.751 509.739 459.392 510.511L461.316 514.375L462.47 525L468.435 526.159L479.209 532.341L485.173 529.83V536.011C486.264 537.364 488.56 540.3 489.021 541.227C489.483 542.155 492.549 539.682 494.024 538.33L496.14 534.659L503.451 536.011L508.261 541.227L522.691 545.284C524.423 547.087 527.886 551.041 527.886 552.432C527.886 553.823 531.606 554.428 533.466 554.557L538.66 550.693L544.048 554.557V559H548.473L550.781 554.557L556.938 552.432L562.133 554.557L563.287 550.693L571.368 548.182L577.525 550.693C579.962 551.273 585.413 552.857 587.722 554.557C590.031 556.257 591.891 553.848 592.532 552.432L587.722 545.284L590.031 538.33L595.995 528.67L599.266 519.977L604.268 518.239L606 512.83L600.613 509.159L604.268 504.909L595.995 495.25L592.532 488.489V479.023C591.762 478.636 589.723 477.825 587.722 477.67C585.221 477.477 584.836 473.034 584.836 471.875C584.836 470.948 589.197 465.436 591.378 462.795C589.582 457.386 585.76 446.298 584.836 445.216C583.913 444.134 582.784 438.197 582.335 435.364L579.257 426.864L568.097 424.545L547.126 429.375L527.886 431.693C525.385 432.917 520.113 435.364 519.036 435.364C517.689 435.364 517.309 434.5 515 434.5C513.153 434.5 508 426 508 426L502.105 423C496.397 425.383 484.019 429.375 484.019 429.375C484.019 429.375 481.629 429.89 479 431.693L473.822 441.932Z" stroke="black"/>
<path d="M458 441L463 443.5V454L458 451.529V441Z" fill="#FFC909"/>
<path d="M458 451.323L463 454V464.5L458 461.977V451.323Z" fill="#FFC909"/>
<path d="M458 441L463 438.444L468 441L463 443.556L458 441Z" fill="#FFEA30"/>
<path d="M463 454.108L467.875 451.529L468 441L463 443.566V454.108Z" fill="#FFE03D"/>
<path d="M463 464.5L467.751 461.976V451.323L463 454V464.5Z" fill="#FFE03D"/>
<path d="M554.185 286.433C552.958 286.433 550.349 288 549.198 288L546 289.732L541 291L539.5 289.732L536.5 288L533.5 286.433L530.5 285L527.5 283.5L521 280L520.429 278.09L518.127 266.643L520.429 257.912L514.675 245.689L510.071 217.945V210.378H518.127V201.453L524.456 194.274L529.251 187.484L537.499 162.843L544.403 161.873L539.033 151.784V145.575L526.758 141.695L518.127 133.934V120.547L510.071 104.249V89.698L504.126 82.5193C501.313 81.4199 495.034 79.0658 492.426 78.4449C489.817 77.8241 482.388 70.0374 479 66.2217L481.302 59.043L500.865 71.8483L506.044 66.2217L518.127 69.326L522.155 59.043L520.429 40.8053L522.155 36.1488L529.251 32.2684L535.772 28L545.554 32.2684L551.884 36.1488L549.198 49.3421V52.4464L551.884 54.7746L549.198 63.6995L554.185 71.8483H560.898L572.022 82.5193L567.228 101.921L585 125V133.934V136.5L588.5 146L591 149L594 153L595 155L596 159L598.5 164.5L603 176L617 185.5L622.5 196.5L618.5 214.5L610.5 231.5L606 242C600.378 251.139 595.767 259.448 595 261C594.041 262.94 585 265.5 585 265.5L573 277L559.5 281L554.185 286.433ZM554.185 286.433C555.413 286.433 552.459 287.985 554.185 286.433Z" stroke="black"/>
<path d="M551 258L556 260.5V271L551 268.529V258Z" fill="#FFC909"/>
<path d="M551 268.323L556 271V281.5L551 278.977V268.323Z" fill="#FFC909"/>
<path d="M551 258L556 255.444L561 258L556 260.556L551 258Z" fill="#FFEA30"/>
<path d="M556 271.108L560.875 268.529L561 258L556 260.566V271.108Z" fill="#FFE03D"/>
<path d="M556 281.5L560.751 278.976V268.323L556 271V281.5Z" fill="#FFE03D"/>
<path d="M342.218 478.685V471.22L340.286 464.711L343.5 462.5L349 457.5L355 463H363.5V455L364.5 451.5L365.5 448.249L366.5 445.5V442.5V433.5C367.788 433.372 368.338 431.863 369.265 432.169C370.193 432.475 376.092 433.828 378.925 434.466L382.403 439.252L386.846 443.463L392.063 444.803L395 447.5L400 450.5L401.916 450L405.78 448.249L414.5 444L419 441L422.5 439L430 434L435.5 441.5L439 446L450 450.5L446.226 452.151L446 459.5L449.5 469.5L444.226 475L452.5 482.5L455.5 490.5V498L456.5 504.5L459 510L461.5 514.5L462 522L462.5 525L449.442 528.073L441.907 531.71L434.759 538.027L427.224 540.515L416.985 542.813L425.679 550.47V560.998L431.861 566.741L439.01 574.589H444.226L448.283 579.949L446.931 588.18L444.226 584.16L443.26 588.18L434.759 594.306L431.861 597.56L435.725 602.92L431.861 609.046H422.974L412.348 611.917L404.814 615.363L396.506 611.917L392.063 617.851L389.358 619L383.755 611.917L372.743 609.046L363.469 607.131H359.992L358.253 610.386H348.98L344.343 611.917V602.92L347.048 593.157L348.98 586.457L354.196 583.203V576.312L347.048 574.589L336.035 570.186L331.592 571.526C330.304 569.612 327.728 565.554 327.728 564.635C327.728 563.716 326.054 562.721 325.216 562.338L327.728 556.595L323.864 552.767V546.067L327.728 540.515L325.5 537L323 533.5L320 526.924L323.864 521.564V513.142L322.512 508.547L323.864 503.762L333.331 506.059L336.035 499.742L338.354 496.296L336.035 491.319L333.5 486.5L338.354 486.342V481.557L342.218 478.685Z" stroke="black"/>
<path d="M379 454L384 456.5V467L379 464.529V454Z" fill="#FFC909"/>
<path d="M379 464.323L384 467V477.5L379 474.977V464.323Z" fill="#FFC909"/>
<path d="M379 454L384 451.444L389 454L384 456.556L379 454Z" fill="#FFEA30"/>
<path d="M384 467.108L388.875 464.529L389 454L384 456.566V467.108Z" fill="#FFE03D"/>
<path d="M384 477.5L388.751 474.976V464.323L384 467V477.5Z" fill="#FFE03D"/>
<path d="M408 555L413 557.5V568L408 565.529V555Z" fill="#FFC909"/>
<path d="M408 565.322L413 568V578.5L408 575.976V565.322Z" fill="#FFC909"/>
<path d="M408 555L413 552.444L418 555L413 557.555L408 555Z" fill="#FFEA30"/>
<path d="M413 568.108L417.875 565.529L418 555L413 557.565V568.108Z" fill="#FFE03D"/>
<path d="M413 578.5L417.751 575.976V565.322L413 568V578.5Z" fill="#FFE03D"/>
<path d="M367 525L372 527.5V538L367 535.529V525Z" fill="#FFC909"/>
<path d="M367 535.323L372 538V548.5L367 545.976V535.323Z" fill="#FFC909"/>
<path d="M367 525L372 522.444L377 525L372 527.556L367 525Z" fill="#FFEA30"/>
<path d="M372 538.108L376.875 535.529L377 525L372 527.566V538.108Z" fill="#FFE03D"/>
<path d="M372 548.5L376.751 545.976V535.323L372 538V548.5Z" fill="#FFE03D"/>
<path d="M349 486L354 488.5V499L349 496.529V486Z" fill="#FFC909"/>
<path d="M349 496.323L354 499V509.5L349 506.977V496.323Z" fill="#FFC909"/>
<path d="M349 486L354 483.444L359 486L354 488.556L349 486Z" fill="#FFEA30"/>
<path d="M354 499.108L358.875 496.529L359 486L354 488.566V499.108Z" fill="#FFE03D"/>
<path d="M354 509.5L358.751 506.976V496.323L354 499V509.5Z" fill="#FFE03D"/>
<path d="M436.5 855L441 854L443.48 852.218L449.5 848.5H456H469L478 846L488 843L497 840.5L502.317 839L505.5 831.5L507.893 828V826L507 823.5L505 820.5L502.317 813L502 808L499.625 804.5L496.356 801.109L492.5 798.205L487.5 794.5L483 789.5L480.5 787.5L477.5 785L474 781.5L465.5 783L460.5 782.33L457 777.5L448.479 770.5L445 768L441.5 766.5L435.5 764.5L431.5 762.5L427.5 758L422.907 753.678L419 749.612L414.5 744L409 738L406 735L401.564 733.156L399.5 732C399.5 732 394.911 729.899 393.681 722C392.45 714.101 385 713.5 384.5 708.5L379 702L372.5 695H365L359.264 696.179L356 697L353 697.5L348.496 698.503L344.5 695.5L337.537 698.503L329.846 694.437V689.597L335.229 684.176L326 672.561H332.537L337.537 667.721L332 655.911L335.229 654.75L341.767 652.62L348.496 654.75L353.88 649.91V645.651L359.264 641.198L365.416 649.91L369.5 654L370.416 649.91L373.684 641.198L376.376 639.069L378.107 643.328H384.067L390.028 645.651L387.72 639.069L390.028 636.165L393.681 639.069V634.035L394 630.5H398L401.564 634.035L402.5 631.131L404.5 626.5H418.5L421.5 623.5L424.445 631.131L432.5 633L438 635L448.479 636.165L445.211 643.328L449.633 645.651L448.479 649.91L447 654.75L445.211 655.5L442 656.5L437.5 657.5L432.5 658.5L429 664L427 666.5V670.5V673.5V676V680.305V687V691.5L434.5 701.5L438.5 707.5L445.211 711.5L453 715L460.5 731L467 737.5L471.5 741.287H479L482.5 744.5L486 747.5L496.356 749.612H499.5L502.317 750.5V753.678V756.5V760.5L519 762.5L524.5 766.5L531 769L538.191 771.5L542 773L547 779.5L551.5 785.5L553.5 788L552 790.5L551 792L548.5 796.462L545.002 792.784L541 789L536.157 784.459L533 781.5H529H525.774H520.892L516.5 792L513.5 799.5L522 807L525.5 810V817V821.5V826.5L522 831.5L519 836L515.5 840.5L510.5 846L508.5 848.5L503 846L497 844.5L496 849.5L494 861V867L496.356 877.5L494 881L491.357 882.5C487.962 882.5 485.231 881.965 484 881.5C482.769 881.035 478.141 881.581 475 879L469.5 877.5L462 874.5L454.5 868.5L442 862L438 859L436.5 855Z" stroke="black"/>
<path d="M378.477 771.355L374.919 770L371.36 771.355L368.395 774.065L365.628 778.129L360.884 779.097L357.326 780.258L353.965 779.097L352.186 776.194L351 778.129C351.461 779.484 352.344 782.387 352.186 783.161C352.028 783.935 351.329 785.677 351 786.452H355.942L358.116 791.484L359.105 798.452L355.942 803.097L357.326 805.226C358.314 804.645 360.409 803.406 360.884 803.097C361.358 802.787 362.004 804.387 362.267 805.226L358.116 808.323L357.326 813.742L359.105 817.226H355.942C355.81 818.387 355.626 820.865 355.942 821.484C356.258 822.103 356.469 823.161 356.535 823.613L353.965 825.935L356.535 828.645L359.105 825.161L362.267 830H368.395L369.581 825.935L370.57 821.871H373.93L374.919 824.387L379.267 825.161L382.233 821.871L383.221 800L382.233 794.581L385 789.742L383.221 784.323L382.233 780.258H380.651L378.477 779.097L379.267 776.194L378.477 771.355Z" fill="#326D3B" fill-opacity="0.5" stroke="black"/>
<path d="M384 656L389 658.5V669L384 666.529V656Z" fill="#FFC909"/>
<path d="M384 666.323L389 669V679.5L384 676.976V666.323Z" fill="#FFC909"/>
<path d="M384 656L389 653.444L394 656L389 658.556L384 656Z" fill="#FFEA30"/>
<path d="M389 669.108L393.875 666.529L394 656L389 658.566V669.108Z" fill="#FFE03D"/>
<path d="M389 679.5L393.751 676.976V666.323L389 669V679.5Z" fill="#FFE03D"/>
<path d="M696.5 740C697.085 742.311 694.39 741.459 694 743C691.791 742.486 689.774 745.989 687.197 744.878C684 743.5 673 741.5 673 741.5C673 741.5 666.339 744.5 664 744.5C661.661 744.5 662.641 745.845 661.277 747C659.913 748.155 657 750.5 654.846 752.5C653.275 753.959 655.5 758.5 655.5 758.5L660 763.5L663 766.5L660 773C660 773 649.839 772.693 647.5 772.5C645.629 772.346 638.949 766.682 637 764.5L632.5 761C632.24 763.76 632.5 773 632.5 773L639 782.235L645 793.5L650 798.5L654.846 801.5L665 807.5C669.937 811.736 680.5 826 680.5 826C680.5 826 678.5 831 676 833.5L663 829V839L654.846 845.5L660 860L654.5 862L647.5 864L634.5 855.5L630 852.5C628.376 849.355 628 851.059 628 850.5C628 850.103 625.28 847.77 624.5 847C623.72 846.23 620.974 843.463 620 842.5C619.026 841.537 600.169 838.73 599 839.5C598.065 840.116 598.638 834.5 599 830.376V819.5V817L596.5 811.5L589 800L588 791.863C589.494 788.911 592.677 782.851 593.457 782.235C594.236 781.619 596.9 776.33 598.134 773.762L600.862 767.023L598.134 763.171L612.556 757.78L617.623 752.003L631.265 749.884V744.878L640.034 742.375L661.277 731.206L670.826 736.405L687.197 733.902L692.654 727.547C692.524 725.365 692.342 721 692.654 721C692.965 721 694.291 718.5 696.5 718.5C697.474 720.169 698.688 726.315 699 727.547C699.312 728.78 698.5 731.5 698.5 731.5C699.085 733.426 696.032 738.151 696.5 740Z" stroke="black"/>
<path d="M665 807L670 809.5V820L665 817.529V807Z" fill="#FFC909"/>
<path d="M665 817.323L670 820V830.5L665 827.976V817.323Z" fill="#FFC909"/>
<path d="M665 807L670 804.444L675 807L670 809.556L665 807Z" fill="#FFEA30"/>
<path d="M670 820.108L674.875 817.529L675 807L670 809.566V820.108Z" fill="#FFE03D"/>
<path d="M670 830.5L674.751 827.976V817.323L670 820V830.5Z" fill="#FFE03D"/>
<path d="M728.5 588.5L725.321 585.023L723.778 579.624L716.252 578.467C715.866 576.025 715.056 571.14 714.901 571.14C714.747 571.14 712.136 571.14 710.849 571.14L704.867 568.441V560.921L701.78 554.751H696.763H691.167C689.044 553.787 684.452 551.859 683.062 551.859C681.673 551.859 677.338 551.859 675.344 551.859C673.221 552.823 668.436 554.751 666.274 554.751C663.573 554.751 662.029 556.486 660.872 558.414C659.945 559.957 658.299 560.728 657.591 560.921L654.311 563.042V568.441C652.445 569.341 648.213 571.14 646.206 571.14C643.698 571.14 640.224 573.647 638.295 574.804C636.751 575.729 635.336 578.403 634.821 579.624L628.647 574.804H626.524C623.951 575.446 618.227 576.732 615.911 576.732C613.595 576.732 607.742 576.732 605.105 576.732L599.895 579.624L596.808 575.961L591.983 576.732C589.99 575.254 584.5 572.926 584.5 572C584.5 571.075 586.816 560.688 587.973 555.611L592.5 553L587.5 545L590 538L596 528.5L599.5 520L604.5 518L606 513L600.5 509L604.5 505L596.5 496.5L594.106 490.544L599.895 485.338L605.105 481.481L612.245 478.011C616.554 477.24 625.443 475.697 626.524 475.697C627.605 475.697 637.008 475.697 641.575 475.697L652.96 479.361C653.217 478.139 653.848 475.35 654.311 473.962C654.774 472.573 661.322 473.383 664.538 473.962L668.976 475.697L673.028 473.962L675.344 470.105L680.94 473.962L683.062 470.105C685.121 469.527 689.623 468.409 691.167 468.563C692.711 468.717 696.313 470.684 697.921 471.648C697.856 469.334 697.535 464.591 696.763 464.128C695.991 463.665 697.985 456.866 699.078 453.523L709.305 446.582L716.252 444.268L721.848 437.327C724.035 435.72 725.993 434.617 728 434C730.007 433.383 738.62 432.057 741 431.735C744.666 434.756 750.5 439.5 750.5 439.5V446.582V450.5H766L767.002 572.297C767.002 574 763.2 573.5 761.502 573.5C759.379 573.5 753.002 572.843 753.002 574C753.002 575.157 747.898 575.961 746.933 576.732C745.969 577.503 740.51 581.572 738.002 583.5C735.493 585.428 736.502 587.15 736.502 588.5" stroke="black"/>
<path d="M751 545L756 547.5V558L751 555.529V545Z" fill="#FFC909"/>
<path d="M751 555.323L756 558V568.5L751 565.976V555.323Z" fill="#FFC909"/>
<path d="M751 545L756 542.444L761 545L756 547.556L751 545Z" fill="#FFEA30"/>
<path d="M756 558.108L760.875 555.529L761 545L756 547.566V558.108Z" fill="#FFE03D"/>
<path d="M756 568.5L760.751 565.976V555.323L756 558V568.5Z" fill="#FFE03D"/>
<path d="M584.531 571.76L588 555.011L580 551.5L571.5 548L563.5 550.5L562 554.5L557 552.5L551 554.5L548.5 558.712H544V554.5L538.5 551L533 554.5L530 554L527.872 552.09L517.85 558.712V565.528L510.719 571.76L503.782 572.929L500.313 576.24L498 582.277L503.782 593.184L514.574 600L529.991 597.468L533.075 589.873L555.816 582.277V574.292L570.848 571.76L577.979 574.292L584.531 571.76Z" stroke="black"/>
<path d="M520 546L525 548.5V559L520 556.529V546Z" fill="#FFC909"/>
<path d="M520 556.323L525 559V569.5L520 566.976V556.323Z" fill="#FFC909"/>
<path d="M520 546L525 543.444L530 546L525 548.556L520 546Z" fill="#FFEA30"/>
<path d="M525 559.108L529.875 556.529L530 546L525 548.566V559.108Z" fill="#FFE03D"/>
<path d="M525 569.5L529.751 566.976V556.323L525 559V569.5Z" fill="#FFE03D"/>
<path d="M457.944 638L448.843 636.072L437.611 634.916L424.443 631.253L421.539 623.349L418.634 626.434H404.304L401.593 633.759L398.301 630.289H393.847L389.393 626.434L387.844 631.253L385.714 630.289L377 625.47V621.807L378.356 618.723L377 616.795L380.5 611L384 612L389.393 618.723L392.5 617.5L396.5 612L399.5 613L404.304 615.5L406.241 614.675L408.5 613.5L412.5 612L417.5 610.5L421.539 609.277L432 609L433.5 606L435.5 603L432 597.5L435 594L439 591L443 588.5L444 584L447 588L448 580.169H450.392L453.877 584.41C455.62 584.088 459.338 583.446 460.268 583.446C461.197 583.446 462.592 582.032 463.172 581.325L464.722 578.627L467.239 578.241L468.401 574H478.858L485.054 577.277L491.638 575.349L499.384 578.627L498 582L501.5 589L503.5 592.5L502.87 601.759L499.384 603.494L497.835 601.759H495.318V605.422L499.384 607.542L495.318 612.169L496.48 616.795V620.072H492.607V623.349L489.896 624.506L487.572 628.94H483.893L482.343 631.253H476.34L470.337 632.602L465.496 638H457.944Z" stroke="black"/>
<path d="M471 600L476 602.5V613L471 610.529V600Z" fill="#FFC909"/>
<path d="M471 610.323L476 613V623.5L471 620.976V610.323Z" fill="#FFC909"/>
<path d="M471 600L476 597.444L481 600L476 602.556L471 600Z" fill="#FFEA30"/>
<path d="M476 613.108L480.875 610.529L481 600L476 602.566V613.108Z" fill="#FFE03D"/>
<path d="M476 623.5L480.751 620.976V610.323L476 613V623.5Z" fill="#FFE03D"/>
<path d="M490 571L495 573.5V584L490 581.529V571Z" fill="#FFC909"/>
<path d="M490 581.323L495 584V594.5L490 591.976V581.323Z" fill="#FFC909"/>
<path d="M490 571L495 568.444L500 571L495 573.556L490 571Z" fill="#FFEA30"/>
<path d="M495 584.108L499.875 581.529L500 571L495 573.566V584.108Z" fill="#FFE03D"/>
<path d="M495 594.5L499.751 591.976V581.323L495 584V594.5Z" fill="#FFE03D"/>
<path d="M438 580L443 582.5V593L438 590.529V580Z" fill="#FFC909"/>
<path d="M438 590.323L443 593V603.5L438 600.976V590.323Z" fill="#FFC909"/>
<path d="M438 580L443 577.444L448 580L443 582.556L438 580Z" fill="#FFEA30"/>
<path d="M443 593.108L447.875 590.529L448 580L443 582.566V593.108Z" fill="#FFE03D"/>
<path d="M443 603.5L447.751 600.976V590.323L443 593V603.5Z" fill="#FFE03D"/>
<g filter="url(#filter4_b_57_482)">
<path d="M146 429.383V426.266L140.236 419.059L138.122 412.241C136.265 414.513 132.243 419.059 131.013 419.059C129.783 419.059 127.682 420.357 126.786 421.007C125.569 419.773 123.135 416.994 123.135 415.747V408.15L131.013 401.527L142.349 391.592L138.122 388.086C136.713 388.021 133.319 387.93 131.013 388.086C128.131 388.281 126.786 390.229 117.371 395.878C114.911 396.657 114.681 399.969 114.873 401.527C115.705 402.111 117.986 403.67 120.445 405.228C123.519 407.176 118.908 408.15 117.371 412.241C115.833 416.332 114.873 412.241 112.759 412.241C111.068 412.241 108.34 409.514 107.187 408.15C105.073 406.722 98.8096 404.722 90.6627 408.15C84.5141 411.851 88.5491 410.682 96.8113 415.747C102.96 418.085 93.1606 417.5 90.6627 419.059C88.1649 420.617 88.5491 420.617 93.1606 432.305C94.6977 435.227 102.96 433.279 104.497 434.253C106.034 435.227 100.846 436.98 93.1606 442.045C85.4748 447.11 88.5491 446.915 85.2827 448.473C82.0163 450.031 80.0948 450.421 75.0991 450.616C70.1034 450.811 72.7934 453.538 72.217 456.849C71.6405 460.161 73.9462 464.836 75.0991 467.953L75.1348 468.049C76.2563 471.082 76.4821 471.692 80.0948 475.355C83.7456 479.056 84.8984 475.355 88.5491 475.355C92.1999 475.355 97.3877 476.134 100.846 475.355C104.305 474.576 110.646 471.654 114.873 471.654C119.1 471.654 122.559 471.459 126.786 471.654C130.167 471.81 134.471 469.251 136.201 467.953L142.349 453.538L146 439.902V429.383Z" fill="#326D3B" fill-opacity="0.5"/>
<path d="M146 429.383V426.266L140.236 419.059L138.122 412.241C136.265 414.513 132.243 419.059 131.013 419.059C129.783 419.059 127.682 420.357 126.786 421.007C125.569 419.773 123.135 416.994 123.135 415.747V408.15L131.013 401.527L142.349 391.592L138.122 388.086C136.713 388.021 133.319 387.93 131.013 388.086C128.131 388.281 126.786 390.229 117.371 395.878C114.911 396.657 114.681 399.969 114.873 401.527C115.705 402.111 117.986 403.67 120.445 405.228C123.519 407.176 118.908 408.15 117.371 412.241C115.833 416.332 114.873 412.241 112.759 412.241C111.068 412.241 108.34 409.514 107.187 408.15C105.073 406.722 98.8096 404.722 90.6627 408.15C84.5141 411.851 88.5491 410.682 96.8113 415.747C102.96 418.085 93.1606 417.5 90.6627 419.059C88.1649 420.617 88.5491 420.617 93.1606 432.305C94.6977 435.227 102.96 433.279 104.497 434.253C106.034 435.227 100.846 436.98 93.1606 442.045C85.4748 447.11 88.5491 446.915 85.2827 448.473C82.0163 450.031 80.0948 450.421 75.0991 450.616C70.1034 450.811 72.7934 453.538 72.217 456.849C71.6405 460.161 73.9462 464.836 75.0991 467.953L75.1348 468.049C76.2563 471.082 76.4821 471.692 80.0948 475.355C83.7456 479.056 84.8984 475.355 88.5491 475.355C92.1999 475.355 97.3877 476.134 100.846 475.355C104.305 474.576 110.646 471.654 114.873 471.654C119.1 471.654 122.559 471.459 126.786 471.654C130.167 471.81 134.471 469.251 136.201 467.953L142.349 453.538L146 439.902V429.383Z" stroke="black"/>
</g>
<path d="M453 658.748L459.5 660.607L462.5 659.863L468.5 654.285L471.039 660.607L473.262 663.397L477.707 664.512L482.708 665.256L484.004 662.653V659.863V656.702L485.486 655.4H488.634C488.943 655.71 489.56 656.144 489.56 655.4C489.56 654.471 488.634 652.425 488.634 651.123C488.634 650.082 487.894 647.342 487.523 646.102L491.598 644.429L495.487 641.639C495.549 640.648 495.784 638.627 496.228 638.478C496.673 638.329 499.006 637.3 500.117 636.805M500.117 636.805L497.525 632.342L492.339 623.5L500.117 636.805ZM500.117 636.805L504.377 640.152L511.971 644.429L518.453 649.264C519.194 650.132 520.75 651.793 521.046 651.495C521.343 651.198 525.368 651.743 527.343 652.053L532.159 652.425L537.345 650.194L541.049 647.218M541.049 647.218L544.198 646.102L547.902 643.127H550.495L553.273 638.478H560.681C561.118 638.259 561.739 637.953 562.348 637.663M541.049 647.218L543.272 650.565L545.124 654.285L545.494 656.516L547.531 658.748L554.199 662.839L547.902 663.397L549.013 667.116V668.696M584.018 612.444L583.092 619.696L579.758 623.787L579.202 631.226L576.98 634.387L574.572 632.713L572.535 633.085L571.979 637.176C569.572 637.052 564.682 636.805 564.386 636.805C564.206 636.805 563.289 637.215 562.348 637.663M584.018 612.444L585.5 605.192L585.619 604.823M584.018 612.444L585.619 604.823M600 579L595.316 591.617L587.722 598.311L585.619 604.823M562.348 637.663L567.164 643.685L571.609 644.429L573.646 646.474L573.276 649.078L578.462 655.4L587.352 657.632L590.315 659.863L589.76 662.095L587.722 664.512L589.204 667.116C590.068 667.55 591.871 668.455 592.167 668.603C592.538 668.789 597.538 669.161 597.909 669.161C598.205 669.161 600.378 669.905 601.428 670.277L602.724 673.066C603.218 671.083 604.28 667.116 604.576 667.116C604.873 667.116 607.416 666.372 608.651 666L610.318 666.372L612.17 668.603C611.553 669.285 610.318 670.798 610.318 671.393C610.318 671.988 610.318 673.748 610.318 674.554L615.689 677.157L619.578 678.087C619.085 678.769 618.134 680.282 618.282 680.877C618.43 681.472 618.344 683.48 618.282 684.41L619.578 685.526L629.209 684.41L639.952 683.294H644.767L648.471 681.992L654.954 680.877L661.066 680.133L665.511 679.203L668.289 676.414L671.067 673.066L674.956 670.277L678.661 667.116L682.735 664.512L687.921 662.653L692.922 662.095L696.256 662.653L699.034 662.095H702.738L705.516 663.397L709.22 664.512L720 665V652.5V640.5L720.5 638L721.259 636.805L728 628.5L716.629 620.998L714.406 623.787L712.184 626.205L708.109 626.949C707.739 627.445 706.961 628.622 706.813 629.366C706.665 630.11 704.405 630.048 703.294 629.924L699.034 626.205L697.923 625.142M654.028 568.93H654.954L658.658 568H661.066L665.511 571.161V573.765L668.289 576.554L671.067 579.343C671.931 580.149 673.66 581.91 673.66 582.505C673.66 583.1 676.5 586.472 677.92 588.083L682.735 589.571L687.921 594.22L690.885 598.311L691.811 602.588V608.725L692.922 614.118L695.144 619.696V622.486L697.923 625.142M697.923 625.142L699.589 623.787C700.269 623.602 701.664 623.23 701.812 623.23C701.96 623.23 702.491 622.486 702.738 622.114V620.44L700.886 619.324C700.948 618.581 701.145 617.093 701.442 617.093C701.738 617.093 702.8 616.349 703.294 615.977L704.405 614.304C703.788 613.87 702.59 612.965 702.738 612.816C702.923 612.63 704.961 610.956 705.146 610.956C705.331 610.956 705.701 608.911 705.701 608.353C705.701 607.795 705.701 606.121 705.701 605.564C705.701 605.117 705.208 604.138 704.961 603.704C704.22 603.084 702.738 601.807 702.738 601.658C702.738 601.472 702.553 599.427 702.923 598.869C703.294 598.311 704.035 597.753 704.22 597.753C704.368 597.753 704.899 597.753 705.146 597.753L706.628 598.497L708.109 599.427L709.591 598.497C709.961 598.187 710.776 597.567 711.073 597.567C711.369 597.567 713.048 597.443 713.851 597.381L714.406 596.452L717.185 597.381C717.493 597.443 718.148 597.53 718.296 597.381C718.481 597.195 719.407 595.708 719.592 595.522C719.74 595.373 728.13 588.996 728.5 588.5M556.422 702.448H551.421L555.125 706.167L554.199 709.328H551.421L549.013 708.398L546.791 711.932L547.531 714.349L546.791 717.51H544.198L544.938 721.973L546.791 724.949V727.738V734L541.049 727.738L537.345 724.949L530.677 721.23L527.343 716.395L524.195 714.349L522.528 709.328L518.453 707.097L513.082 702.448L506.785 699.287L504.377 695.939L501.044 692.592L498.821 687.757L497.525 684.41L495.487 683.294L492.339 680.877L489.56 678.087L491.598 673.81L492.339 669.161H496.228L497.525 672.323L501.044 673.81L501.784 669.161H506.785L509.934 666.372L515.12 668.603L521.046 669.161L527.343 668.603H532.159L536.234 667.116H541.049L543.272 668.603V671.393L546.791 672.323L549.013 670.277V668.696M556.422 702.448L559.2 700.774H560.681L562.348 699.287L560.681 697.985L559.2 695.939L555.125 693.708L556.422 692.592L561.422 691.848L560.681 689.245L557.903 687.757L553.273 686.455L551.421 684.41V679.203L554.199 674.554L553.273 670.277L551.421 668.603L549.013 668.696M556.422 702.448L557.903 706.167L562.348 708.398L565.497 711.932H571.609L574.572 713.233L579.202 715.279M579.202 715.279L576.98 717.51L573.646 719.556L574.572 722.903L574.109 724.577M579.202 715.279L580.499 714.349V708.027L585.583 704.679L589.76 709.328H594.945H596.983L600.317 715.279L604.576 717.51L601.428 723.833V727.738M564.386 743.359V739.268V735.548L562.348 732.201L564.386 727.738L567.164 724.949L568.09 723.833L569.572 727.738L573.646 726.25L574.109 724.577M574.109 724.577L576.98 727.738L583.092 730.899L585.685 735.548L585.583 735.776M597.909 763L594.945 761.211H591.241L589.204 756.934L587.722 753.586L585.685 747.45L584.018 743.359V739.268L585.583 735.776M585.583 735.776L587.167 740.011L589.76 739.268L590.315 735.548L592.167 730.899L594.945 729.412L598.279 732.945L600.317 727.738H601.428M601.428 727.738L606.799 726.25L610.318 723.833L615.689 722.903L620.134 726.994L624.95 727.738L628.283 732.945L630.691 737.594V741.499L631.5 745.5" stroke="black"/>
<path d="M400 343.5V338.5V331.5V330C401.017 329.727 401.883 326.873 401.883 325.889C401.883 324.905 401.883 321.653 401.883 320.15L409.412 315.846V305.393C407.513 301.909 403.877 294.53 404.529 292.891C405.18 291.251 409.276 288.381 411.243 287.152C411.854 285.922 412.708 282.971 411.243 281.003C409.412 278.543 407.377 276.699 406.767 275.059C406.278 273.747 405.071 270.003 404.529 268.295C404.529 266.177 404.529 261.614 404.529 260.302C404.529 258.662 407.174 258.867 404.529 253.333C401.883 247.799 401.883 249.029 401.883 244.11C401.883 239.191 403.511 237.756 401.883 234.682C400.581 232.222 398.085 230.105 397 229.353C398.628 228.533 401.883 226.648 401.883 225.664C401.883 224.434 404.529 222.179 404.529 220.13C404.529 218.49 404.529 213.981 404.529 211.931L412.871 209.472H420.4L423.859 206.193V198.609L420.4 194.305V187.336L425.283 180.368C425.283 177.157 425.283 170.448 425.283 169.3C425.283 168.152 425.283 163.766 425.283 161.716L423.859 156.592V151.673H429.352L433.422 146.959V139.581L437.288 133.842L441.764 124.619L437.288 115.805L441.764 110.066V102.483L447.868 96.1291L451.531 97.9737H454.38V90.1853V84.8563C454.787 84.1731 455.845 82.8067 456.821 82.8067C457.798 82.8067 462.383 82.8067 464.553 82.8067L470.658 86.291L473.099 84.8563L474.32 80.1422V71.5339L470.658 67.4347L479 66" stroke="black"/>
<defs>
<filter id="filter0_b_57_482" x="-3.5918" y="-3.51123" width="774.092" height="891.011" filterUnits="userSpaceOnUse" color-interpolation-filters="sRGB">
<feFlood flood-opacity="0" result="BackgroundImageFix"/>
<feGaussianBlur in="BackgroundImage" stdDeviation="2"/>
<feComposite in2="SourceAlpha" operator="in" result="effect1_backgroundBlur_57_482"/>
<feBlend mode="normal" in="SourceGraphic" in2="effect1_backgroundBlur_57_482" result="shape"/>
</filter>
<filter id="filter1_b_57_482" x="15.1172" y="49.5" width="128.383" height="119" filterUnits="userSpaceOnUse" color-interpolation-filters="sRGB">
<feFlood flood-opacity="0" result="BackgroundImageFix"/>
<feGaussianBlur in="BackgroundImage" stdDeviation="5"/>
<feComposite in2="SourceAlpha" operator="in" result="effect1_backgroundBlur_57_482"/>
<feBlend mode="normal" in="SourceGraphic" in2="effect1_backgroundBlur_57_482" result="shape"/>
</filter>
<filter id="filter2_b_57_482" x="123.242" y="307.447" width="145.258" height="232.291" filterUnits="userSpaceOnUse" color-interpolation-filters="sRGB">
<feFlood flood-opacity="0" result="BackgroundImageFix"/>
<feGaussianBlur in="BackgroundImage" stdDeviation="5"/>
<feComposite in2="SourceAlpha" operator="in" result="effect1_backgroundBlur_57_482"/>
<feBlend mode="normal" in="SourceGraphic" in2="effect1_backgroundBlur_57_482" result="shape"/>
</filter>
<filter id="filter3_b_57_482" x="112.5" y="384.5" width="59" height="52.063" filterUnits="userSpaceOnUse" color-interpolation-filters="sRGB">
<feFlood flood-opacity="0" result="BackgroundImageFix"/>
<feGaussianBlur in="BackgroundImage" stdDeviation="5"/>
<feComposite in2="SourceAlpha" operator="in" result="effect1_backgroundBlur_57_482"/>
<feBlend mode="normal" in="SourceGraphic" in2="effect1_backgroundBlur_57_482" result="shape"/>
</filter>
<filter id="filter4_b_57_482" x="61.5" y="377.5" width="95" height="110" filterUnits="userSpaceOnUse" color-interpolation-filters="sRGB">
<feFlood flood-opacity="0" result="BackgroundImageFix"/>
<feGaussianBlur in="BackgroundImage" stdDeviation="5"/>
<feComposite in2="SourceAlpha" operator="in" result="effect1_backgroundBlur_57_482"/>
<feBlend mode="normal" in="SourceGraphic" in2="effect1_backgroundBlur_57_482" result="shape"/>
</filter>
</defs>
</svg>
